<svg xmlns="http://www.w3.org/2000/svg" xmlns:xlink="http://www.w3.org/1999/xlink" width="500" zoomAndPan="magnify" viewBox="0 0 375 374.999991" height="500" preserveAspectRatio="xMidYMid meet" version="1.0"><defs><g/><clipPath id="233e57f6ff"><rect x="0" width="162" y="0" height="217"/></clipPath><clipPath id="e8e2880673"><rect x="0" width="184" y="0" height="159"/></clipPath><clipPath id="e47573e753"><path d="M 7.8125 136.054688 L 172.8125 136.054688 L 172.8125 301 L 7.8125 301 Z M 7.8125 136.054688 " clip-rule="nonzero"/></clipPath></defs><rect x="-37.5" width="450" fill="#ffffff" y="-37.499999" height="449.999989" fill-opacity="1"/><rect x="-37.5" width="450" fill="#3c503d" y="-37.499999" height="449.999989" fill-opacity="1"/><g transform="matrix(1, 0, 0, 1, 160, 48)"><g clip-path="url(#233e57f6ff)"><g fill="#ffffff" fill-opacity="1"><g transform="translate(2.674603, 127.051966)"><g><path d="M 46.40625 -93.6875 C 37.78125 -91.570312 31.671875 -87.851562 28.078125 -82.53125 C 24.484375 -77.207031 22.347656 -70.488281 21.671875 -62.375 C 27.503906 -62.375 32.003906 -62.375 35.171875 -62.375 C 38.347656 -62.375 40.613281 -62.375 41.96875 -62.375 C 43.320312 -62.375 44.144531 -62.351562 44.4375 -62.3125 C 44.726562 -62.269531 44.875 -62.25 44.875 -62.25 L 44.875 -44.125 C 44.539062 -44.039062 43.144531 -43.953125 40.6875 -43.859375 C 38.238281 -43.773438 35.300781 -43.710938 31.875 -43.671875 C 28.457031 -43.628906 25.054688 -43.609375 21.671875 -43.609375 C 21.765625 -42.515625 21.851562 -41.414062 21.9375 -40.3125 C 22.019531 -39.21875 22.101562 -38.078125 22.1875 -36.890625 C 22.613281 -32.242188 23.351562 -27.085938 24.40625 -21.421875 C 25.457031 -15.765625 26.785156 -10.226562 28.390625 -4.8125 C 30.003906 0.59375 31.738281 5.367188 33.59375 9.515625 L 11.03125 9.515625 C 9.84375 6.640625 8.695312 3.238281 7.59375 -0.6875 C 6.5 -4.625 5.53125 -8.769531 4.6875 -13.125 C 3.84375 -17.476562 3.125 -21.722656 2.53125 -25.859375 C 1.9375 -30.003906 1.515625 -33.722656 1.265625 -37.015625 C 0.335938 -48.847656 0.378906 -59.789062 1.390625 -69.84375 C 2.410156 -79.90625 4.628906 -88.820312 8.046875 -96.59375 C 11.472656 -104.375 16.332031 -110.71875 22.625 -115.625 C 28.925781 -120.53125 36.851562 -123.703125 46.40625 -125.140625 Z M 46.40625 -93.6875 "/></g></g></g><g fill="#ffffff" fill-opacity="1"><g transform="translate(49.072012, 127.051966)"><g><path d="M 23.328125 -66.9375 C 20.703125 -66.9375 18.3125 -67.59375 16.15625 -68.90625 C 14.007812 -70.21875 12.28125 -71.972656 10.96875 -74.171875 C 9.65625 -76.367188 9 -78.773438 9 -81.390625 C 9 -84.097656 9.65625 -86.53125 10.96875 -88.6875 C 12.28125 -90.84375 14.007812 -92.570312 16.15625 -93.875 C 18.3125 -95.1875 20.703125 -95.84375 23.328125 -95.84375 C 26.035156 -95.84375 28.460938 -95.1875 30.609375 -93.875 C 32.765625 -92.570312 34.5 -90.84375 35.8125 -88.6875 C 37.125 -86.53125 37.78125 -84.097656 37.78125 -81.390625 C 37.78125 -78.773438 37.125 -76.367188 35.8125 -74.171875 C 34.5 -71.972656 32.765625 -70.21875 30.609375 -68.90625 C 28.460938 -67.59375 26.035156 -66.9375 23.328125 -66.9375 Z M 6.21875 -7.859375 C 5.03125 -15.640625 4.5 -23.476562 4.625 -31.375 C 4.75 -39.28125 5.320312 -48.007812 6.34375 -57.5625 L 25.984375 -57.5625 C 25.054688 -47.84375 25.054688 -38.945312 25.984375 -30.875 C 26.921875 -22.800781 28.53125 -15.128906 30.8125 -7.859375 Z M 6.21875 -7.859375 "/></g></g></g><g fill="#ffffff" fill-opacity="1"><g transform="translate(81.144542, 127.051966)"><g><path d="M 54.015625 -58.953125 C 59.585938 -58.953125 63.894531 -57.320312 66.9375 -54.0625 C 69.976562 -50.8125 71.878906 -46.414062 72.640625 -40.875 C 73.398438 -35.34375 73.125 -29.113281 71.8125 -22.1875 C 70.507812 -15.257812 68.269531 -8.097656 65.09375 -0.703125 C 61.925781 6.691406 57.976562 13.859375 53.25 20.796875 L 27.265625 21.046875 C 29.710938 17.578125 32.140625 13.707031 34.546875 9.4375 C 36.953125 5.175781 39.191406 0.847656 41.265625 -3.546875 C 43.335938 -7.941406 45.050781 -12.1875 46.40625 -16.28125 C 47.757812 -20.382812 48.601562 -24.082031 48.9375 -27.375 C 49.269531 -30.675781 48.929688 -33.273438 47.921875 -35.171875 C 46.910156 -37.078125 45.007812 -38.03125 42.21875 -38.03125 C 37.226562 -38.03125 33.234375 -36.191406 30.234375 -32.515625 C 27.234375 -28.835938 25.648438 -24.253906 25.484375 -18.765625 C 25.898438 -16.222656 26.382812 -13.617188 26.9375 -10.953125 C 27.488281 -8.296875 28.1875 -5.617188 29.03125 -2.921875 L 9.375 -2.921875 C 5.832031 -14.410156 3.65625 -24.972656 2.84375 -34.609375 C 2.039062 -44.242188 2.828125 -53.835938 5.203125 -63.390625 L 30.9375 -63.390625 C 29.832031 -60.765625 28.859375 -58.035156 28.015625 -55.203125 C 27.171875 -52.378906 26.453125 -49.488281 25.859375 -46.53125 C 28.734375 -50.332031 32.453125 -53.394531 37.015625 -55.71875 C 41.578125 -58.039062 47.242188 -59.117188 54.015625 -58.953125 Z M 54.015625 -58.953125 "/></g></g></g></g></g><g transform="matrix(1, 0, 0, 1, 175, 183)"><g clip-path="url(#e8e2880673)"><g fill="#ffffff" fill-opacity="1"><g transform="translate(1.349404, 92.302566)"><g><path d="M 31.21875 -56.53125 C 36.382812 -56.53125 40.597656 -55.648438 43.859375 -53.890625 C 47.128906 -52.140625 49.546875 -49.816406 51.109375 -46.921875 C 52.679688 -44.023438 53.46875 -40.789062 53.46875 -37.21875 C 53.46875 -33.15625 52.515625 -29.753906 50.609375 -27.015625 C 48.703125 -24.273438 46.101562 -22.085938 42.8125 -20.453125 C 39.519531 -18.828125 35.796875 -17.644531 31.640625 -16.90625 C 27.484375 -16.164062 23.1875 -15.796875 18.75 -15.796875 C 15.851562 -15.796875 12.894531 -15.914062 9.875 -16.15625 C 6.863281 -16.40625 3.878906 -16.742188 0.921875 -17.171875 L 0.921875 -32.96875 C 1.785156 -32.726562 2.628906 -32.5 3.453125 -32.28125 C 4.285156 -32.0625 5.164062 -31.859375 6.09375 -31.671875 C 6.40625 -36.484375 7.679688 -40.75 9.921875 -44.46875 C 12.171875 -48.195312 15.128906 -51.140625 18.796875 -53.296875 C 22.460938 -55.453125 26.601562 -56.53125 31.21875 -56.53125 Z M 24.75 -29.09375 C 27.21875 -29.09375 29.46875 -29.335938 31.5 -29.828125 C 33.53125 -30.328125 35.175781 -31.144531 36.4375 -32.28125 C 37.695312 -33.414062 38.328125 -34.9375 38.328125 -36.84375 C 38.328125 -38.757812 37.523438 -40.316406 35.921875 -41.515625 C 34.328125 -42.710938 32.484375 -43.3125 30.390625 -43.3125 C 28.296875 -43.3125 26.460938 -42.679688 24.890625 -41.421875 C 23.316406 -40.160156 22.113281 -38.570312 21.28125 -36.65625 C 20.457031 -34.75 20.046875 -32.8125 20.046875 -30.84375 C 20.046875 -30.601562 20.046875 -30.359375 20.046875 -30.109375 C 20.046875 -29.859375 20.078125 -29.582031 20.140625 -29.28125 C 20.929688 -29.21875 21.710938 -29.171875 22.484375 -29.140625 C 23.253906 -29.109375 24.007812 -29.09375 24.75 -29.09375 Z M 22.171875 -13.765625 C 24.441406 -10.441406 27.285156 -7.703125 30.703125 -5.546875 C 34.117188 -3.390625 37.769531 -2.0625 41.65625 -1.5625 L 41.65625 16.4375 C 35.925781 15.820312 30.675781 14.050781 25.90625 11.125 C 21.132812 8.207031 17.113281 4.515625 13.84375 0.046875 C 10.582031 -4.421875 8.242188 -9.269531 6.828125 -14.5 C 9.296875 -14.1875 11.34375 -13.953125 12.96875 -13.796875 C 14.601562 -13.648438 16.128906 -13.578125 17.546875 -13.578125 C 18.285156 -13.578125 19.039062 -13.59375 19.8125 -13.625 C 20.582031 -13.65625 21.367188 -13.703125 22.171875 -13.765625 Z M 22.171875 -13.765625 "/></g></g></g><g fill="#ffffff" fill-opacity="1"><g transform="translate(56.765828, 92.302566)"><g><path d="M 63.546875 -82.203125 C 67.421875 -77.148438 70.082031 -71.945312 71.53125 -66.59375 C 72.976562 -61.238281 73.546875 -55.941406 73.234375 -50.703125 C 72.929688 -45.472656 72.007812 -40.484375 70.46875 -35.734375 C 68.925781 -30.992188 67.046875 -26.726562 64.828125 -22.9375 C 62.617188 -19.15625 60.40625 -16.035156 58.1875 -13.578125 C 58.863281 -11.484375 59.367188 -9.28125 59.703125 -6.96875 C 60.046875 -4.664062 60.21875 -2.34375 60.21875 0 L 41.9375 0 C 42.050781 -3.132812 41.707031 -6.285156 40.90625 -9.453125 C 40.113281 -12.628906 38.976562 -15.539062 37.5 -18.1875 C 36.019531 -20.84375 34.234375 -22.984375 32.140625 -24.609375 C 30.046875 -26.242188 27.738281 -27.0625 25.21875 -27.0625 C 22.382812 -27.0625 20.117188 -26.398438 18.421875 -25.078125 C 16.734375 -23.753906 15.890625 -22.015625 15.890625 -19.859375 C 15.890625 -17.765625 16.734375 -16.039062 18.421875 -14.6875 C 20.117188 -13.332031 22.382812 -12.65625 25.21875 -12.65625 C 28.90625 -12.65625 32.535156 -13.671875 36.109375 -15.703125 C 37.035156 -13.859375 37.820312 -11.828125 38.46875 -9.609375 C 39.113281 -7.390625 39.53125 -5.078125 39.71875 -2.671875 C 34.175781 -0.703125 29.21875 0.28125 24.84375 0.28125 C 20.226562 0.28125 16.117188 -0.65625 12.515625 -2.53125 C 8.910156 -4.414062 6.078125 -6.878906 4.015625 -9.921875 C 1.953125 -12.972656 0.921875 -16.285156 0.921875 -19.859375 C 0.921875 -23.429688 1.953125 -26.738281 4.015625 -29.78125 C 6.078125 -32.832031 8.910156 -35.28125 12.515625 -37.125 C 16.117188 -38.976562 20.226562 -39.90625 24.84375 -39.90625 C 30.019531 -39.90625 34.742188 -38.859375 39.015625 -36.765625 C 43.296875 -34.671875 46.976562 -31.835938 50.0625 -28.265625 C 52.28125 -31.710938 53.753906 -35.453125 54.484375 -39.484375 C 55.222656 -43.515625 55.363281 -47.59375 54.90625 -51.71875 C 54.445312 -55.84375 53.445312 -59.84375 51.90625 -63.71875 C 50.363281 -67.601562 48.375 -71.144531 45.9375 -74.34375 C 43.507812 -77.550781 40.726562 -80.203125 37.59375 -82.296875 Z M 63.546875 -82.203125 "/></g></g></g><g fill="#ffffff" fill-opacity="1"><g transform="translate(124.18915, 92.302566)"><g><path d="M 55.96875 -40.921875 C 53.382812 -35.429688 52.015625 -29.46875 51.859375 -23.03125 C 51.703125 -16.601562 52.921875 -9.601562 55.515625 -2.03125 L 41.1875 -2.03125 C 40.570312 -3.8125 40.003906 -5.550781 39.484375 -7.25 C 38.960938 -8.945312 38.484375 -10.59375 38.046875 -12.1875 C 36.078125 -9.113281 33.289062 -6.5625 29.6875 -4.53125 C 26.09375 -2.5 21.429688 -1.539062 15.703125 -1.65625 C 11.328125 -1.65625 8.015625 -2.851562 5.765625 -5.25 C 3.523438 -7.65625 2.25 -10.890625 1.9375 -14.953125 C 1.632812 -19.023438 2.175781 -23.535156 3.5625 -28.484375 C 4.945312 -33.441406 7.050781 -38.445312 9.875 -43.5 L 28.453125 -43.5 C 26.472656 -40.238281 24.695312 -36.925781 23.125 -33.5625 C 21.5625 -30.207031 20.457031 -27.144531 19.8125 -24.375 C 19.164062 -21.613281 19.148438 -19.382812 19.765625 -17.6875 C 20.378906 -15.988281 21.890625 -15.140625 24.296875 -15.140625 C 27.242188 -15.140625 29.703125 -15.941406 31.671875 -17.546875 C 33.648438 -19.148438 35.035156 -21.179688 35.828125 -23.640625 C 35.585938 -26.535156 35.554688 -29.414062 35.734375 -32.28125 C 35.921875 -35.144531 36.414062 -38.023438 37.21875 -40.921875 Z M 55.96875 -40.921875 "/></g></g></g></g></g><g clip-path="url(#e47573e753)"><path fill="#ffffff" d="M 80.710938 136.054688 Z M 70.492188 185.695312 C 71.128906 185.949219 71.816406 186.152344 72.558594 186.292969 L 71.65625 188.535156 C 71.171875 189.738281 71.757812 191.105469 72.960938 191.589844 C 74.164062 192.070312 75.535156 191.484375 76.015625 190.28125 L 77.367188 186.917969 L 77.839844 186.980469 C 80.480469 187.3125 83.199219 186.800781 85.445312 185.703125 C 87.8125 184.554688 89.730469 182.722656 90.625 180.503906 C 90.863281 179.910156 91.019531 179.296875 91.097656 178.6875 L 91.097656 178.679688 C 91.3125 176.980469 90.886719 175.367188 89.941406 173.992188 C 89.066406 172.71875 87.742188 171.671875 86.078125 171.003906 C 85.234375 170.667969 84.296875 170.421875 83.273438 170.292969 L 78.726562 169.71875 C 78.128906 169.644531 77.578125 169.5 77.082031 169.300781 C 76.296875 168.984375 75.695312 168.53125 75.335938 168.007812 C 75.042969 167.578125 74.90625 167.082031 74.972656 166.570312 L 74.980469 166.5625 C 75.003906 166.347656 75.0625 166.128906 75.148438 165.910156 C 75.585938 164.820312 76.660156 163.863281 78.027344 163.195312 C 79.515625 162.472656 81.28125 162.128906 82.980469 162.339844 L 85.125 162.613281 C 85.210938 162.628906 85.292969 162.636719 85.378906 162.644531 L 87.527344 162.917969 C 88.125 162.992188 88.675781 163.136719 89.171875 163.332031 C 89.960938 163.652344 90.558594 164.105469 90.917969 164.628906 C 91.210938 165.050781 91.347656 165.550781 91.28125 166.066406 C 91.257812 166.269531 91.195312 166.492188 91.101562 166.726562 C 90.617188 167.929688 91.203125 169.296875 92.40625 169.78125 C 93.613281 170.261719 94.980469 169.675781 95.460938 168.472656 C 95.699219 167.875 95.859375 167.265625 95.9375 166.65625 L 95.9375 166.648438 C 96.152344 164.949219 95.726562 163.332031 94.78125 161.964844 C 93.902344 160.691406 92.582031 159.644531 90.914062 158.976562 C 90.28125 158.722656 89.59375 158.519531 88.851562 158.378906 L 89.753906 156.132812 C 90.234375 154.929688 89.648438 153.5625 88.445312 153.078125 C 87.242188 152.597656 85.875 153.183594 85.394531 154.386719 L 84.035156 157.75 L 83.550781 157.6875 C 80.917969 157.355469 78.203125 157.867188 75.953125 158.964844 C 73.585938 160.117188 71.671875 161.945312 70.777344 164.164062 C 70.53125 164.777344 70.367188 165.390625 70.304688 165.992188 C 70.089844 167.695312 70.515625 169.304688 71.457031 170.679688 C 72.335938 171.953125 73.660156 173 75.324219 173.667969 C 76.164062 174.003906 77.105469 174.25 78.125 174.375 L 82.671875 174.949219 C 83.269531 175.023438 83.820312 175.167969 84.316406 175.367188 C 85.105469 175.683594 85.703125 176.136719 86.0625 176.660156 C 86.355469 177.085938 86.492188 177.582031 86.425781 178.097656 C 86.402344 178.300781 86.339844 178.523438 86.246094 178.757812 C 85.808594 179.847656 84.738281 180.804688 83.367188 181.472656 C 81.878906 182.199219 80.109375 182.542969 78.414062 182.328125 L 76.273438 182.058594 C 76.183594 182.042969 76.097656 182.03125 76.007812 182.027344 L 73.867188 181.753906 C 73.269531 181.679688 72.71875 181.535156 72.222656 181.335938 C 71.4375 181.019531 70.839844 180.566406 70.476562 180.042969 C 70.183594 179.617188 70.046875 179.121094 70.113281 178.605469 C 70.136719 178.402344 70.199219 178.179688 70.292969 177.945312 C 70.777344 176.742188 70.191406 175.375 68.988281 174.890625 C 67.785156 174.410156 66.414062 174.996094 65.933594 176.199219 C 65.695312 176.796875 65.539062 177.40625 65.460938 178.015625 L 65.460938 178.023438 C 65.246094 179.722656 65.667969 181.335938 66.613281 182.707031 C 67.503906 183.980469 68.832031 185.027344 70.492188 185.695312 Z M 80.710938 145.507812 Z M 18.949219 172.332031 C 18.949219 164.527344 26.160156 157.652344 37.8125 152.855469 C 48.835938 148.3125 64.007812 145.503906 80.710938 145.503906 C 97.410156 145.503906 112.582031 148.3125 123.609375 152.855469 C 135.261719 157.652344 142.472656 164.527344 142.472656 172.332031 C 142.472656 180.132812 135.261719 187.007812 123.609375 191.808594 C 112.582031 196.347656 97.410156 199.160156 80.710938 199.160156 C 64.007812 199.160156 48.835938 196.347656 37.8125 191.808594 C 26.160156 187.007812 18.949219 180.132812 18.949219 172.332031 Z M 23.65625 172.332031 C 23.65625 178.042969 29.75 183.410156 39.59375 187.46875 C 50.070312 191.78125 64.601562 194.449219 80.710938 194.449219 C 96.816406 194.449219 111.351562 191.777344 121.824219 187.46875 C 131.671875 183.410156 137.765625 178.042969 137.765625 172.332031 C 137.765625 166.617188 131.671875 161.253906 121.824219 157.195312 C 111.351562 152.882812 96.816406 150.214844 80.710938 150.214844 C 64.601562 150.214844 50.070312 152.886719 39.59375 157.195312 C 29.75 161.253906 23.65625 166.617188 23.65625 172.332031 Z M 172.683594 205.75 L 172.683594 231.226562 C 172.683594 237.15625 169.917969 242.714844 165 247.613281 C 164.894531 247.742188 164.769531 247.867188 164.632812 247.976562 C 163.628906 248.949219 162.539062 249.890625 161.363281 250.808594 L 161.371094 264.652344 C 161.371094 274.996094 152.960938 284.21875 139.367188 290.75 C 126.296875 297.039062 108.296875 300.925781 88.476562 300.925781 C 68.652344 300.925781 50.652344 297.035156 37.585938 290.75 C 23.992188 284.214844 15.582031 274.996094 15.582031 264.652344 L 15.582031 239.179688 C 15.582031 239.179688 15.582031 239.179688 15.582031 239.175781 C 15.582031 235.4375 16.691406 231.828125 18.75 228.433594 C 20.285156 225.910156 22.347656 223.515625 24.867188 221.277344 C 21.386719 219.226562 18.355469 216.96875 15.859375 214.550781 C 15.726562 214.445312 15.605469 214.328125 15.5 214.195312 C 10.578125 209.300781 7.8125 203.738281 7.8125 197.8125 L 7.8125 172.332031 C 7.8125 161.984375 16.226562 152.769531 29.816406 146.230469 C 42.890625 139.945312 60.886719 136.054688 80.710938 136.054688 C 100.53125 136.054688 118.53125 139.945312 131.601562 146.234375 C 145.195312 152.769531 153.605469 161.992188 153.605469 172.335938 L 153.605469 181.148438 C 159.324219 184.234375 163.960938 187.832031 167.222656 191.800781 C 170.746094 196.082031 172.683594 200.789062 172.683594 205.75 Z M 153.605469 186.535156 L 153.605469 192.347656 C 155.941406 194.140625 157.816406 196.082031 159.148438 198.136719 C 160.714844 200.546875 161.546875 203.101562 161.546875 205.753906 C 161.546875 213.410156 154.617188 220.164062 143.371094 224.945312 C 132.75 229.457031 118.097656 232.332031 101.859375 232.554688 C 101.757812 232.570312 101.648438 232.582031 101.542969 232.601562 C 101.34375 232.628906 101.144531 232.65625 100.949219 232.6875 C 100.125 232.800781 99.292969 232.914062 98.453125 233.015625 C 98.394531 233.023438 98.332031 233.03125 98.269531 233.042969 C 98.265625 233.042969 98.261719 233.042969 98.257812 233.042969 C 98.246094 233.042969 98.230469 233.046875 98.214844 233.046875 C 98.109375 233.058594 97.996094 233.070312 97.890625 233.082031 C 97.148438 233.167969 96.40625 233.25 95.65625 233.328125 C 95.53125 233.34375 95.410156 233.355469 95.285156 233.367188 C 94.433594 233.453125 93.574219 233.527344 92.710938 233.597656 C 92.628906 233.605469 92.546875 233.613281 92.464844 233.617188 C 92.335938 233.625 92.207031 233.640625 92.078125 233.648438 C 91.792969 233.667969 91.511719 233.6875 91.230469 233.710938 C 91.097656 233.71875 90.964844 233.726562 90.832031 233.734375 C 87.523438 233.960938 84.144531 234.082031 80.710938 234.082031 C 77.300781 234.082031 73.945312 233.960938 70.660156 233.738281 C 70.492188 233.726562 70.320312 233.71875 70.15625 233.703125 C 69.894531 233.6875 69.636719 233.667969 69.375 233.648438 C 69.234375 233.636719 69.089844 233.625 68.949219 233.613281 L 68.316406 233.5625 C 68.160156 233.546875 68 233.535156 67.84375 233.519531 L 67.53125 233.496094 C 67.609375 233.515625 67.683594 233.535156 67.765625 233.550781 C 68.46875 233.730469 69.175781 233.902344 69.898438 234.066406 C 69.898438 234.066406 69.902344 234.066406 69.902344 234.066406 C 70.394531 234.179688 70.890625 234.289062 71.386719 234.398438 C 71.453125 234.410156 71.515625 234.421875 71.578125 234.4375 C 75.136719 235.203125 78.863281 235.824219 82.71875 236.292969 C 82.742188 236.296875 82.761719 236.296875 82.789062 236.300781 C 88.222656 236.957031 93.917969 237.3125 99.789062 237.3125 C 105.640625 237.3125 111.316406 236.964844 116.734375 236.308594 C 116.789062 236.300781 116.835938 236.296875 116.890625 236.292969 C 119.171875 236.015625 121.410156 235.6875 123.589844 235.304688 C 125.078125 235.042969 126.539062 234.757812 127.976562 234.449219 C 128.066406 234.425781 128.15625 234.40625 128.25 234.394531 C 128.253906 234.394531 128.261719 234.390625 128.265625 234.390625 C 129.796875 234.058594 131.296875 233.699219 132.765625 233.316406 C 134.980469 232.742188 137.121094 232.105469 139.183594 231.417969 C 139.300781 231.363281 139.429688 231.324219 139.5625 231.289062 C 142.8125 230.1875 145.855469 228.960938 148.652344 227.617188 C 149.246094 227.332031 149.824219 227.039062 150.394531 226.746094 C 150.507812 226.671875 150.632812 226.613281 150.761719 226.558594 C 154.984375 224.335938 158.558594 221.851562 161.335938 219.171875 C 161.449219 219.035156 161.574219 218.910156 161.710938 218.800781 C 165.722656 214.796875 167.96875 210.371094 167.96875 205.746094 C 167.96875 201.910156 166.414062 198.199219 163.59375 194.769531 C 161.152344 191.800781 157.761719 189.023438 153.605469 186.535156 Z M 146.6875 187.929688 C 146.609375 188.015625 146.527344 188.097656 146.449219 188.183594 L 146.449219 206.085938 C 146.589844 205.859375 146.71875 205.628906 146.84375 205.398438 C 146.925781 205.246094 147.003906 205.089844 147.082031 204.9375 C 147.132812 204.839844 147.1875 204.746094 147.230469 204.648438 C 147.332031 204.445312 147.425781 204.246094 147.511719 204.042969 C 147.53125 204.003906 147.550781 203.960938 147.570312 203.921875 C 147.664062 203.707031 147.75 203.488281 147.835938 203.273438 C 147.851562 203.238281 147.867188 203.203125 147.878906 203.167969 C 147.960938 202.953125 148.039062 202.734375 148.109375 202.515625 C 148.121094 202.472656 148.136719 202.433594 148.152344 202.386719 C 148.222656 202.175781 148.28125 201.96875 148.339844 201.757812 C 148.355469 201.699219 148.371094 201.644531 148.386719 201.589844 C 148.4375 201.390625 148.488281 201.191406 148.535156 200.996094 C 148.550781 200.921875 148.566406 200.84375 148.578125 200.769531 C 148.617188 200.585938 148.652344 200.40625 148.6875 200.21875 C 148.703125 200.117188 148.714844 200.019531 148.730469 199.914062 C 148.757812 199.753906 148.78125 199.59375 148.796875 199.433594 C 148.8125 199.292969 148.824219 199.15625 148.835938 199.015625 C 148.847656 198.886719 148.859375 198.761719 148.867188 198.628906 C 148.878906 198.390625 148.886719 198.152344 148.886719 197.910156 C 148.886719 197.878906 148.894531 197.851562 148.894531 197.816406 L 148.894531 185.339844 C 148.84375 185.40625 148.789062 185.472656 148.734375 185.539062 C 148.574219 185.75 148.410156 185.957031 148.238281 186.167969 C 148.160156 186.265625 148.078125 186.363281 147.992188 186.460938 C 147.828125 186.660156 147.660156 186.859375 147.484375 187.054688 C 147.394531 187.152344 147.304688 187.257812 147.214844 187.355469 C 147.046875 187.546875 146.867188 187.738281 146.6875 187.929688 Z M 95.140625 228.65625 C 95.308594 228.640625 95.472656 228.617188 95.640625 228.601562 L 95.640625 207.855469 C 93.40625 208.085938 91.128906 208.265625 88.820312 208.390625 L 88.820312 229.152344 C 89.589844 229.109375 90.355469 229.058594 91.117188 229.007812 C 91.238281 228.996094 91.359375 228.988281 91.480469 228.976562 C 91.777344 228.957031 92.074219 228.933594 92.371094 228.90625 C 93.203125 228.839844 94.027344 228.765625 94.847656 228.683594 C 94.945312 228.675781 95.042969 228.664062 95.140625 228.65625 Z M 70.210938 229.003906 C 71 229.058594 71.792969 229.109375 72.589844 229.15625 L 72.589844 208.394531 C 70.285156 208.269531 68.011719 208.089844 65.777344 207.863281 L 65.777344 228.605469 C 65.914062 228.617188 66.050781 228.640625 66.183594 228.652344 C 66.324219 228.664062 66.464844 228.679688 66.605469 228.695312 C 67.394531 228.777344 68.1875 228.84375 68.988281 228.910156 C 69.351562 228.941406 69.710938 228.96875 70.070312 228.996094 C 70.117188 228.992188 70.167969 228.996094 70.210938 229.003906 Z M 130.953125 238.605469 L 130.953125 259.257812 C 133.308594 258.6875 135.582031 258.050781 137.769531 257.359375 L 137.769531 236.792969 C 135.570312 237.457031 133.300781 238.0625 130.953125 238.605469 Z M 142.476562 235.253906 L 142.476562 255.738281 C 144.648438 254.917969 146.707031 254.042969 148.652344 253.105469 C 148.867188 253.003906 149.078125 252.894531 149.289062 252.792969 L 149.289062 232.503906 C 147.140625 233.488281 144.867188 234.40625 142.476562 235.253906 Z M 126.242188 239.597656 C 124.023438 240.023438 121.746094 240.398438 119.425781 240.714844 L 119.425781 261.445312 C 121.75 261.113281 124.027344 260.730469 126.242188 260.289062 Z M 114.71875 262.027344 L 114.71875 241.28125 C 112.484375 241.507812 110.210938 241.6875 107.90625 241.8125 L 107.90625 262.574219 C 110.214844 262.441406 112.484375 262.261719 114.71875 262.027344 Z M 99.785156 242.03125 C 98.644531 242.03125 97.507812 242.015625 96.378906 241.988281 L 96.378906 262.742188 C 97.289062 262.769531 98.199219 262.785156 99.109375 262.796875 C 99.335938 262.796875 99.558594 262.800781 99.785156 262.800781 C 100.925781 262.800781 102.066406 262.789062 103.195312 262.757812 L 103.195312 241.992188 C 102.066406 242.019531 100.933594 242.03125 99.785156 242.03125 Z M 135.492188 196.40625 C 135.304688 196.515625 135.113281 196.617188 134.917969 196.722656 L 134.917969 216.777344 C 135.851562 216.207031 136.75 215.625 137.59375 215.035156 C 139.121094 213.960938 140.5 212.847656 141.738281 211.703125 L 141.738281 192.335938 C 141.722656 192.347656 141.703125 192.359375 141.691406 192.367188 C 141.605469 192.433594 141.515625 192.496094 141.429688 192.5625 C 141.167969 192.753906 140.90625 192.953125 140.632812 193.144531 C 140.507812 193.234375 140.382812 193.320312 140.253906 193.410156 C 140.019531 193.574219 139.78125 193.746094 139.535156 193.90625 C 139.390625 194.003906 139.242188 194.097656 139.097656 194.199219 C 138.867188 194.351562 138.636719 194.503906 138.398438 194.65625 C 138.242188 194.753906 138.085938 194.855469 137.925781 194.957031 C 137.695312 195.101562 137.457031 195.246094 137.21875 195.390625 C 137.054688 195.488281 136.890625 195.585938 136.722656 195.691406 C 136.480469 195.835938 136.238281 195.972656 135.996094 196.113281 C 135.832031 196.21875 135.664062 196.3125 135.492188 196.40625 Z M 130.210938 199.085938 C 128.0625 200.066406 125.785156 200.988281 123.394531 201.835938 L 123.394531 222.3125 C 124.328125 221.957031 125.25 221.589844 126.164062 221.207031 C 127.566406 220.617188 128.917969 220.003906 130.207031 219.367188 L 130.207031 199.085938 Z M 118.6875 203.371094 C 116.492188 204.03125 114.214844 204.636719 111.871094 205.1875 L 111.871094 225.832031 C 112.855469 225.59375 113.835938 225.34375 114.8125 225.074219 L 114.949219 225.046875 C 115.003906 225.03125 115.058594 225.015625 115.105469 225.003906 C 115.90625 224.78125 116.703125 224.554688 117.484375 224.316406 C 117.578125 224.285156 117.679688 224.257812 117.773438 224.230469 C 118.082031 224.132812 118.378906 224.035156 118.683594 223.9375 L 118.683594 203.371094 Z M 107.164062 206.179688 C 104.941406 206.605469 102.671875 206.980469 100.347656 207.296875 L 100.347656 228.023438 C 100.566406 227.992188 100.789062 227.964844 101.007812 227.929688 C 101.210938 227.902344 101.414062 227.867188 101.617188 227.839844 C 101.925781 227.792969 102.234375 227.746094 102.539062 227.695312 C 102.75 227.664062 102.964844 227.628906 103.167969 227.59375 C 103.335938 227.5625 103.5 227.535156 103.667969 227.511719 C 104.84375 227.3125 106.003906 227.09375 107.160156 226.863281 L 107.160156 206.179688 Z M 84.113281 229.335938 L 84.113281 208.570312 C 82.984375 208.59375 81.851562 208.613281 80.707031 208.613281 C 79.5625 208.613281 78.425781 208.597656 77.296875 208.570312 L 77.296875 229.335938 C 78.425781 229.359375 79.5625 229.378906 80.707031 229.378906 C 81.851562 229.378906 82.984375 229.363281 84.113281 229.335938 Z M 73.328125 260.183594 C 75.566406 260.628906 77.839844 261.019531 80.144531 261.355469 L 80.144531 240.71875 C 77.824219 240.402344 75.550781 240.027344 73.328125 239.601562 Z M 84.851562 241.277344 L 84.851562 261.949219 C 87.105469 262.195312 89.382812 262.386719 91.671875 262.527344 L 91.671875 241.8125 C 89.363281 241.683594 87.089844 241.503906 84.851562 241.277344 Z M 34 239.40625 L 34.046875 239.484375 L 34.046875 225.796875 C 33.917969 225.742188 33.789062 225.691406 33.660156 225.640625 C 33.347656 225.511719 33.042969 225.371094 32.734375 225.234375 C 32.535156 225.148438 32.335938 225.066406 32.140625 224.980469 C 31.960938 224.902344 31.777344 224.828125 31.597656 224.746094 L 31.597656 231.226562 C 31.597656 231.746094 31.628906 232.261719 31.6875 232.777344 C 31.703125 232.902344 31.71875 233.023438 31.734375 233.148438 C 31.746094 233.246094 31.761719 233.347656 31.777344 233.441406 C 31.796875 233.566406 31.816406 233.683594 31.839844 233.808594 C 31.871094 233.984375 31.898438 234.164062 31.941406 234.339844 C 32.035156 234.726562 32.136719 235.089844 32.238281 235.4375 C 32.3125 235.671875 32.386719 235.90625 32.464844 236.144531 C 32.617188 236.585938 32.785156 237.007812 32.976562 237.429688 C 33.054688 237.597656 33.132812 237.765625 33.210938 237.925781 C 33.214844 237.929688 33.214844 237.9375 33.21875 237.941406 C 33.253906 238.011719 33.289062 238.082031 33.320312 238.152344 C 33.496094 238.5 33.683594 238.851562 33.898438 239.226562 C 33.933594 239.289062 33.964844 239.347656 34 239.40625 Z M 49.542969 205.1875 C 47.195312 204.640625 44.925781 204.03125 42.722656 203.371094 L 42.722656 223.9375 L 43.261719 224.109375 L 45.492188 224.769531 C 45.511719 224.773438 45.523438 224.78125 45.535156 224.785156 C 45.660156 224.820312 45.777344 224.855469 45.902344 224.886719 C 46.316406 225.003906 46.730469 225.117188 47.132812 225.222656 C 47.183594 225.234375 47.234375 225.246094 47.277344 225.257812 C 47.519531 225.320312 47.753906 225.382812 47.988281 225.445312 C 48.324219 225.53125 48.664062 225.617188 49.003906 225.699219 C 49.183594 225.746094 49.363281 225.789062 49.546875 225.828125 L 49.546875 205.1875 Z M 40.878906 246.949219 C 41.136719 247.15625 41.398438 247.359375 41.660156 247.5625 C 41.761719 247.621094 41.851562 247.691406 41.933594 247.765625 L 43.09375 248.597656 C 43.527344 248.898438 43.996094 249.210938 44.503906 249.535156 L 45.515625 250.167969 C 45.53125 250.179688 45.550781 250.1875 45.566406 250.199219 L 45.566406 230.144531 C 45.40625 230.054688 45.242188 229.964844 45.082031 229.875 C 44.859375 229.753906 44.640625 229.625 44.421875 229.496094 C 44.257812 229.402344 44.089844 229.308594 43.925781 229.210938 L 41.878906 228.59375 C 41.179688 228.375 40.464844 228.144531 39.742188 227.90625 C 39.644531 227.875 39.546875 227.847656 39.457031 227.808594 C 39.355469 227.773438 39.261719 227.742188 39.164062 227.707031 C 39.078125 227.679688 38.988281 227.644531 38.898438 227.617188 C 38.847656 227.601562 38.800781 227.585938 38.753906 227.566406 L 38.753906 245.058594 C 39.363281 245.667969 40.042969 246.277344 40.878906 246.949219 Z M 57.097656 255.644531 L 57.097656 235.253906 C 57 235.222656 56.902344 235.1875 56.808594 235.152344 C 56.546875 235.058594 56.292969 234.960938 56.03125 234.867188 C 55.761719 234.765625 55.484375 234.664062 55.214844 234.5625 C 54.957031 234.464844 54.710938 234.363281 54.453125 234.265625 C 54.1875 234.164062 53.917969 234.054688 53.65625 233.953125 C 53.40625 233.851562 53.160156 233.75 52.917969 233.648438 C 52.652344 233.539062 52.394531 233.433594 52.132812 233.320312 C 51.890625 233.21875 51.652344 233.113281 51.414062 233.007812 C 51.15625 232.898438 50.898438 232.785156 50.644531 232.671875 C 50.523438 232.617188 50.402344 232.558594 50.277344 232.5 L 50.277344 252.730469 C 52.441406 253.78125 54.71875 254.753906 57.097656 255.644531 Z M 61.066406 228.023438 L 61.066406 207.296875 C 58.746094 206.980469 56.46875 206.605469 54.25 206.179688 L 54.25 226.863281 C 54.523438 226.917969 54.800781 226.976562 55.078125 227.03125 C 55.109375 227.039062 55.144531 227.042969 55.175781 227.050781 C 56.007812 227.214844 56.847656 227.363281 57.695312 227.5 C 57.894531 227.535156 58.09375 227.570312 58.296875 227.605469 C 58.464844 227.632812 58.632812 227.660156 58.804688 227.6875 C 59.152344 227.742188 59.5 227.796875 59.851562 227.851562 C 60.015625 227.875 60.179688 227.902344 60.34375 227.925781 C 60.585938 227.960938 60.828125 227.992188 61.066406 228.023438 Z M 31.199219 199.082031 L 31.199219 219.367188 C 31.265625 219.398438 31.332031 219.429688 31.398438 219.464844 C 31.503906 219.519531 31.609375 219.566406 31.714844 219.621094 C 32.898438 220.191406 34.148438 220.75 35.460938 221.296875 C 36.296875 221.648438 37.15625 221.984375 38.015625 222.308594 L 38.015625 201.832031 C 35.628906 200.980469 33.351562 200.0625 31.199219 199.082031 Z M 67.042969 238.230469 C 66.796875 238.167969 66.550781 238.105469 66.308594 238.042969 C 65.957031 237.949219 65.609375 237.863281 65.261719 237.773438 C 64.984375 237.699219 64.714844 237.625 64.441406 237.550781 C 64.132812 237.464844 63.820312 237.382812 63.511719 237.296875 C 63.230469 237.21875 62.953125 237.132812 62.675781 237.050781 C 62.386719 236.964844 62.09375 236.882812 61.804688 236.796875 L 61.804688 257.257812 C 64.011719 257.949219 66.289062 258.578125 68.621094 259.140625 L 68.621094 238.605469 C 68.09375 238.480469 67.566406 238.359375 67.042969 238.230469 Z M 131.246094 224.09375 C 135 223.101562 138.449219 221.9375 141.53125 220.625 C 151.007812 216.601562 156.839844 211.339844 156.839844 205.757812 C 156.839844 204.03125 156.273438 202.328125 155.210938 200.699219 C 154.757812 199.996094 154.214844 199.308594 153.585938 198.632812 C 153.585938 198.652344 153.582031 198.679688 153.582031 198.699219 C 153.578125 198.757812 153.578125 198.8125 153.574219 198.871094 C 153.570312 198.964844 153.558594 199.058594 153.554688 199.152344 C 153.550781 199.238281 153.542969 199.324219 153.535156 199.410156 C 153.527344 199.5 153.519531 199.585938 153.511719 199.671875 C 153.503906 199.761719 153.492188 199.847656 153.484375 199.9375 C 153.472656 200.035156 153.460938 200.125 153.445312 200.21875 C 153.414062 200.492188 153.375 200.757812 153.328125 201.027344 C 153.316406 201.101562 153.304688 201.175781 153.285156 201.25 C 153.230469 201.554688 153.167969 201.855469 153.097656 202.160156 C 153.089844 202.199219 153.082031 202.230469 153.070312 202.269531 C 152.648438 204.050781 151.972656 205.785156 151.0625 207.46875 C 151.035156 207.519531 151.007812 207.570312 150.976562 207.617188 C 150.835938 207.882812 150.679688 208.144531 150.523438 208.410156 C 150.472656 208.5 150.417969 208.589844 150.363281 208.675781 C 150.230469 208.886719 150.101562 209.097656 149.960938 209.308594 C 149.878906 209.433594 149.800781 209.558594 149.714844 209.683594 C 149.613281 209.828125 149.507812 209.976562 149.402344 210.121094 C 148.378906 211.570312 147.179688 212.976562 145.8125 214.324219 C 145.761719 214.382812 145.707031 214.4375 145.648438 214.484375 C 144.066406 216.027344 142.277344 217.503906 140.296875 218.886719 C 138.277344 220.304688 136.070312 221.640625 133.695312 222.878906 C 133.691406 222.882812 133.6875 222.882812 133.679688 222.886719 C 133.671875 222.890625 133.664062 222.894531 133.648438 222.902344 C 133.21875 223.128906 132.78125 223.351562 132.335938 223.570312 C 132.253906 223.609375 132.171875 223.652344 132.089844 223.6875 C 131.8125 223.816406 131.53125 223.957031 131.246094 224.09375 Z M 19.675781 211.726562 C 21.605469 213.511719 23.890625 215.207031 26.492188 216.789062 L 26.492188 196.722656 C 26.296875 196.617188 26.109375 196.515625 25.917969 196.40625 C 25.753906 196.3125 25.59375 196.222656 25.429688 196.125 C 25.175781 195.984375 24.929688 195.839844 24.683594 195.695312 C 24.523438 195.597656 24.367188 195.503906 24.203125 195.40625 C 23.957031 195.257812 23.714844 195.105469 23.476562 194.957031 C 23.328125 194.863281 23.175781 194.765625 23.027344 194.671875 C 22.777344 194.515625 22.535156 194.355469 22.296875 194.195312 C 22.160156 194.101562 22.023438 194.011719 21.886719 193.921875 C 21.632812 193.75 21.382812 193.574219 21.132812 193.398438 C 21.019531 193.320312 20.902344 193.238281 20.792969 193.160156 C 20.503906 192.953125 20.222656 192.746094 19.941406 192.535156 C 19.871094 192.484375 19.804688 192.433594 19.734375 192.378906 C 19.714844 192.367188 19.695312 192.351562 19.675781 192.339844 Z M 27.445312 278.570312 C 29.375 280.355469 31.660156 282.050781 34.257812 283.632812 L 34.257812 263.5625 C 34.074219 263.460938 33.886719 263.355469 33.703125 263.253906 C 33.519531 263.152344 33.34375 263.046875 33.164062 262.945312 C 32.929688 262.808594 32.699219 262.675781 32.46875 262.535156 C 32.296875 262.433594 32.121094 262.332031 31.953125 262.226562 C 31.722656 262.085938 31.492188 261.949219 31.265625 261.804688 C 31.101562 261.699219 30.941406 261.597656 30.777344 261.492188 C 30.546875 261.34375 30.316406 261.191406 30.089844 261.042969 C 29.941406 260.945312 29.789062 260.847656 29.644531 260.746094 C 29.40625 260.585938 29.171875 260.421875 28.9375 260.257812 C 28.808594 260.167969 28.675781 260.078125 28.550781 259.984375 C 28.28125 259.796875 28.023438 259.601562 27.761719 259.410156 C 27.671875 259.34375 27.582031 259.277344 27.492188 259.210938 C 27.476562 259.199219 27.460938 259.1875 27.449219 259.175781 L 27.449219 278.570312 Z M 50.488281 270.210938 L 50.488281 290.777344 C 52.679688 291.472656 54.953125 292.101562 57.308594 292.675781 L 57.308594 272.023438 C 54.960938 271.480469 52.691406 270.875 50.488281 270.210938 Z M 62.019531 293.710938 C 64.230469 294.152344 66.507812 294.535156 68.835938 294.863281 L 68.835938 274.136719 C 66.515625 273.816406 64.238281 273.441406 62.019531 273.019531 Z M 73.542969 295.445312 C 75.777344 295.679688 78.046875 295.863281 80.359375 295.992188 L 80.359375 275.230469 C 78.054688 275.109375 75.78125 274.925781 73.542969 274.699219 Z M 96.589844 275.226562 L 96.589844 295.988281 C 98.898438 295.863281 101.175781 295.675781 103.40625 295.441406 L 103.40625 274.695312 C 101.171875 274.925781 98.894531 275.105469 96.589844 275.226562 Z M 108.117188 294.863281 C 110.441406 294.535156 112.714844 294.152344 114.933594 293.710938 L 114.933594 273.019531 C 112.710938 273.441406 110.441406 273.816406 108.117188 274.136719 Z M 119.640625 292.675781 C 121.992188 292.105469 124.269531 291.472656 126.453125 290.777344 L 126.453125 270.21875 C 126.417969 270.230469 126.382812 270.242188 126.351562 270.253906 C 124.1875 270.898438 121.949219 271.488281 119.640625 272.023438 Z M 142.6875 263.5625 L 142.6875 283.632812 C 145.285156 282.050781 147.574219 280.355469 149.507812 278.570312 L 149.507812 259.183594 C 149.5 259.191406 149.484375 259.199219 149.472656 259.207031 C 149.226562 259.390625 148.972656 259.578125 148.71875 259.757812 C 148.503906 259.914062 148.296875 260.070312 148.078125 260.222656 C 147.800781 260.417969 147.515625 260.609375 147.234375 260.796875 C 147.027344 260.9375 146.824219 261.078125 146.613281 261.21875 C 146.308594 261.414062 145.992188 261.613281 145.675781 261.8125 C 145.476562 261.933594 145.28125 262.0625 145.078125 262.1875 C 144.742188 262.394531 144.394531 262.59375 144.050781 262.796875 C 143.859375 262.90625 143.675781 263.019531 143.480469 263.128906 C 143.21875 263.273438 142.953125 263.417969 142.6875 263.5625 Z M 157.699219 247.726562 C 158.820312 246.890625 159.863281 246.035156 160.820312 245.152344 L 160.820312 225.761719 C 160.804688 225.773438 160.785156 225.785156 160.765625 225.804688 C 160.699219 225.855469 160.625 225.910156 160.554688 225.964844 C 160.277344 226.171875 159.996094 226.378906 159.707031 226.582031 C 159.59375 226.664062 159.476562 226.742188 159.363281 226.824219 C 159.113281 227 158.863281 227.175781 158.609375 227.347656 C 158.472656 227.441406 158.335938 227.53125 158.199219 227.621094 C 157.957031 227.78125 157.71875 227.9375 157.46875 228.097656 C 157.320312 228.195312 157.171875 228.289062 157.019531 228.382812 C 156.777344 228.535156 156.535156 228.683594 156.289062 228.835938 C 156.128906 228.933594 155.972656 229.027344 155.816406 229.121094 C 155.570312 229.269531 155.3125 229.414062 155.0625 229.5625 C 154.902344 229.652344 154.746094 229.75 154.585938 229.839844 C 154.390625 229.945312 154.199219 230.054688 154.003906 230.160156 L 154.003906 250.15625 C 155.203125 249.445312 156.390625 248.707031 157.625 247.785156 C 157.652344 247.753906 157.675781 247.742188 157.699219 247.726562 Z M 12.519531 172.332031 C 12.519531 174.890625 13.210938 177.394531 14.507812 179.792969 C 15.550781 181.726562 16.984375 183.59375 18.773438 185.378906 C 18.914062 185.488281 19.039062 185.617188 19.15625 185.757812 C 21.933594 188.4375 25.503906 190.921875 29.726562 193.144531 C 29.855469 193.195312 29.980469 193.257812 30.09375 193.332031 C 30.667969 193.628906 31.246094 193.921875 31.839844 194.207031 C 34.640625 195.554688 37.691406 196.785156 40.949219 197.886719 C 41.066406 197.914062 41.1875 197.957031 41.296875 198.003906 C 44.730469 199.148438 48.394531 200.148438 52.253906 200.980469 C 52.339844 200.996094 52.425781 201.015625 52.507812 201.035156 C 56.0625 201.796875 59.78125 202.417969 63.625 202.886719 C 63.660156 202.890625 63.691406 202.894531 63.722656 202.898438 C 69.152344 203.554688 74.839844 203.90625 80.707031 203.90625 C 86.566406 203.90625 92.25 203.554688 97.679688 202.902344 C 97.714844 202.898438 97.753906 202.894531 97.789062 202.890625 C 101.640625 202.425781 105.359375 201.800781 108.914062 201.039062 C 108.992188 201.019531 109.070312 201.003906 109.152344 200.992188 C 113.007812 200.152344 116.671875 199.15625 120.109375 198.011719 C 120.226562 197.960938 120.339844 197.925781 120.464844 197.890625 C 123.722656 196.789062 126.769531 195.558594 129.574219 194.210938 C 130.167969 193.925781 130.75 193.632812 131.320312 193.335938 C 131.433594 193.265625 131.550781 193.203125 131.675781 193.15625 C 135.90625 190.933594 139.480469 188.449219 142.257812 185.765625 C 142.367188 185.625 142.496094 185.5 142.636719 185.394531 C 144.882812 183.148438 146.578125 180.773438 147.632812 178.300781 C 148.457031 176.363281 148.894531 174.371094 148.894531 172.339844 C 148.894531 163.953125 141.511719 156.207031 129.574219 150.464844 C 117.117188 144.476562 99.839844 140.769531 80.707031 140.769531 C 61.570312 140.769531 44.292969 144.476562 31.839844 150.464844 C 19.90625 156.199219 12.519531 163.945312 12.519531 172.332031 Z M 12.519531 197.8125 C 12.519531 200.660156 13.371094 203.433594 14.964844 206.082031 L 14.964844 188.179688 C 14.886719 188.097656 14.8125 188.019531 14.734375 187.9375 C 14.546875 187.738281 14.363281 187.542969 14.183594 187.339844 C 14.097656 187.246094 14.011719 187.148438 13.929688 187.050781 C 13.753906 186.847656 13.578125 186.648438 13.410156 186.445312 C 13.332031 186.351562 13.253906 186.253906 13.175781 186.164062 C 13 185.953125 12.835938 185.738281 12.671875 185.527344 C 12.621094 185.460938 12.570312 185.398438 12.519531 185.332031 Z M 22.757812 230.859375 C 21.152344 233.507812 20.289062 236.296875 20.289062 239.175781 C 20.289062 240.570312 20.5 241.953125 20.894531 243.308594 C 22.882812 250.089844 29.660156 256.261719 39.609375 261.050781 C 52.0625 267.039062 69.339844 270.742188 88.476562 270.742188 C 101.90625 270.742188 114.421875 268.914062 125.007812 265.746094 C 125.300781 265.660156 125.585938 265.570312 125.871094 265.480469 C 126.199219 265.375 126.527344 265.277344 126.855469 265.175781 C 127.160156 265.074219 127.460938 264.972656 127.765625 264.875 C 128.007812 264.792969 128.253906 264.714844 128.5 264.628906 C 126.710938 265.015625 124.976562 265.335938 123.277344 265.609375 C 121.355469 265.929688 119.398438 266.210938 117.40625 266.453125 C 117.359375 266.460938 117.316406 266.464844 117.269531 266.46875 C 112.238281 267.078125 107.003906 267.429688 101.621094 267.496094 C 101.617188 267.496094 101.617188 267.496094 101.613281 267.496094 C 101.007812 267.503906 100.398438 267.507812 99.789062 267.507812 C 93.769531 267.507812 87.910156 267.144531 82.3125 266.46875 C 82.265625 266.464844 82.214844 266.457031 82.164062 266.453125 C 79.671875 266.148438 77.226562 265.78125 74.84375 265.355469 C 61.253906 264.066406 49.371094 260.875 40.902344 256.496094 C 32.023438 251.898438 26.71875 245.894531 26.71875 239.175781 C 26.71875 238.421875 26.792969 237.640625 26.941406 236.851562 L 26.941406 236.839844 C 27.035156 236.316406 27.171875 235.792969 27.332031 235.28125 C 27.195312 234.660156 27.09375 234.039062 27.023438 233.410156 C 27.023438 233.394531 27.019531 233.378906 27.019531 233.367188 C 27.019531 233.363281 27.019531 233.355469 27.019531 233.351562 C 26.941406 232.652344 26.902344 231.949219 26.894531 231.246094 C 26.894531 231.238281 26.894531 231.234375 26.894531 231.230469 L 26.894531 225.789062 C 25.210938 227.410156 23.820312 229.109375 22.757812 230.859375 Z M 20.289062 264.652344 C 20.289062 267.5 21.140625 270.273438 22.734375 272.921875 L 22.734375 255.023438 C 22.652344 254.941406 22.574219 254.855469 22.496094 254.765625 C 22.3125 254.578125 22.136719 254.382812 21.960938 254.191406 C 21.871094 254.085938 21.78125 253.988281 21.691406 253.886719 C 21.515625 253.691406 21.351562 253.492188 21.1875 253.296875 C 21.105469 253.195312 21.019531 253.09375 20.9375 252.996094 C 20.769531 252.792969 20.609375 252.585938 20.449219 252.378906 C 20.394531 252.3125 20.339844 252.242188 20.285156 252.171875 L 20.285156 264.652344 Z M 39.605469 286.523438 C 41.550781 287.457031 43.609375 288.335938 45.78125 289.15625 L 45.78125 268.671875 C 43.394531 267.820312 41.117188 266.902344 38.964844 265.921875 L 38.964844 286.203125 C 39.179688 286.316406 39.390625 286.417969 39.605469 286.523438 Z M 91.882812 296.179688 L 91.882812 275.410156 C 90.753906 275.433594 89.621094 275.449219 88.476562 275.449219 C 87.332031 275.449219 86.195312 275.4375 85.066406 275.410156 L 85.066406 296.175781 C 86.195312 296.199219 87.332031 296.214844 88.476562 296.214844 C 89.617188 296.21875 90.753906 296.203125 91.882812 296.179688 Z M 137.34375 286.523438 C 137.558594 286.417969 137.769531 286.3125 137.976562 286.207031 L 137.976562 265.925781 C 137.558594 266.117188 137.128906 266.308594 136.695312 266.492188 C 136.613281 266.53125 136.53125 266.566406 136.449219 266.605469 C 135.84375 266.867188 135.226562 267.125 134.601562 267.375 C 134.585938 267.382812 134.566406 267.390625 134.550781 267.394531 C 133.449219 267.835938 132.320312 268.261719 131.164062 268.675781 L 131.164062 289.15625 C 133.332031 288.339844 135.398438 287.457031 137.34375 286.523438 Z M 156.664062 254.085938 C 155.898438 254.578125 155.050781 255.0625 154.214844 255.515625 L 154.214844 272.921875 C 155.808594 270.277344 156.664062 267.5 156.664062 264.652344 Z M 167.835938 218.929688 C 167.667969 219.152344 167.488281 219.375 167.3125 219.59375 C 167.238281 219.683594 167.164062 219.769531 167.089844 219.859375 C 166.917969 220.070312 166.738281 220.277344 166.558594 220.480469 C 166.476562 220.574219 166.394531 220.667969 166.3125 220.757812 C 166.128906 220.960938 165.945312 221.164062 165.753906 221.363281 C 165.679688 221.441406 165.601562 221.523438 165.527344 221.601562 L 165.527344 239.503906 C 167.121094 236.859375 167.976562 234.082031 167.976562 231.230469 L 167.976562 218.753906 C 167.929688 218.8125 167.882812 218.871094 167.835938 218.929688 Z M 167.835938 218.929688 " fill-opacity="1" fill-rule="nonzero"/></g></svg>