<svg xmlns="http://www.w3.org/2000/svg" xmlns:xlink="http://www.w3.org/1999/xlink" width="500" zoomAndPan="magnify" viewBox="0 0 375 374.999991" height="500" preserveAspectRatio="xMidYMid meet" version="1.0"><defs><g/><clipPath id="7391fd0bd8"><path d="M 38 27 L 330.671875 27 L 330.671875 319.34375 L 38 319.34375 Z M 38 27 " clip-rule="nonzero"/></clipPath><clipPath id="8e0bfd360d"><path d="M 26.171875 14.84375 L 318 14.84375 L 318 307 L 26.171875 307 Z M 26.171875 14.84375 " clip-rule="nonzero"/></clipPath><clipPath id="d60efa7706"><path d="M 0.679688 0.320312 L 131 0.320312 L 131 175 L 0.679688 175 Z M 0.679688 0.320312 " clip-rule="nonzero"/></clipPath><clipPath id="2c8b5eec4b"><rect x="0" width="131" y="0" height="175"/></clipPath><clipPath id="17c6018418"><rect x="0" width="160" y="0" height="238"/></clipPath><clipPath id="6e210520cf"><path d="M 217 69.140625 L 290.25 69.140625 L 290.25 219.140625 L 217 219.140625 Z M 217 69.140625 " clip-rule="nonzero"/></clipPath></defs><rect x="-37.5" width="450" fill="#ffffff" y="-37.499999" height="449.999989" fill-opacity="1"/><rect x="-37.5" width="450" fill="#3c503d" y="-37.499999" height="449.999989" fill-opacity="1"/><g clip-path="url(#7391fd0bd8)"><path fill="#ffffff" d="M 330.460938 173.320312 C 330.460938 175.707031 330.402344 178.089844 330.285156 180.476562 C 330.167969 182.859375 329.992188 185.238281 329.757812 187.613281 C 329.523438 189.988281 329.234375 192.355469 328.882812 194.714844 C 328.53125 197.074219 328.125 199.425781 327.660156 201.765625 C 327.195312 204.105469 326.671875 206.433594 326.089844 208.75 C 325.511719 211.066406 324.875 213.363281 324.183594 215.648438 C 323.488281 217.929688 322.742188 220.195312 321.9375 222.441406 C 321.132812 224.691406 320.273438 226.914062 319.363281 229.121094 C 318.449219 231.324219 317.480469 233.503906 316.460938 235.664062 C 315.441406 237.820312 314.367188 239.949219 313.242188 242.054688 C 312.117188 244.160156 310.941406 246.234375 309.714844 248.28125 C 308.488281 250.328125 307.214844 252.34375 305.886719 254.328125 C 304.5625 256.3125 303.1875 258.261719 301.765625 260.179688 C 300.34375 262.097656 298.878906 263.976562 297.363281 265.824219 C 295.847656 267.667969 294.292969 269.472656 292.6875 271.242188 C 291.085938 273.007812 289.441406 274.738281 287.753906 276.425781 C 286.066406 278.113281 284.339844 279.757812 282.570312 281.359375 C 280.800781 282.960938 278.996094 284.519531 277.152344 286.035156 C 275.304688 287.546875 273.425781 289.015625 271.507812 290.4375 C 269.59375 291.859375 267.640625 293.234375 265.65625 294.558594 C 263.671875 295.882812 261.65625 297.160156 259.613281 298.386719 C 257.566406 299.613281 255.488281 300.789062 253.382812 301.914062 C 251.28125 303.039062 249.148438 304.113281 246.992188 305.132812 C 244.835938 306.152344 242.652344 307.121094 240.449219 308.03125 C 238.246094 308.945312 236.019531 309.804688 233.773438 310.609375 C 231.523438 311.414062 229.257812 312.160156 226.976562 312.851562 C 224.691406 313.546875 222.394531 314.183594 220.078125 314.761719 C 217.765625 315.34375 215.4375 315.863281 213.09375 316.332031 C 210.753906 316.796875 208.40625 317.203125 206.042969 317.554688 C 203.683594 317.902344 201.316406 318.195312 198.941406 318.429688 C 196.566406 318.664062 194.1875 318.839844 191.804688 318.957031 C 189.421875 319.074219 187.035156 319.132812 184.648438 319.132812 C 182.261719 319.132812 179.878906 319.074219 177.496094 318.957031 C 175.109375 318.839844 172.730469 318.664062 170.355469 318.429688 C 167.980469 318.195312 165.613281 317.902344 163.253906 317.554688 C 160.894531 317.203125 158.542969 316.796875 156.203125 316.332031 C 153.863281 315.863281 151.535156 315.34375 149.21875 314.761719 C 146.90625 314.183594 144.605469 313.546875 142.324219 312.851562 C 140.039062 312.160156 137.773438 311.414062 135.527344 310.609375 C 133.28125 309.804688 131.054688 308.945312 128.847656 308.03125 C 126.644531 307.121094 124.464844 306.152344 122.308594 305.132812 C 120.148438 304.113281 118.019531 303.039062 115.914062 301.914062 C 113.808594 300.789062 111.734375 299.613281 109.6875 298.386719 C 107.640625 297.160156 105.625 295.882812 103.640625 294.558594 C 101.65625 293.234375 99.707031 291.859375 97.789062 290.4375 C 95.871094 289.015625 93.992188 287.546875 92.148438 286.035156 C 90.300781 284.519531 88.496094 282.960938 86.726562 281.359375 C 84.960938 279.757812 83.230469 278.113281 81.542969 276.425781 C 79.859375 274.738281 78.210938 273.007812 76.609375 271.242188 C 75.007812 269.472656 73.449219 267.667969 71.933594 265.824219 C 70.421875 263.976562 68.953125 262.097656 67.53125 260.179688 C 66.109375 258.261719 64.738281 256.3125 63.410156 254.328125 C 62.085938 252.34375 60.808594 250.328125 59.582031 248.28125 C 58.355469 246.234375 57.179688 244.160156 56.054688 242.054688 C 54.929688 239.949219 53.855469 237.820312 52.835938 235.664062 C 51.816406 233.503906 50.851562 231.324219 49.9375 229.121094 C 49.023438 226.914062 48.164062 224.691406 47.359375 222.441406 C 46.558594 220.195312 45.808594 217.929688 45.117188 215.648438 C 44.421875 213.363281 43.789062 211.066406 43.207031 208.75 C 42.628906 206.433594 42.105469 204.105469 41.640625 201.765625 C 41.171875 199.425781 40.765625 197.074219 40.414062 194.714844 C 40.066406 192.355469 39.773438 189.988281 39.539062 187.613281 C 39.304688 185.238281 39.128906 182.859375 39.011719 180.476562 C 38.894531 178.089844 38.835938 175.707031 38.835938 173.320312 C 38.835938 170.933594 38.894531 168.550781 39.011719 166.164062 C 39.128906 163.78125 39.304688 161.402344 39.539062 159.027344 C 39.773438 156.652344 40.066406 154.285156 40.414062 151.925781 C 40.765625 149.566406 41.171875 147.214844 41.640625 144.875 C 42.105469 142.535156 42.628906 140.207031 43.207031 137.890625 C 43.789062 135.578125 44.421875 133.277344 45.117188 130.992188 C 45.808594 128.710938 46.558594 126.445312 47.359375 124.199219 C 48.164062 121.949219 49.023438 119.726562 49.9375 117.519531 C 50.851562 115.316406 51.816406 113.136719 52.835938 110.976562 C 53.855469 108.820312 54.929688 106.691406 56.054688 104.585938 C 57.179688 102.480469 58.355469 100.40625 59.582031 98.359375 C 60.808594 96.3125 62.085938 94.296875 63.410156 92.3125 C 64.738281 90.328125 66.109375 88.378906 67.53125 86.460938 C 68.953125 84.542969 70.421875 82.664062 71.933594 80.820312 C 73.449219 78.972656 75.007812 77.167969 76.609375 75.398438 C 78.210938 73.632812 79.859375 71.902344 81.542969 70.214844 C 83.230469 68.527344 84.960938 66.882812 86.726562 65.28125 C 88.496094 63.679688 90.300781 62.121094 92.148438 60.605469 C 93.992188 59.09375 95.871094 57.625 97.789062 56.203125 C 99.707031 54.78125 101.65625 53.410156 103.640625 52.082031 C 105.625 50.757812 107.640625 49.480469 109.6875 48.253906 C 111.734375 47.027344 113.808594 45.851562 115.914062 44.726562 C 118.019531 43.601562 120.148438 42.527344 122.308594 41.507812 C 124.464844 40.488281 126.644531 39.519531 128.847656 38.609375 C 131.054688 37.695312 133.28125 36.835938 135.527344 36.03125 C 137.773438 35.226562 140.039062 34.480469 142.324219 33.789062 C 144.605469 33.09375 146.90625 32.457031 149.21875 31.878906 C 151.535156 31.296875 153.863281 30.777344 156.203125 30.308594 C 158.542969 29.84375 160.894531 29.4375 163.253906 29.085938 C 165.613281 28.738281 167.980469 28.445312 170.355469 28.210938 C 172.730469 27.976562 175.109375 27.800781 177.496094 27.683594 C 179.878906 27.566406 182.261719 27.507812 184.648438 27.507812 C 187.035156 27.507812 189.421875 27.566406 191.804688 27.683594 C 194.1875 27.800781 196.566406 27.976562 198.941406 28.210938 C 201.316406 28.445312 203.683594 28.738281 206.042969 29.085938 C 208.40625 29.4375 210.753906 29.84375 213.09375 30.308594 C 215.4375 30.777344 217.765625 31.296875 220.078125 31.878906 C 222.394531 32.457031 224.691406 33.09375 226.976562 33.789062 C 229.257812 34.480469 231.523438 35.226562 233.773438 36.03125 C 236.019531 36.835938 238.246094 37.695312 240.449219 38.609375 C 242.652344 39.519531 244.835938 40.488281 246.992188 41.507812 C 249.148438 42.527344 251.28125 43.601562 253.382812 44.726562 C 255.488281 45.851562 257.566406 47.027344 259.613281 48.253906 C 261.65625 49.480469 263.671875 50.757812 265.65625 52.082031 C 267.640625 53.410156 269.59375 54.78125 271.507812 56.203125 C 273.425781 57.625 275.304688 59.09375 277.152344 60.605469 C 278.996094 62.121094 280.800781 63.679688 282.570312 65.28125 C 284.339844 66.882812 286.066406 68.527344 287.753906 70.214844 C 289.441406 71.902344 291.085938 73.632812 292.6875 75.398438 C 294.292969 77.167969 295.847656 78.972656 297.363281 80.820312 C 298.878906 82.664062 300.34375 84.542969 301.765625 86.460938 C 303.1875 88.378906 304.5625 90.328125 305.886719 92.3125 C 307.214844 94.296875 308.488281 96.3125 309.714844 98.359375 C 310.941406 100.40625 312.117188 102.480469 313.242188 104.585938 C 314.367188 106.691406 315.441406 108.820312 316.460938 110.976562 C 317.480469 113.136719 318.449219 115.316406 319.363281 117.519531 C 320.273438 119.726562 321.132812 121.949219 321.9375 124.199219 C 322.742188 126.445312 323.488281 128.710938 324.183594 130.992188 C 324.875 133.277344 325.511719 135.578125 326.089844 137.890625 C 326.671875 140.207031 327.195312 142.535156 327.660156 144.875 C 328.125 147.214844 328.53125 149.566406 328.882812 151.925781 C 329.234375 154.285156 329.523438 156.652344 329.757812 159.027344 C 329.992188 161.402344 330.167969 163.78125 330.285156 166.164062 C 330.402344 168.550781 330.460938 170.933594 330.460938 173.320312 Z M 330.460938 173.320312 " fill-opacity="1" fill-rule="nonzero"/></g><g clip-path="url(#8e0bfd360d)"><path fill="#3c503d" d="M 317.792969 160.65625 C 317.792969 163.039062 317.734375 165.425781 317.617188 167.808594 C 317.5 170.191406 317.324219 172.570312 317.09375 174.945312 C 316.859375 177.320312 316.566406 179.6875 316.214844 182.050781 C 315.867188 184.410156 315.457031 186.761719 314.992188 189.101562 C 314.527344 191.441406 314.003906 193.769531 313.425781 196.082031 C 312.84375 198.398438 312.207031 200.699219 311.515625 202.980469 C 310.824219 205.265625 310.074219 207.53125 309.269531 209.777344 C 308.464844 212.023438 307.609375 214.25 306.695312 216.453125 C 305.78125 218.660156 304.816406 220.839844 303.792969 222.996094 C 302.773438 225.152344 301.703125 227.285156 300.578125 229.390625 C 299.453125 231.492188 298.277344 233.570312 297.050781 235.617188 C 295.824219 237.664062 294.546875 239.679688 293.21875 241.664062 C 291.894531 243.648438 290.519531 245.597656 289.097656 247.515625 C 287.679688 249.429688 286.210938 251.3125 284.695312 253.15625 C 283.183594 255 281.625 256.808594 280.023438 258.574219 C 278.417969 260.34375 276.773438 262.070312 275.085938 263.757812 C 273.398438 265.445312 271.671875 267.089844 269.902344 268.695312 C 268.136719 270.296875 266.328125 271.855469 264.484375 273.367188 C 262.640625 274.882812 260.757812 276.351562 258.84375 277.769531 C 256.925781 279.191406 254.976562 280.566406 252.992188 281.890625 C 251.007812 283.21875 248.992188 284.496094 246.945312 285.722656 C 244.898438 286.949219 242.824219 288.125 240.71875 289.25 C 238.613281 290.375 236.480469 291.445312 234.324219 292.464844 C 232.167969 293.488281 229.988281 294.453125 227.78125 295.367188 C 225.578125 296.28125 223.351562 297.136719 221.105469 297.941406 C 218.859375 298.746094 216.59375 299.496094 214.308594 300.1875 C 212.027344 300.878906 209.726562 301.515625 207.410156 302.097656 C 205.097656 302.675781 202.769531 303.199219 200.429688 303.664062 C 198.089844 304.128906 195.738281 304.539062 193.378906 304.886719 C 191.015625 305.238281 188.648438 305.53125 186.273438 305.761719 C 183.898438 305.996094 181.519531 306.171875 179.136719 306.289062 C 176.753906 306.40625 174.371094 306.464844 171.984375 306.464844 C 169.597656 306.464844 167.210938 306.40625 164.828125 306.289062 C 162.445312 306.171875 160.066406 305.996094 157.691406 305.761719 C 155.316406 305.53125 152.949219 305.238281 150.589844 304.886719 C 148.226562 304.539062 145.878906 304.128906 143.535156 303.664062 C 141.195312 303.199219 138.867188 302.675781 136.554688 302.097656 C 134.238281 301.515625 131.941406 300.878906 129.65625 300.1875 C 127.371094 299.496094 125.109375 298.746094 122.859375 297.941406 C 120.613281 297.136719 118.386719 296.28125 116.183594 295.367188 C 113.980469 294.453125 111.796875 293.488281 109.640625 292.464844 C 107.484375 291.445312 105.351562 290.375 103.25 289.25 C 101.144531 288.125 99.066406 286.949219 97.019531 285.722656 C 94.972656 284.496094 92.957031 283.21875 90.976562 281.890625 C 88.992188 280.566406 87.039062 279.191406 85.125 277.769531 C 83.207031 276.351562 81.324219 274.882812 79.480469 273.367188 C 77.636719 271.855469 75.832031 270.296875 74.0625 268.695312 C 72.292969 267.089844 70.566406 265.445312 68.878906 263.757812 C 67.191406 262.070312 65.546875 260.34375 63.945312 258.574219 C 62.339844 256.808594 60.785156 255 59.269531 253.15625 C 57.753906 251.3125 56.289062 249.429688 54.867188 247.515625 C 53.445312 245.597656 52.070312 243.648438 50.746094 241.664062 C 49.417969 239.679688 48.144531 237.664062 46.917969 235.617188 C 45.691406 233.570312 44.515625 231.492188 43.390625 229.390625 C 42.265625 227.285156 41.191406 225.152344 40.171875 222.996094 C 39.152344 220.839844 38.183594 218.660156 37.269531 216.453125 C 36.359375 214.25 35.5 212.023438 34.695312 209.777344 C 33.890625 207.53125 33.144531 205.265625 32.449219 202.980469 C 31.757812 200.699219 31.121094 198.398438 30.542969 196.082031 C 29.960938 193.769531 29.4375 191.441406 28.972656 189.101562 C 28.507812 186.761719 28.101562 184.410156 27.75 182.050781 C 27.398438 179.6875 27.109375 177.320312 26.875 174.945312 C 26.640625 172.570312 26.464844 170.191406 26.347656 167.808594 C 26.230469 165.425781 26.171875 163.039062 26.171875 160.65625 C 26.171875 158.269531 26.230469 155.882812 26.347656 153.5 C 26.464844 151.117188 26.640625 148.738281 26.875 146.363281 C 27.109375 143.988281 27.398438 141.621094 27.75 139.261719 C 28.101562 136.898438 28.507812 134.550781 28.972656 132.207031 C 29.4375 129.867188 29.960938 127.539062 30.542969 125.226562 C 31.121094 122.910156 31.757812 120.613281 32.449219 118.328125 C 33.144531 116.042969 33.890625 113.777344 34.695312 111.53125 C 35.5 109.285156 36.359375 107.058594 37.269531 104.855469 C 38.183594 102.652344 39.152344 100.46875 40.171875 98.3125 C 41.191406 96.15625 42.265625 94.023438 43.390625 91.917969 C 44.515625 89.816406 45.691406 87.738281 46.917969 85.691406 C 48.144531 83.644531 49.417969 81.628906 50.746094 79.644531 C 52.070312 77.664062 53.445312 75.710938 54.867188 73.796875 C 56.289062 71.878906 57.753906 69.996094 59.269531 68.152344 C 60.785156 66.308594 62.339844 64.503906 63.945312 62.734375 C 65.546875 60.964844 67.191406 59.238281 68.878906 57.550781 C 70.566406 55.863281 72.292969 54.21875 74.0625 52.617188 C 75.832031 51.011719 77.636719 49.457031 79.480469 47.941406 C 81.324219 46.425781 83.207031 44.960938 85.125 43.539062 C 87.039062 42.117188 88.992188 40.742188 90.976562 39.417969 C 92.957031 38.089844 94.972656 36.816406 97.019531 35.589844 C 99.066406 34.363281 101.144531 33.1875 103.25 32.0625 C 105.351562 30.9375 107.484375 29.863281 109.640625 28.84375 C 111.796875 27.824219 113.980469 26.855469 116.183594 25.941406 C 118.386719 25.03125 120.613281 24.171875 122.859375 23.367188 C 125.109375 22.5625 127.371094 21.816406 129.65625 21.121094 C 131.941406 20.429688 134.238281 19.792969 136.554688 19.214844 C 138.867188 18.632812 141.195312 18.109375 143.535156 17.644531 C 145.878906 17.179688 148.226562 16.773438 150.589844 16.421875 C 152.949219 16.070312 155.316406 15.78125 157.691406 15.546875 C 160.066406 15.3125 162.445312 15.136719 164.828125 15.019531 C 167.210938 14.902344 169.597656 14.84375 171.984375 14.84375 C 174.371094 14.84375 176.753906 14.902344 179.136719 15.019531 C 181.519531 15.136719 183.898438 15.3125 186.273438 15.546875 C 188.648438 15.78125 191.015625 16.070312 193.378906 16.421875 C 195.738281 16.773438 198.089844 17.179688 200.429688 17.644531 C 202.769531 18.109375 205.097656 18.632812 207.410156 19.214844 C 209.726562 19.792969 212.027344 20.429688 214.308594 21.121094 C 216.59375 21.816406 218.859375 22.5625 221.105469 23.367188 C 223.351562 24.171875 225.578125 25.03125 227.78125 25.941406 C 229.988281 26.855469 232.167969 27.824219 234.324219 28.84375 C 236.480469 29.863281 238.613281 30.9375 240.71875 32.0625 C 242.820312 33.1875 244.898438 34.363281 246.945312 35.589844 C 248.992188 36.816406 251.007812 38.089844 252.992188 39.417969 C 254.976562 40.742188 256.925781 42.117188 258.84375 43.539062 C 260.757812 44.960938 262.640625 46.425781 264.484375 47.941406 C 266.328125 49.457031 268.136719 51.011719 269.902344 52.617188 C 271.671875 54.21875 273.398438 55.863281 275.085938 57.550781 C 276.773438 59.238281 278.417969 60.964844 280.023438 62.734375 C 281.625 64.503906 283.183594 66.308594 284.695312 68.152344 C 286.210938 69.996094 287.679688 71.878906 289.097656 73.796875 C 290.519531 75.710938 291.894531 77.664062 293.21875 79.644531 C 294.546875 81.628906 295.824219 83.644531 297.050781 85.691406 C 298.277344 87.738281 299.453125 89.816406 300.578125 91.917969 C 301.703125 94.023438 302.773438 96.15625 303.792969 98.3125 C 304.816406 100.46875 305.78125 102.652344 306.695312 104.855469 C 307.609375 107.058594 308.464844 109.285156 309.269531 111.53125 C 310.074219 113.777344 310.824219 116.042969 311.515625 118.328125 C 312.207031 120.613281 312.84375 122.910156 313.425781 125.226562 C 314.003906 127.539062 314.527344 129.867188 314.992188 132.207031 C 315.457031 134.550781 315.867188 136.898438 316.214844 139.261719 C 316.566406 141.621094 316.859375 143.988281 317.09375 146.363281 C 317.324219 148.738281 317.5 151.117188 317.617188 153.5 C 317.734375 155.882812 317.792969 158.269531 317.792969 160.65625 Z M 317.792969 160.65625 " fill-opacity="1" fill-rule="nonzero"/></g><g transform="matrix(1, 0, 0, 1, 85, 70)"><g clip-path="url(#17c6018418)"><g clip-path="url(#d60efa7706)"><g><g clip-path="url(#2c8b5eec4b)"><g fill="#ffffff" fill-opacity="1"><g transform="translate(2.274742, 102.646243)"><g><path d="M 37.34375 -75.40625 C 30.40625 -73.695312 25.488281 -70.703125 22.59375 -66.421875 C 19.707031 -62.140625 17.992188 -56.734375 17.453125 -50.203125 C 22.140625 -50.203125 25.757812 -50.203125 28.3125 -50.203125 C 30.863281 -50.203125 32.679688 -50.203125 33.765625 -50.203125 C 34.859375 -50.203125 35.523438 -50.179688 35.765625 -50.140625 C 36.003906 -50.109375 36.125 -50.09375 36.125 -50.09375 L 36.125 -35.5 C 35.84375 -35.4375 34.71875 -35.367188 32.75 -35.296875 C 30.78125 -35.234375 28.414062 -35.179688 25.65625 -35.140625 C 22.90625 -35.109375 20.171875 -35.09375 17.453125 -35.09375 C 17.515625 -34.207031 17.578125 -33.320312 17.640625 -32.4375 C 17.710938 -31.5625 17.785156 -30.644531 17.859375 -29.6875 C 18.191406 -25.945312 18.785156 -21.796875 19.640625 -17.234375 C 20.492188 -12.679688 21.566406 -8.226562 22.859375 -3.875 C 24.148438 0.476562 25.539062 4.320312 27.03125 7.65625 L 8.875 7.65625 C 7.925781 5.34375 7.007812 2.601562 6.125 -0.5625 C 5.238281 -3.726562 4.453125 -7.0625 3.765625 -10.5625 C 3.085938 -14.0625 2.507812 -17.476562 2.03125 -20.8125 C 1.5625 -24.144531 1.222656 -27.140625 1.015625 -29.796875 C 0.265625 -39.316406 0.296875 -48.125 1.109375 -56.21875 C 1.929688 -64.3125 3.71875 -71.488281 6.46875 -77.75 C 9.226562 -84.007812 13.140625 -89.109375 18.203125 -93.046875 C 23.273438 -96.992188 29.65625 -99.546875 37.34375 -100.703125 Z M 37.34375 -75.40625 "/></g></g></g><g fill="#ffffff" fill-opacity="1"><g transform="translate(39.616461, 102.646243)"><g><path d="M 18.78125 -53.875 C 16.664062 -53.875 14.738281 -54.398438 13 -55.453125 C 11.269531 -56.503906 9.878906 -57.914062 8.828125 -59.6875 C 7.773438 -61.457031 7.25 -63.394531 7.25 -65.5 C 7.25 -67.675781 7.773438 -69.628906 8.828125 -71.359375 C 9.878906 -73.097656 11.269531 -74.492188 13 -75.546875 C 14.738281 -76.609375 16.664062 -77.140625 18.78125 -77.140625 C 20.945312 -77.140625 22.898438 -76.609375 24.640625 -75.546875 C 26.378906 -74.492188 27.773438 -73.097656 28.828125 -71.359375 C 29.878906 -69.628906 30.40625 -67.675781 30.40625 -65.5 C 30.40625 -63.394531 29.878906 -61.457031 28.828125 -59.6875 C 27.773438 -57.914062 26.378906 -56.503906 24.640625 -55.453125 C 22.898438 -54.398438 20.945312 -53.875 18.78125 -53.875 Z M 5 -6.328125 C 4.050781 -12.585938 3.625 -18.894531 3.71875 -25.25 C 3.820312 -31.613281 4.28125 -38.640625 5.09375 -46.328125 L 20.921875 -46.328125 C 20.171875 -38.503906 20.164062 -31.34375 20.90625 -24.84375 C 21.65625 -18.34375 22.953125 -12.171875 24.796875 -6.328125 Z M 5 -6.328125 "/></g></g></g><g fill="#ffffff" fill-opacity="1"><g transform="translate(65.429183, 102.646243)"><g><path d="M 43.46875 -47.4375 C 47.957031 -47.4375 51.425781 -46.128906 53.875 -43.515625 C 56.320312 -40.898438 57.847656 -37.363281 58.453125 -32.90625 C 59.066406 -28.445312 58.847656 -23.425781 57.796875 -17.84375 C 56.742188 -12.269531 54.941406 -6.507812 52.390625 -0.5625 C 49.835938 5.382812 46.660156 11.148438 42.859375 16.734375 L 21.9375 16.9375 C 23.90625 14.144531 25.859375 11.03125 27.796875 7.59375 C 29.742188 4.164062 31.546875 0.6875 33.203125 -2.84375 C 34.867188 -6.382812 36.242188 -9.804688 37.328125 -13.109375 C 38.421875 -16.410156 39.101562 -19.382812 39.375 -22.03125 C 39.65625 -24.6875 39.382812 -26.78125 38.5625 -28.3125 C 37.75 -29.84375 36.21875 -30.609375 33.96875 -30.609375 C 29.957031 -30.609375 26.742188 -29.128906 24.328125 -26.171875 C 21.921875 -23.210938 20.648438 -19.519531 20.515625 -15.09375 C 20.847656 -13.0625 21.234375 -10.972656 21.671875 -8.828125 C 22.117188 -6.679688 22.679688 -4.519531 23.359375 -2.34375 L 7.546875 -2.34375 C 4.691406 -11.59375 2.941406 -20.09375 2.296875 -27.84375 C 1.648438 -35.601562 2.28125 -43.328125 4.1875 -51.015625 L 24.890625 -51.015625 C 24.003906 -48.910156 23.222656 -46.71875 22.546875 -44.4375 C 21.867188 -42.15625 21.289062 -39.828125 20.8125 -37.453125 C 23.125 -40.503906 26.113281 -42.96875 29.78125 -44.84375 C 33.457031 -46.71875 38.019531 -47.582031 43.46875 -47.4375 Z M 43.46875 -47.4375 "/></g></g></g></g></g></g><g fill="#ffffff" fill-opacity="1"><g transform="translate(12.428755, 184.08822)"><g><path d="M 25.125 -45.484375 C 29.28125 -45.484375 32.671875 -44.773438 35.296875 -43.359375 C 37.929688 -41.953125 39.878906 -40.082031 41.140625 -37.75 C 42.398438 -35.425781 43.03125 -32.828125 43.03125 -29.953125 C 43.03125 -26.679688 42.257812 -23.941406 40.71875 -21.734375 C 39.1875 -19.535156 37.09375 -17.78125 34.4375 -16.46875 C 31.789062 -15.15625 28.796875 -14.195312 25.453125 -13.59375 C 22.109375 -13 18.65625 -12.703125 15.09375 -12.703125 C 12.757812 -12.703125 10.378906 -12.800781 7.953125 -13 C 5.523438 -13.207031 3.125 -13.484375 0.75 -13.828125 L 0.75 -26.53125 C 1.4375 -26.332031 2.113281 -26.144531 2.78125 -25.96875 C 3.457031 -25.800781 4.164062 -25.644531 4.90625 -25.5 C 5.15625 -29.363281 6.179688 -32.789062 7.984375 -35.78125 C 9.796875 -38.78125 12.175781 -41.144531 15.125 -42.875 C 18.070312 -44.613281 21.40625 -45.484375 25.125 -45.484375 Z M 19.921875 -23.40625 C 21.898438 -23.40625 23.707031 -23.601562 25.34375 -24 C 26.976562 -24.40625 28.300781 -25.066406 29.3125 -25.984375 C 30.332031 -26.898438 30.84375 -28.125 30.84375 -29.65625 C 30.84375 -31.195312 30.195312 -32.445312 28.90625 -33.40625 C 27.625 -34.375 26.140625 -34.859375 24.453125 -34.859375 C 22.765625 -34.859375 21.289062 -34.347656 20.03125 -33.328125 C 18.769531 -32.316406 17.800781 -31.039062 17.125 -29.5 C 16.457031 -27.96875 16.125 -26.410156 16.125 -24.828125 C 16.125 -24.628906 16.125 -24.429688 16.125 -24.234375 C 16.125 -24.035156 16.148438 -23.8125 16.203125 -23.5625 C 16.847656 -23.507812 17.476562 -23.46875 18.09375 -23.4375 C 18.71875 -23.414062 19.328125 -23.40625 19.921875 -23.40625 Z M 17.84375 -11.078125 C 19.675781 -8.398438 21.96875 -6.191406 24.71875 -4.453125 C 27.46875 -2.722656 30.398438 -1.660156 33.515625 -1.265625 L 33.515625 13.234375 C 28.910156 12.734375 24.6875 11.304688 20.84375 8.953125 C 17.007812 6.597656 13.773438 3.625 11.140625 0.03125 C 8.515625 -3.5625 6.632812 -7.460938 5.5 -11.671875 C 7.476562 -11.421875 9.125 -11.234375 10.4375 -11.109375 C 11.75 -10.984375 12.976562 -10.921875 14.125 -10.921875 C 14.71875 -10.921875 15.320312 -10.929688 15.9375 -10.953125 C 16.5625 -10.984375 17.195312 -11.023438 17.84375 -11.078125 Z M 17.84375 -11.078125 "/></g></g></g><g fill="#ffffff" fill-opacity="1"><g transform="translate(57.029187, 184.08822)"><g><path d="M 51.140625 -66.15625 C 54.265625 -62.09375 56.40625 -57.90625 57.5625 -53.59375 C 58.726562 -49.28125 59.1875 -45.015625 58.9375 -40.796875 C 58.695312 -36.585938 57.957031 -32.578125 56.71875 -28.765625 C 55.476562 -24.953125 53.960938 -21.519531 52.171875 -18.46875 C 50.390625 -15.425781 48.609375 -12.910156 46.828125 -10.921875 C 47.367188 -9.242188 47.773438 -7.472656 48.046875 -5.609375 C 48.328125 -3.753906 48.46875 -1.882812 48.46875 0 L 33.75 0 C 33.84375 -2.53125 33.566406 -5.070312 32.921875 -7.625 C 32.285156 -10.175781 31.367188 -12.515625 30.171875 -14.640625 C 28.984375 -16.773438 27.546875 -18.5 25.859375 -19.8125 C 24.179688 -21.125 22.328125 -21.78125 20.296875 -21.78125 C 18.015625 -21.78125 16.191406 -21.242188 14.828125 -20.171875 C 13.460938 -19.109375 12.78125 -17.710938 12.78125 -15.984375 C 12.78125 -14.296875 13.460938 -12.90625 14.828125 -11.8125 C 16.191406 -10.726562 18.015625 -10.1875 20.296875 -10.1875 C 23.265625 -10.1875 26.1875 -11.003906 29.0625 -12.640625 C 29.800781 -11.148438 30.429688 -9.507812 30.953125 -7.71875 C 31.472656 -5.9375 31.8125 -4.082031 31.96875 -2.15625 C 27.5 -0.570312 23.507812 0.21875 20 0.21875 C 16.28125 0.21875 12.96875 -0.535156 10.0625 -2.046875 C 7.164062 -3.554688 4.890625 -5.535156 3.234375 -7.984375 C 1.578125 -10.441406 0.75 -13.109375 0.75 -15.984375 C 0.75 -18.859375 1.578125 -21.519531 3.234375 -23.96875 C 4.890625 -26.425781 7.164062 -28.394531 10.0625 -29.875 C 12.96875 -31.363281 16.28125 -32.109375 20 -32.109375 C 24.15625 -32.109375 27.953125 -31.265625 31.390625 -29.578125 C 34.835938 -27.898438 37.800781 -25.625 40.28125 -22.75 C 42.070312 -25.519531 43.265625 -28.523438 43.859375 -31.765625 C 44.453125 -35.015625 44.5625 -38.300781 44.1875 -41.625 C 43.8125 -44.945312 43.003906 -48.164062 41.765625 -51.28125 C 40.535156 -54.40625 38.941406 -57.253906 36.984375 -59.828125 C 35.023438 -62.410156 32.78125 -64.539062 30.25 -66.21875 Z M 51.140625 -66.15625 "/></g></g></g><g fill="#ffffff" fill-opacity="1"><g transform="translate(111.293052, 184.08822)"><g><path d="M 45.046875 -32.921875 C 42.960938 -28.515625 41.859375 -23.722656 41.734375 -18.546875 C 41.609375 -13.367188 42.585938 -7.734375 44.671875 -1.640625 L 33.15625 -1.640625 C 32.65625 -3.078125 32.191406 -4.472656 31.765625 -5.828125 C 31.347656 -7.191406 30.96875 -8.519531 30.625 -9.8125 C 29.039062 -7.332031 26.796875 -5.273438 23.890625 -3.640625 C 20.992188 -2.003906 17.242188 -1.238281 12.640625 -1.34375 C 9.117188 -1.34375 6.453125 -2.304688 4.640625 -4.234375 C 2.835938 -6.171875 1.8125 -8.773438 1.5625 -12.046875 C 1.3125 -15.316406 1.742188 -18.941406 2.859375 -22.921875 C 3.972656 -26.910156 5.671875 -30.941406 7.953125 -35.015625 L 22.890625 -35.015625 C 21.304688 -32.378906 19.878906 -29.710938 18.609375 -27.015625 C 17.347656 -24.316406 16.457031 -21.851562 15.9375 -19.625 C 15.414062 -17.394531 15.40625 -15.597656 15.90625 -14.234375 C 16.40625 -12.867188 17.617188 -12.1875 19.546875 -12.1875 C 21.921875 -12.1875 23.898438 -12.832031 25.484375 -14.125 C 27.078125 -15.414062 28.195312 -17.050781 28.84375 -19.03125 C 28.644531 -21.351562 28.617188 -23.664062 28.765625 -25.96875 C 28.910156 -28.28125 29.304688 -30.597656 29.953125 -32.921875 Z M 45.046875 -32.921875 "/></g></g></g></g></g><path fill="#ffffff" d="M 274.773438 109.730469 L 274.773438 109.738281 C 274.824219 109.757812 274.875 109.773438 274.925781 109.792969 C 274.875 109.773438 274.824219 109.75 274.773438 109.730469 " fill-opacity="1" fill-rule="nonzero"/><g clip-path="url(#6e210520cf)"><path fill="#ffffff" d="M 259.097656 179.152344 L 259.097656 156.089844 C 266.355469 159.238281 269.980469 163.296875 269.980469 168.269531 C 269.980469 174.410156 266.355469 178.039062 259.097656 179.152344 Z M 247.984375 130.363281 C 240.933594 126.863281 237.40625 122.5 237.40625 117.273438 C 237.40625 111.183594 240.933594 107.507812 247.984375 106.234375 Z M 259.097656 134.777344 L 259.097656 105.933594 C 264.671875 106.539062 269.894531 107.804688 274.769531 109.726562 C 274.769531 109.726562 274.773438 109.730469 274.773438 109.730469 C 274.824219 109.75 274.875 109.773438 274.925781 109.792969 C 274.945312 109.796875 274.960938 109.804688 274.980469 109.8125 C 279.621094 111.433594 283.074219 110.722656 283.074219 101.472656 C 283.074219 93.089844 276.429688 90.667969 275.179688 90.289062 C 270.757812 89.144531 265.402344 88.421875 259.097656 88.121094 L 259.097656 74.269531 C 259.097656 74.269531 260.027344 69.144531 253.695312 69.144531 C 247.359375 69.144531 247.984375 74.269531 247.984375 74.269531 L 247.984375 88.425781 C 238.699219 89.339844 231.242188 92.601562 225.609375 98.207031 C 219.976562 103.8125 217.160156 110.601562 217.160156 118.566406 C 217.160156 125.976562 219.328125 132.253906 223.667969 137.40625 C 228.007812 142.554688 236.113281 147.335938 247.984375 151.753906 L 247.984375 179.457031 C 243.917969 179.1875 239.34375 178.226562 234.269531 176.585938 C 234.269531 176.585938 234.273438 176.589844 234.273438 176.589844 C 234.273438 176.589844 221.984375 171.777344 219.214844 180.890625 C 216.054688 191.300781 224.554688 193.292969 231.824219 195.308594 C 237 196.6875 242.386719 197.394531 247.984375 197.421875 L 247.984375 213.480469 C 247.984375 213.480469 248.40625 219.136719 253.695312 219.136719 C 259.058594 219.136719 259.097656 213.480469 259.097656 213.480469 L 259.097656 196.964844 C 269.09375 195.847656 276.78125 192.714844 282.160156 187.5625 C 287.539062 182.414062 290.226562 175.625 290.226562 167.203125 C 290.226562 159.894531 287.816406 153.667969 282.996094 148.515625 C 278.175781 143.367188 270.210938 138.789062 259.097656 134.777344 " fill-opacity="1" fill-rule="nonzero"/></g><path fill="#ffffff" d="M 274.769531 109.726562 C 274.617188 109.675781 270.5625 108.265625 274.773438 109.738281 L 274.773438 109.730469 C 274.773438 109.730469 274.769531 109.726562 274.769531 109.726562 " fill-opacity="1" fill-rule="nonzero"/><path fill="#ffffff" d="M 274.773438 109.730469 C 274.773438 109.730469 274.769531 109.726562 274.769531 109.726562 C 274.769531 109.726562 274.773438 109.730469 274.773438 109.730469 " fill-opacity="1" fill-rule="nonzero"/></svg>