<svg xmlns="http://www.w3.org/2000/svg" xmlns:xlink="http://www.w3.org/1999/xlink" width="500" zoomAndPan="magnify" viewBox="0 0 375 374.999991" height="500" preserveAspectRatio="xMidYMid meet" version="1.0"><defs><g/><clipPath id="75f09242fc"><path d="M 0 0.878906 L 207 0.878906 L 207 280 L 0 280 Z M 0 0.878906 " clip-rule="nonzero"/></clipPath><clipPath id="d2f41ae829"><rect x="0" width="207" y="0" height="280"/></clipPath><clipPath id="b05993f9d2"><rect x="0" width="253" y="0" height="349"/></clipPath></defs><rect x="-37.5" width="450" fill="#ffffff" y="-37.499999" height="449.999989" fill-opacity="1"/><rect x="-37.5" width="450" fill="#3c503d" y="-37.499999" height="449.999989" fill-opacity="1"/><g transform="matrix(1, 0, 0, 1, 84, 26)"><g clip-path="url(#b05993f9d2)"><g clip-path="url(#75f09242fc)"><g><g clip-path="url(#d2f41ae829)"><g fill="#ffffff" fill-opacity="1"><g transform="translate(2.262012, 164.186723)"><g><path d="M 59.703125 -120.5625 C 48.609375 -117.84375 40.75 -113.054688 36.125 -106.203125 C 31.507812 -99.347656 28.765625 -90.703125 27.890625 -80.265625 C 35.398438 -80.265625 41.191406 -80.265625 45.265625 -80.265625 C 49.347656 -80.265625 52.257812 -80.265625 54 -80.265625 C 55.738281 -80.265625 56.796875 -80.238281 57.171875 -80.1875 C 57.554688 -80.132812 57.75 -80.109375 57.75 -80.109375 L 57.75 -56.765625 C 57.3125 -56.660156 55.515625 -56.550781 52.359375 -56.4375 C 49.210938 -56.332031 45.4375 -56.253906 41.03125 -56.203125 C 36.625 -56.148438 32.242188 -56.125 27.890625 -56.125 C 28.003906 -54.707031 28.113281 -53.289062 28.21875 -51.875 C 28.332031 -50.46875 28.441406 -49 28.546875 -47.46875 C 29.085938 -41.488281 30.035156 -34.851562 31.390625 -27.5625 C 32.753906 -20.28125 34.46875 -13.160156 36.53125 -6.203125 C 38.601562 0.753906 40.835938 6.898438 43.234375 12.234375 L 14.1875 12.234375 C 12.664062 8.535156 11.195312 4.160156 9.78125 -0.890625 C 8.375 -5.953125 7.125 -11.28125 6.03125 -16.875 C 4.945312 -22.476562 4.023438 -27.945312 3.265625 -33.28125 C 2.503906 -38.613281 1.957031 -43.398438 1.625 -47.640625 C 0.4375 -62.867188 0.492188 -76.953125 1.796875 -89.890625 C 3.097656 -102.828125 5.953125 -114.300781 10.359375 -124.3125 C 14.765625 -134.320312 21.019531 -142.476562 29.125 -148.78125 C 37.226562 -155.09375 47.421875 -159.171875 59.703125 -161.015625 Z M 59.703125 -120.5625 "/></g></g></g><g fill="#ffffff" fill-opacity="1"><g transform="translate(61.964836, 164.186723)"><g><path d="M 30.015625 -86.140625 C 26.640625 -86.140625 23.566406 -86.984375 20.796875 -88.671875 C 18.023438 -90.359375 15.796875 -92.613281 14.109375 -95.4375 C 12.421875 -98.257812 11.578125 -101.359375 11.578125 -104.734375 C 11.578125 -108.210938 12.421875 -111.335938 14.109375 -114.109375 C 15.796875 -116.890625 18.023438 -119.117188 20.796875 -120.796875 C 23.566406 -122.484375 26.640625 -123.328125 30.015625 -123.328125 C 33.492188 -123.328125 36.617188 -122.484375 39.390625 -120.796875 C 42.171875 -119.117188 44.398438 -116.890625 46.078125 -114.109375 C 47.765625 -111.335938 48.609375 -108.210938 48.609375 -104.734375 C 48.609375 -101.359375 47.765625 -98.257812 46.078125 -95.4375 C 44.398438 -92.613281 42.171875 -90.359375 39.390625 -88.671875 C 36.617188 -86.984375 33.492188 -86.140625 30.015625 -86.140625 Z M 8 -10.109375 C 6.46875 -20.117188 5.785156 -30.207031 5.953125 -40.375 C 6.117188 -50.539062 6.851562 -61.769531 8.15625 -74.0625 L 33.4375 -74.0625 C 32.25 -61.550781 32.25 -50.101562 33.4375 -39.71875 C 34.632812 -29.332031 36.703125 -19.460938 39.640625 -10.109375 Z M 8 -10.109375 "/></g></g></g><g fill="#ffffff" fill-opacity="1"><g transform="translate(103.234826, 164.186723)"><g><path d="M 69.5 -75.859375 C 76.675781 -75.859375 82.222656 -73.765625 86.140625 -69.578125 C 90.054688 -65.390625 92.503906 -59.734375 93.484375 -52.609375 C 94.460938 -45.484375 94.109375 -37.460938 92.421875 -28.546875 C 90.734375 -19.628906 87.847656 -10.410156 83.765625 -0.890625 C 79.691406 8.617188 74.609375 17.832031 68.515625 26.75 L 35.078125 27.078125 C 38.234375 22.617188 41.359375 17.644531 44.453125 12.15625 C 47.554688 6.664062 50.4375 1.09375 53.09375 -4.5625 C 55.757812 -10.21875 57.960938 -15.679688 59.703125 -20.953125 C 61.441406 -26.234375 62.53125 -30.992188 62.96875 -35.234375 C 63.40625 -39.472656 62.96875 -42.816406 61.65625 -45.265625 C 60.351562 -47.710938 57.910156 -48.9375 54.328125 -48.9375 C 47.910156 -48.9375 42.769531 -46.570312 38.90625 -41.84375 C 35.050781 -37.113281 33.015625 -31.210938 32.796875 -24.140625 C 33.335938 -20.878906 33.960938 -17.535156 34.671875 -14.109375 C 35.378906 -10.679688 36.273438 -7.226562 37.359375 -3.75 L 12.078125 -3.75 C 7.503906 -18.539062 4.703125 -32.132812 3.671875 -44.53125 C 2.640625 -56.9375 3.644531 -69.28125 6.6875 -81.5625 L 39.8125 -81.5625 C 38.394531 -78.195312 37.140625 -74.691406 36.046875 -71.046875 C 34.960938 -67.398438 34.039062 -63.675781 33.28125 -59.875 C 36.976562 -64.769531 41.765625 -68.710938 47.640625 -71.703125 C 53.515625 -74.691406 60.800781 -76.078125 69.5 -75.859375 Z M 69.5 -75.859375 "/></g></g></g></g></g></g><g fill="#ffffff" fill-opacity="1"><g transform="translate(18.496479, 294.398081)"><g><path d="M 40.171875 -72.734375 C 46.828125 -72.734375 52.253906 -71.601562 56.453125 -69.34375 C 60.648438 -67.082031 63.757812 -64.085938 65.78125 -60.359375 C 67.800781 -56.640625 68.8125 -52.484375 68.8125 -47.890625 C 68.8125 -42.660156 67.582031 -38.28125 65.125 -34.75 C 62.664062 -31.226562 59.316406 -28.414062 55.078125 -26.3125 C 50.835938 -24.21875 46.046875 -22.695312 40.703125 -21.75 C 35.359375 -20.800781 29.832031 -20.328125 24.125 -20.328125 C 20.40625 -20.328125 16.601562 -20.484375 12.71875 -20.796875 C 8.832031 -21.109375 4.988281 -21.546875 1.1875 -22.109375 L 1.1875 -42.421875 C 2.300781 -42.109375 3.390625 -41.8125 4.453125 -41.53125 C 5.523438 -41.257812 6.65625 -41.003906 7.84375 -40.765625 C 8.238281 -46.941406 9.878906 -52.425781 12.765625 -57.21875 C 15.660156 -62.007812 19.460938 -65.789062 24.171875 -68.5625 C 28.890625 -71.34375 34.222656 -72.734375 40.171875 -72.734375 Z M 31.84375 -37.4375 C 35.019531 -37.4375 37.914062 -37.753906 40.53125 -38.390625 C 43.144531 -39.023438 45.257812 -40.070312 46.875 -41.53125 C 48.5 -43 49.3125 -44.960938 49.3125 -47.421875 C 49.3125 -49.878906 48.28125 -51.878906 46.21875 -53.421875 C 44.164062 -54.960938 41.789062 -55.734375 39.09375 -55.734375 C 36.40625 -55.734375 34.050781 -54.921875 32.03125 -53.296875 C 30.007812 -51.671875 28.460938 -49.628906 27.390625 -47.171875 C 26.328125 -44.722656 25.796875 -42.226562 25.796875 -39.6875 C 25.796875 -39.375 25.796875 -39.054688 25.796875 -38.734375 C 25.796875 -38.421875 25.832031 -38.066406 25.90625 -37.671875 C 26.9375 -37.585938 27.945312 -37.523438 28.9375 -37.484375 C 29.925781 -37.453125 30.894531 -37.4375 31.84375 -37.4375 Z M 28.515625 -17.703125 C 31.453125 -13.429688 35.117188 -9.90625 39.515625 -7.125 C 43.910156 -4.351562 48.601562 -2.648438 53.59375 -2.015625 L 53.59375 21.15625 C 46.226562 20.363281 39.472656 18.082031 33.328125 14.3125 C 27.191406 10.550781 22.023438 5.796875 17.828125 0.046875 C 13.628906 -5.691406 10.617188 -11.925781 8.796875 -18.65625 C 11.960938 -18.257812 14.59375 -17.960938 16.6875 -17.765625 C 18.789062 -17.566406 20.753906 -17.46875 22.578125 -17.46875 C 23.523438 -17.46875 24.492188 -17.488281 25.484375 -17.53125 C 26.484375 -17.570312 27.492188 -17.628906 28.515625 -17.703125 Z M 28.515625 -17.703125 "/></g></g></g><g fill="#ffffff" fill-opacity="1"><g transform="translate(89.804703, 294.398081)"><g><path d="M 81.765625 -105.765625 C 86.753906 -99.273438 90.179688 -92.582031 92.046875 -85.6875 C 93.910156 -78.789062 94.644531 -71.972656 94.25 -65.234375 C 93.851562 -58.503906 92.660156 -52.085938 90.671875 -45.984375 C 88.691406 -39.890625 86.273438 -34.40625 83.421875 -29.53125 C 80.578125 -24.65625 77.726562 -20.632812 74.875 -17.46875 C 75.738281 -14.769531 76.390625 -11.9375 76.828125 -8.96875 C 77.265625 -6 77.484375 -3.007812 77.484375 0 L 53.953125 0 C 54.109375 -4.039062 53.671875 -8.097656 52.640625 -12.171875 C 51.617188 -16.253906 50.15625 -20 48.25 -23.40625 C 46.34375 -26.8125 44.039062 -29.566406 41.34375 -31.671875 C 38.65625 -33.773438 35.6875 -34.828125 32.4375 -34.828125 C 28.800781 -34.828125 25.890625 -33.972656 23.703125 -32.265625 C 21.523438 -30.566406 20.4375 -28.328125 20.4375 -25.546875 C 20.4375 -22.859375 21.523438 -20.640625 23.703125 -18.890625 C 25.890625 -17.148438 28.800781 -16.28125 32.4375 -16.28125 C 37.195312 -16.28125 41.875 -17.585938 46.46875 -20.203125 C 47.65625 -17.828125 48.664062 -15.210938 49.5 -12.359375 C 50.332031 -9.503906 50.867188 -6.535156 51.109375 -3.453125 C 43.972656 -0.910156 37.59375 0.359375 31.96875 0.359375 C 26.03125 0.359375 20.742188 -0.847656 16.109375 -3.265625 C 11.472656 -5.679688 7.828125 -8.847656 5.171875 -12.765625 C 2.515625 -16.691406 1.1875 -20.953125 1.1875 -25.546875 C 1.1875 -30.140625 2.515625 -34.394531 5.171875 -38.3125 C 7.828125 -42.238281 11.472656 -45.390625 16.109375 -47.765625 C 20.742188 -50.148438 26.03125 -51.34375 31.96875 -51.34375 C 38.625 -51.34375 44.703125 -49.992188 50.203125 -47.296875 C 55.710938 -44.609375 60.445312 -40.960938 64.40625 -36.359375 C 67.257812 -40.796875 69.160156 -45.609375 70.109375 -50.796875 C 71.066406 -55.992188 71.25 -61.242188 70.65625 -66.546875 C 70.0625 -71.859375 68.769531 -77.007812 66.78125 -82 C 64.800781 -86.988281 62.25 -91.539062 59.125 -95.65625 C 56 -99.78125 52.414062 -103.191406 48.375 -105.890625 Z M 81.765625 -105.765625 "/></g></g></g><g fill="#ffffff" fill-opacity="1"><g transform="translate(176.56305, 294.398081)"><g><path d="M 72.015625 -52.640625 C 68.691406 -45.597656 66.929688 -37.9375 66.734375 -29.65625 C 66.535156 -21.375 68.097656 -12.359375 71.421875 -2.609375 L 53 -2.609375 C 52.207031 -4.910156 51.472656 -7.148438 50.796875 -9.328125 C 50.128906 -11.503906 49.519531 -13.625 48.96875 -15.6875 C 46.425781 -11.726562 42.835938 -8.441406 38.203125 -5.828125 C 33.566406 -3.210938 27.566406 -1.984375 20.203125 -2.140625 C 14.578125 -2.140625 10.316406 -3.679688 7.421875 -6.765625 C 4.535156 -9.859375 2.894531 -14.019531 2.5 -19.25 C 2.101562 -24.476562 2.796875 -30.28125 4.578125 -36.65625 C 6.359375 -43.039062 9.070312 -49.476562 12.71875 -55.96875 L 36.609375 -55.96875 C 34.066406 -51.769531 31.785156 -47.507812 29.765625 -43.1875 C 27.742188 -38.875 26.316406 -34.9375 25.484375 -31.375 C 24.660156 -27.8125 24.644531 -24.9375 25.4375 -22.75 C 26.226562 -20.570312 28.164062 -19.484375 31.25 -19.484375 C 35.050781 -19.484375 38.21875 -20.515625 40.75 -22.578125 C 43.289062 -24.640625 45.078125 -27.253906 46.109375 -30.421875 C 45.796875 -34.148438 45.753906 -37.851562 45.984375 -41.53125 C 46.222656 -45.21875 46.859375 -48.921875 47.890625 -52.640625 Z M 72.015625 -52.640625 "/></g></g></g></g></g></svg>