<svg xmlns="http://www.w3.org/2000/svg" xmlns:xlink="http://www.w3.org/1999/xlink" width="500" zoomAndPan="magnify" viewBox="0 0 375 374.999991" height="500" preserveAspectRatio="xMidYMid meet" version="1.0"><defs><g/><clipPath id="9e05aba0cb"><path d="M 0.398438 0.28125 L 129 0.28125 L 129 174 L 0.398438 174 Z M 0.398438 0.28125 " clip-rule="nonzero"/></clipPath><clipPath id="85060ef735"><rect x="0" width="129" y="0" height="174"/></clipPath><clipPath id="c290372fac"><rect x="0" width="159" y="0" height="237"/></clipPath><clipPath id="aad266dbfd"><path d="M 215.253906 85.574219 L 345.003906 85.574219 L 345.003906 215.324219 L 215.253906 215.324219 Z M 215.253906 85.574219 " clip-rule="nonzero"/></clipPath></defs><rect x="-37.5" width="450" fill="#ffffff" y="-37.499999" height="449.999989" fill-opacity="1"/><rect x="-37.5" width="450" fill="#f8f6e9" y="-37.499999" height="449.999989" fill-opacity="1"/><g transform="matrix(1, 0, 0, 1, 86, 71)"><g clip-path="url(#c290372fac)"><g clip-path="url(#9e05aba0cb)"><g><g clip-path="url(#85060ef735)"><g fill="#3c503d" fill-opacity="1"><g transform="translate(1.272115, 101.732995)"><g><path d="M 37.34375 -75.40625 C 30.40625 -73.695312 25.488281 -70.703125 22.59375 -66.421875 C 19.707031 -62.140625 17.992188 -56.734375 17.453125 -50.203125 C 22.140625 -50.203125 25.757812 -50.203125 28.3125 -50.203125 C 30.863281 -50.203125 32.679688 -50.203125 33.765625 -50.203125 C 34.859375 -50.203125 35.523438 -50.179688 35.765625 -50.140625 C 36.003906 -50.109375 36.125 -50.09375 36.125 -50.09375 L 36.125 -35.5 C 35.84375 -35.4375 34.71875 -35.367188 32.75 -35.296875 C 30.78125 -35.234375 28.414062 -35.179688 25.65625 -35.140625 C 22.90625 -35.109375 20.171875 -35.09375 17.453125 -35.09375 C 17.515625 -34.207031 17.578125 -33.320312 17.640625 -32.4375 C 17.710938 -31.5625 17.785156 -30.644531 17.859375 -29.6875 C 18.191406 -25.945312 18.785156 -21.796875 19.640625 -17.234375 C 20.492188 -12.679688 21.566406 -8.226562 22.859375 -3.875 C 24.148438 0.476562 25.539062 4.320312 27.03125 7.65625 L 8.875 7.65625 C 7.925781 5.34375 7.007812 2.601562 6.125 -0.5625 C 5.238281 -3.726562 4.453125 -7.0625 3.765625 -10.5625 C 3.085938 -14.0625 2.507812 -17.476562 2.03125 -20.8125 C 1.5625 -24.144531 1.222656 -27.140625 1.015625 -29.796875 C 0.265625 -39.316406 0.296875 -48.125 1.109375 -56.21875 C 1.929688 -64.3125 3.71875 -71.488281 6.46875 -77.75 C 9.226562 -84.007812 13.140625 -89.109375 18.203125 -93.046875 C 23.273438 -96.992188 29.65625 -99.546875 37.34375 -100.703125 Z M 37.34375 -75.40625 "/></g></g></g><g fill="#3c503d" fill-opacity="1"><g transform="translate(38.616988, 101.732995)"><g><path d="M 18.78125 -53.875 C 16.664062 -53.875 14.738281 -54.398438 13 -55.453125 C 11.269531 -56.503906 9.878906 -57.914062 8.828125 -59.6875 C 7.773438 -61.457031 7.25 -63.394531 7.25 -65.5 C 7.25 -67.675781 7.773438 -69.628906 8.828125 -71.359375 C 9.878906 -73.097656 11.269531 -74.492188 13 -75.546875 C 14.738281 -76.609375 16.664062 -77.140625 18.78125 -77.140625 C 20.945312 -77.140625 22.898438 -76.609375 24.640625 -75.546875 C 26.378906 -74.492188 27.773438 -73.097656 28.828125 -71.359375 C 29.878906 -69.628906 30.40625 -67.675781 30.40625 -65.5 C 30.40625 -63.394531 29.878906 -61.457031 28.828125 -59.6875 C 27.773438 -57.914062 26.378906 -56.503906 24.640625 -55.453125 C 22.898438 -54.398438 20.945312 -53.875 18.78125 -53.875 Z M 5 -6.328125 C 4.050781 -12.585938 3.625 -18.894531 3.71875 -25.25 C 3.820312 -31.613281 4.28125 -38.640625 5.09375 -46.328125 L 20.921875 -46.328125 C 20.171875 -38.503906 20.164062 -31.34375 20.90625 -24.84375 C 21.65625 -18.34375 22.953125 -12.171875 24.796875 -6.328125 Z M 5 -6.328125 "/></g></g></g><g fill="#3c503d" fill-opacity="1"><g transform="translate(64.431882, 101.732995)"><g><path d="M 43.46875 -47.4375 C 47.957031 -47.4375 51.425781 -46.128906 53.875 -43.515625 C 56.320312 -40.898438 57.847656 -37.363281 58.453125 -32.90625 C 59.066406 -28.445312 58.847656 -23.425781 57.796875 -17.84375 C 56.742188 -12.269531 54.941406 -6.507812 52.390625 -0.5625 C 49.835938 5.382812 46.660156 11.148438 42.859375 16.734375 L 21.9375 16.9375 C 23.90625 14.144531 25.859375 11.03125 27.796875 7.59375 C 29.742188 4.164062 31.546875 0.6875 33.203125 -2.84375 C 34.867188 -6.382812 36.242188 -9.804688 37.328125 -13.109375 C 38.421875 -16.410156 39.101562 -19.382812 39.375 -22.03125 C 39.65625 -24.6875 39.382812 -26.78125 38.5625 -28.3125 C 37.75 -29.84375 36.21875 -30.609375 33.96875 -30.609375 C 29.957031 -30.609375 26.742188 -29.128906 24.328125 -26.171875 C 21.921875 -23.210938 20.648438 -19.519531 20.515625 -15.09375 C 20.847656 -13.0625 21.234375 -10.972656 21.671875 -8.828125 C 22.117188 -6.679688 22.679688 -4.519531 23.359375 -2.34375 L 7.546875 -2.34375 C 4.691406 -11.59375 2.941406 -20.09375 2.296875 -27.84375 C 1.648438 -35.601562 2.28125 -43.328125 4.1875 -51.015625 L 24.890625 -51.015625 C 24.003906 -48.910156 23.222656 -46.71875 22.546875 -44.4375 C 21.867188 -42.15625 21.289062 -39.828125 20.8125 -37.453125 C 23.125 -40.503906 26.113281 -42.96875 29.78125 -44.84375 C 33.457031 -46.71875 38.019531 -47.582031 43.46875 -47.4375 Z M 43.46875 -47.4375 "/></g></g></g></g></g></g><g fill="#3c503d" fill-opacity="1"><g transform="translate(11.428755, 183.088191)"><g><path d="M 25.125 -45.484375 C 29.28125 -45.484375 32.671875 -44.773438 35.296875 -43.359375 C 37.929688 -41.953125 39.878906 -40.082031 41.140625 -37.75 C 42.398438 -35.425781 43.03125 -32.828125 43.03125 -29.953125 C 43.03125 -26.679688 42.257812 -23.941406 40.71875 -21.734375 C 39.1875 -19.535156 37.09375 -17.78125 34.4375 -16.46875 C 31.789062 -15.15625 28.796875 -14.195312 25.453125 -13.59375 C 22.109375 -13 18.65625 -12.703125 15.09375 -12.703125 C 12.757812 -12.703125 10.378906 -12.800781 7.953125 -13 C 5.523438 -13.207031 3.125 -13.484375 0.75 -13.828125 L 0.75 -26.53125 C 1.4375 -26.332031 2.113281 -26.144531 2.78125 -25.96875 C 3.457031 -25.800781 4.164062 -25.644531 4.90625 -25.5 C 5.15625 -29.363281 6.179688 -32.789062 7.984375 -35.78125 C 9.796875 -38.78125 12.175781 -41.144531 15.125 -42.875 C 18.070312 -44.613281 21.40625 -45.484375 25.125 -45.484375 Z M 19.921875 -23.40625 C 21.898438 -23.40625 23.707031 -23.601562 25.34375 -24 C 26.976562 -24.40625 28.300781 -25.066406 29.3125 -25.984375 C 30.332031 -26.898438 30.84375 -28.125 30.84375 -29.65625 C 30.84375 -31.195312 30.195312 -32.445312 28.90625 -33.40625 C 27.625 -34.375 26.140625 -34.859375 24.453125 -34.859375 C 22.765625 -34.859375 21.289062 -34.347656 20.03125 -33.328125 C 18.769531 -32.316406 17.800781 -31.039062 17.125 -29.5 C 16.457031 -27.96875 16.125 -26.410156 16.125 -24.828125 C 16.125 -24.628906 16.125 -24.429688 16.125 -24.234375 C 16.125 -24.035156 16.148438 -23.8125 16.203125 -23.5625 C 16.847656 -23.507812 17.476562 -23.46875 18.09375 -23.4375 C 18.71875 -23.414062 19.328125 -23.40625 19.921875 -23.40625 Z M 17.84375 -11.078125 C 19.675781 -8.398438 21.96875 -6.191406 24.71875 -4.453125 C 27.46875 -2.722656 30.398438 -1.660156 33.515625 -1.265625 L 33.515625 13.234375 C 28.910156 12.734375 24.6875 11.304688 20.84375 8.953125 C 17.007812 6.597656 13.773438 3.625 11.140625 0.03125 C 8.515625 -3.5625 6.632812 -7.460938 5.5 -11.671875 C 7.476562 -11.421875 9.125 -11.234375 10.4375 -11.109375 C 11.75 -10.984375 12.976562 -10.921875 14.125 -10.921875 C 14.71875 -10.921875 15.320312 -10.929688 15.9375 -10.953125 C 16.5625 -10.984375 17.195312 -11.023438 17.84375 -11.078125 Z M 17.84375 -11.078125 "/></g></g></g><g fill="#3c503d" fill-opacity="1"><g transform="translate(56.029187, 183.088191)"><g><path d="M 51.140625 -66.15625 C 54.265625 -62.09375 56.40625 -57.90625 57.5625 -53.59375 C 58.726562 -49.28125 59.1875 -45.015625 58.9375 -40.796875 C 58.695312 -36.585938 57.957031 -32.578125 56.71875 -28.765625 C 55.476562 -24.953125 53.960938 -21.519531 52.171875 -18.46875 C 50.390625 -15.425781 48.609375 -12.910156 46.828125 -10.921875 C 47.367188 -9.242188 47.773438 -7.472656 48.046875 -5.609375 C 48.328125 -3.753906 48.46875 -1.882812 48.46875 0 L 33.75 0 C 33.84375 -2.53125 33.566406 -5.070312 32.921875 -7.625 C 32.285156 -10.175781 31.367188 -12.515625 30.171875 -14.640625 C 28.984375 -16.773438 27.546875 -18.5 25.859375 -19.8125 C 24.179688 -21.125 22.328125 -21.78125 20.296875 -21.78125 C 18.015625 -21.78125 16.191406 -21.242188 14.828125 -20.171875 C 13.460938 -19.109375 12.78125 -17.710938 12.78125 -15.984375 C 12.78125 -14.296875 13.460938 -12.90625 14.828125 -11.8125 C 16.191406 -10.726562 18.015625 -10.1875 20.296875 -10.1875 C 23.265625 -10.1875 26.1875 -11.003906 29.0625 -12.640625 C 29.800781 -11.148438 30.429688 -9.507812 30.953125 -7.71875 C 31.472656 -5.9375 31.8125 -4.082031 31.96875 -2.15625 C 27.5 -0.570312 23.507812 0.21875 20 0.21875 C 16.28125 0.21875 12.96875 -0.535156 10.0625 -2.046875 C 7.164062 -3.554688 4.890625 -5.535156 3.234375 -7.984375 C 1.578125 -10.441406 0.75 -13.109375 0.75 -15.984375 C 0.75 -18.859375 1.578125 -21.519531 3.234375 -23.96875 C 4.890625 -26.425781 7.164062 -28.394531 10.0625 -29.875 C 12.96875 -31.363281 16.28125 -32.109375 20 -32.109375 C 24.15625 -32.109375 27.953125 -31.265625 31.390625 -29.578125 C 34.835938 -27.898438 37.800781 -25.625 40.28125 -22.75 C 42.070312 -25.519531 43.265625 -28.523438 43.859375 -31.765625 C 44.453125 -35.015625 44.5625 -38.300781 44.1875 -41.625 C 43.8125 -44.945312 43.003906 -48.164062 41.765625 -51.28125 C 40.535156 -54.40625 38.941406 -57.253906 36.984375 -59.828125 C 35.023438 -62.410156 32.78125 -64.539062 30.25 -66.21875 Z M 51.140625 -66.15625 "/></g></g></g><g fill="#3c503d" fill-opacity="1"><g transform="translate(110.293052, 183.088191)"><g><path d="M 45.046875 -32.921875 C 42.960938 -28.515625 41.859375 -23.722656 41.734375 -18.546875 C 41.609375 -13.367188 42.585938 -7.734375 44.671875 -1.640625 L 33.15625 -1.640625 C 32.65625 -3.078125 32.191406 -4.472656 31.765625 -5.828125 C 31.347656 -7.191406 30.96875 -8.519531 30.625 -9.8125 C 29.039062 -7.332031 26.796875 -5.273438 23.890625 -3.640625 C 20.992188 -2.003906 17.242188 -1.238281 12.640625 -1.34375 C 9.117188 -1.34375 6.453125 -2.304688 4.640625 -4.234375 C 2.835938 -6.171875 1.8125 -8.773438 1.5625 -12.046875 C 1.3125 -15.316406 1.742188 -18.941406 2.859375 -22.921875 C 3.972656 -26.910156 5.671875 -30.941406 7.953125 -35.015625 L 22.890625 -35.015625 C 21.304688 -32.378906 19.878906 -29.710938 18.609375 -27.015625 C 17.347656 -24.316406 16.457031 -21.851562 15.9375 -19.625 C 15.414062 -17.394531 15.40625 -15.597656 15.90625 -14.234375 C 16.40625 -12.867188 17.617188 -12.1875 19.546875 -12.1875 C 21.921875 -12.1875 23.898438 -12.832031 25.484375 -14.125 C 27.078125 -15.414062 28.195312 -17.050781 28.84375 -19.03125 C 28.644531 -21.351562 28.617188 -23.664062 28.765625 -25.96875 C 28.910156 -28.28125 29.304688 -30.597656 29.953125 -32.921875 Z M 45.046875 -32.921875 "/></g></g></g></g></g><g clip-path="url(#aad266dbfd)"><path fill="#3c503d" d="M 272.742188 85.574219 Z M 264.683594 124.722656 C 265.183594 124.921875 265.726562 125.082031 266.3125 125.191406 L 265.601562 126.960938 C 265.21875 127.910156 265.679688 128.988281 266.628906 129.367188 C 267.578125 129.75 268.660156 129.289062 269.039062 128.339844 L 270.105469 125.6875 L 270.480469 125.734375 C 272.558594 126 274.703125 125.59375 276.476562 124.726562 C 278.34375 123.820312 279.855469 122.378906 280.558594 120.628906 C 280.746094 120.160156 280.871094 119.675781 280.933594 119.195312 L 280.933594 119.1875 C 281.101562 117.847656 280.765625 116.574219 280.023438 115.492188 C 279.332031 114.488281 278.285156 113.664062 276.972656 113.136719 C 276.3125 112.871094 275.570312 112.679688 274.761719 112.574219 L 271.179688 112.121094 C 270.707031 112.0625 270.269531 111.949219 269.882812 111.792969 C 269.261719 111.542969 268.785156 111.1875 268.503906 110.773438 C 268.273438 110.433594 268.164062 110.042969 268.21875 109.636719 L 268.222656 109.632812 C 268.242188 109.464844 268.289062 109.289062 268.355469 109.117188 C 268.699219 108.261719 269.546875 107.503906 270.625 106.976562 C 271.800781 106.40625 273.191406 106.136719 274.53125 106.304688 L 276.222656 106.519531 C 276.292969 106.53125 276.355469 106.539062 276.425781 106.542969 L 278.117188 106.757812 C 278.589844 106.816406 279.023438 106.929688 279.414062 107.085938 C 280.035156 107.335938 280.507812 107.695312 280.792969 108.109375 C 281.023438 108.441406 281.132812 108.835938 281.078125 109.242188 C 281.058594 109.402344 281.011719 109.578125 280.9375 109.761719 C 280.554688 110.710938 281.015625 111.789062 281.964844 112.171875 C 282.914062 112.550781 283.996094 112.089844 284.375 111.140625 C 284.5625 110.667969 284.6875 110.1875 284.75 109.707031 L 284.75 109.699219 C 284.917969 108.359375 284.582031 107.085938 283.839844 106.007812 C 283.144531 105.003906 282.101562 104.179688 280.789062 103.652344 C 280.289062 103.449219 279.746094 103.289062 279.160156 103.179688 L 279.875 101.410156 C 280.253906 100.460938 279.792969 99.378906 278.84375 99 C 277.894531 98.621094 276.8125 99.082031 276.433594 100.03125 L 275.363281 102.683594 L 274.980469 102.632812 C 272.902344 102.375 270.765625 102.777344 268.992188 103.640625 C 267.125 104.550781 265.613281 105.992188 264.90625 107.742188 C 264.710938 108.222656 264.585938 108.707031 264.535156 109.183594 C 264.363281 110.527344 264.703125 111.796875 265.445312 112.878906 C 266.136719 113.882812 267.183594 114.710938 268.492188 115.234375 C 269.15625 115.503906 269.898438 115.695312 270.703125 115.796875 L 274.289062 116.246094 C 274.761719 116.304688 275.195312 116.417969 275.585938 116.574219 C 276.207031 116.824219 276.679688 117.183594 276.964844 117.597656 C 277.195312 117.929688 277.300781 118.324219 277.25 118.730469 C 277.230469 118.890625 277.183594 119.066406 277.105469 119.25 C 276.761719 120.109375 275.917969 120.867188 274.839844 121.390625 C 273.664062 121.964844 272.265625 122.234375 270.929688 122.066406 L 269.242188 121.855469 C 269.171875 121.839844 269.105469 121.832031 269.03125 121.828125 L 267.347656 121.613281 C 266.875 121.554688 266.4375 121.441406 266.046875 121.285156 C 265.429688 121.035156 264.957031 120.675781 264.671875 120.265625 C 264.441406 119.929688 264.332031 119.535156 264.382812 119.128906 C 264.402344 118.972656 264.453125 118.796875 264.527344 118.609375 C 264.90625 117.660156 264.445312 116.582031 263.496094 116.203125 C 262.546875 115.820312 261.46875 116.28125 261.089844 117.230469 C 260.898438 117.703125 260.777344 118.183594 260.714844 118.664062 L 260.714844 118.671875 C 260.546875 120.011719 260.878906 121.285156 261.625 122.363281 C 262.328125 123.367188 263.375 124.195312 264.683594 124.722656 Z M 272.742188 93.027344 Z M 224.035156 114.183594 C 224.035156 108.03125 229.722656 102.609375 238.910156 98.824219 C 247.605469 95.242188 259.570312 93.023438 272.742188 93.023438 C 285.914062 93.023438 297.878906 95.242188 306.574219 98.824219 C 315.761719 102.609375 321.445312 108.03125 321.445312 114.183594 C 321.445312 120.335938 315.761719 125.757812 306.574219 129.542969 C 297.878906 133.125 285.914062 135.339844 272.742188 135.339844 C 259.570312 135.339844 247.605469 133.125 238.910156 129.542969 C 229.722656 125.757812 224.035156 120.335938 224.035156 114.183594 Z M 227.75 114.183594 C 227.75 118.6875 232.550781 122.921875 240.316406 126.117188 C 248.578125 129.523438 260.039062 131.625 272.742188 131.625 C 285.445312 131.625 296.90625 129.519531 305.164062 126.117188 C 312.929688 122.921875 317.734375 118.6875 317.734375 114.183594 C 317.734375 109.675781 312.929688 105.445312 305.164062 102.246094 C 296.90625 98.84375 285.445312 96.742188 272.742188 96.742188 C 260.039062 96.742188 248.578125 98.847656 240.316406 102.246094 C 232.550781 105.445312 227.75 109.675781 227.75 114.183594 Z M 345.273438 140.539062 L 345.273438 160.628906 C 345.273438 165.304688 343.09375 169.6875 339.214844 173.550781 C 339.128906 173.652344 339.03125 173.75 338.925781 173.835938 C 338.132812 174.601562 337.273438 175.347656 336.347656 176.070312 L 336.351562 186.988281 C 336.351562 195.144531 329.71875 202.417969 319 207.570312 C 308.691406 212.53125 294.496094 215.59375 278.867188 215.59375 C 263.234375 215.59375 249.039062 212.527344 238.730469 207.570312 C 228.011719 202.414062 221.378906 195.144531 221.378906 186.988281 L 221.378906 166.898438 C 221.378906 166.898438 221.378906 166.898438 221.378906 166.894531 C 221.378906 163.949219 222.253906 161.105469 223.878906 158.425781 C 225.089844 156.4375 226.714844 154.546875 228.703125 152.78125 C 225.957031 151.164062 223.566406 149.386719 221.597656 147.476562 C 221.496094 147.394531 221.398438 147.300781 221.316406 147.199219 C 217.433594 143.335938 215.253906 138.953125 215.253906 134.277344 L 215.253906 114.183594 C 215.253906 106.023438 221.886719 98.757812 232.605469 93.597656 C 242.914062 88.644531 257.109375 85.574219 272.742188 85.574219 C 288.375 85.574219 302.566406 88.644531 312.875 93.601562 C 323.59375 98.757812 330.226562 106.027344 330.226562 114.1875 L 330.226562 121.136719 C 334.738281 123.570312 338.394531 126.40625 340.964844 129.535156 C 343.746094 132.910156 345.273438 136.625 345.273438 140.539062 Z M 330.226562 125.382812 L 330.226562 129.96875 C 332.070312 131.382812 333.546875 132.910156 334.597656 134.535156 C 335.832031 136.433594 336.488281 138.449219 336.488281 140.539062 C 336.488281 146.578125 331.027344 151.90625 322.15625 155.675781 C 313.78125 159.230469 302.226562 161.5 289.417969 161.675781 C 289.339844 161.6875 289.253906 161.699219 289.167969 161.710938 C 289.011719 161.734375 288.859375 161.757812 288.703125 161.78125 C 288.050781 161.871094 287.394531 161.957031 286.734375 162.039062 C 286.6875 162.046875 286.636719 162.050781 286.589844 162.058594 C 286.585938 162.058594 286.582031 162.058594 286.578125 162.058594 C 286.570312 162.058594 286.558594 162.0625 286.546875 162.0625 C 286.460938 162.070312 286.375 162.082031 286.289062 162.089844 C 285.703125 162.160156 285.121094 162.226562 284.527344 162.285156 C 284.429688 162.296875 284.332031 162.304688 284.234375 162.316406 C 283.5625 162.382812 282.886719 162.441406 282.207031 162.496094 C 282.140625 162.503906 282.078125 162.511719 282.011719 162.515625 C 281.910156 162.519531 281.808594 162.53125 281.707031 162.535156 C 281.480469 162.554688 281.261719 162.570312 281.035156 162.585938 C 280.933594 162.59375 280.828125 162.597656 280.726562 162.605469 C 278.113281 162.785156 275.449219 162.878906 272.742188 162.878906 C 270.054688 162.878906 267.40625 162.785156 264.816406 162.609375 C 264.683594 162.597656 264.546875 162.59375 264.417969 162.582031 C 264.210938 162.570312 264.007812 162.554688 263.800781 162.535156 C 263.691406 162.527344 263.578125 162.519531 263.46875 162.511719 L 262.96875 162.46875 C 262.84375 162.460938 262.71875 162.449219 262.59375 162.4375 L 262.351562 162.417969 C 262.410156 162.433594 262.46875 162.449219 262.53125 162.460938 C 263.085938 162.601562 263.648438 162.738281 264.214844 162.867188 C 264.214844 162.867188 264.21875 162.867188 264.21875 162.867188 C 264.605469 162.957031 265 163.042969 265.390625 163.128906 C 265.441406 163.136719 265.488281 163.148438 265.539062 163.160156 C 268.347656 163.761719 271.285156 164.253906 274.324219 164.625 C 274.34375 164.628906 274.359375 164.628906 274.378906 164.628906 C 278.667969 165.148438 283.15625 165.425781 287.789062 165.425781 C 292.402344 165.425781 296.875 165.152344 301.152344 164.636719 C 301.191406 164.628906 301.230469 164.628906 301.273438 164.625 C 303.070312 164.40625 304.835938 164.144531 306.554688 163.84375 C 307.730469 163.640625 308.882812 163.410156 310.015625 163.171875 C 310.085938 163.152344 310.15625 163.136719 310.234375 163.125 C 310.234375 163.125 310.242188 163.121094 310.246094 163.121094 C 311.453125 162.863281 312.636719 162.578125 313.792969 162.277344 C 315.539062 161.820312 317.226562 161.320312 318.851562 160.777344 C 318.945312 160.734375 319.046875 160.703125 319.152344 160.675781 C 321.714844 159.808594 324.117188 158.839844 326.324219 157.78125 C 326.789062 157.558594 327.246094 157.328125 327.695312 157.09375 C 327.785156 157.039062 327.882812 156.988281 327.984375 156.945312 C 331.316406 155.195312 334.132812 153.234375 336.324219 151.121094 C 336.414062 151.015625 336.511719 150.917969 336.621094 150.828125 C 339.78125 147.671875 341.554688 144.179688 341.554688 140.535156 C 341.554688 137.507812 340.328125 134.582031 338.105469 131.878906 C 336.179688 129.535156 333.507812 127.347656 330.226562 125.382812 Z M 324.773438 126.484375 C 324.710938 126.550781 324.644531 126.617188 324.582031 126.683594 L 324.582031 140.800781 C 324.695312 140.621094 324.796875 140.441406 324.894531 140.257812 C 324.960938 140.136719 325.023438 140.019531 325.085938 139.898438 C 325.125 139.820312 325.164062 139.746094 325.199219 139.667969 C 325.277344 139.507812 325.355469 139.351562 325.421875 139.191406 C 325.4375 139.160156 325.453125 139.128906 325.46875 139.09375 C 325.542969 138.925781 325.609375 138.753906 325.679688 138.585938 C 325.6875 138.554688 325.703125 138.527344 325.710938 138.5 C 325.777344 138.332031 325.839844 138.160156 325.894531 137.984375 C 325.902344 137.953125 325.917969 137.921875 325.925781 137.886719 C 325.980469 137.71875 326.03125 137.554688 326.074219 137.386719 C 326.089844 137.34375 326.097656 137.300781 326.109375 137.253906 C 326.152344 137.097656 326.191406 136.941406 326.226562 136.785156 C 326.242188 136.726562 326.253906 136.667969 326.265625 136.609375 C 326.292969 136.464844 326.324219 136.320312 326.347656 136.175781 C 326.363281 136.09375 326.371094 136.015625 326.382812 135.933594 C 326.402344 135.808594 326.421875 135.679688 326.4375 135.554688 C 326.449219 135.445312 326.457031 135.335938 326.464844 135.226562 C 326.476562 135.125 326.484375 135.023438 326.492188 134.921875 C 326.5 134.730469 326.507812 134.542969 326.507812 134.355469 C 326.507812 134.328125 326.511719 134.304688 326.511719 134.28125 L 326.511719 124.441406 C 326.472656 124.492188 326.429688 124.546875 326.386719 124.597656 C 326.261719 124.761719 326.128906 124.929688 325.996094 125.09375 C 325.933594 125.171875 325.867188 125.246094 325.800781 125.324219 C 325.671875 125.480469 325.539062 125.640625 325.398438 125.792969 C 325.332031 125.871094 325.257812 125.953125 325.1875 126.03125 C 325.054688 126.179688 324.914062 126.332031 324.773438 126.484375 Z M 284.121094 158.601562 C 284.253906 158.585938 284.386719 158.570312 284.515625 158.558594 L 284.515625 142.199219 C 282.753906 142.378906 280.957031 142.519531 279.136719 142.617188 L 279.136719 158.992188 C 279.742188 158.957031 280.347656 158.917969 280.949219 158.875 C 281.042969 158.871094 281.140625 158.863281 281.234375 158.855469 C 281.46875 158.839844 281.703125 158.820312 281.9375 158.800781 C 282.59375 158.746094 283.242188 158.6875 283.890625 158.625 C 283.96875 158.617188 284.042969 158.605469 284.121094 158.601562 Z M 264.460938 158.875 C 265.082031 158.917969 265.710938 158.957031 266.339844 158.992188 L 266.339844 142.621094 C 264.519531 142.523438 262.726562 142.378906 260.964844 142.203125 L 260.964844 158.5625 C 261.074219 158.570312 261.179688 158.585938 261.285156 158.597656 C 261.398438 158.605469 261.507812 158.621094 261.617188 158.632812 C 262.238281 158.695312 262.867188 158.75 263.496094 158.800781 C 263.78125 158.824219 264.066406 158.847656 264.351562 158.871094 C 264.386719 158.867188 264.425781 158.871094 264.460938 158.875 Z M 312.363281 166.449219 L 312.363281 182.730469 C 314.222656 182.285156 316.015625 181.78125 317.738281 181.238281 L 317.738281 165.015625 C 316.003906 165.539062 314.214844 166.019531 312.363281 166.449219 Z M 321.449219 163.804688 L 321.449219 179.960938 C 323.164062 179.3125 324.789062 178.621094 326.324219 177.882812 C 326.492188 177.800781 326.65625 177.714844 326.824219 177.636719 L 326.824219 161.636719 C 325.128906 162.410156 323.335938 163.136719 321.449219 163.804688 Z M 308.648438 167.230469 C 306.898438 167.566406 305.101562 167.859375 303.273438 168.113281 L 303.273438 184.457031 C 305.105469 184.199219 306.902344 183.894531 308.648438 183.546875 Z M 299.5625 184.917969 L 299.5625 168.558594 C 297.800781 168.734375 296.003906 168.878906 294.1875 168.976562 L 294.1875 185.347656 C 296.007812 185.246094 297.800781 185.101562 299.5625 184.917969 Z M 287.785156 169.148438 C 286.882812 169.148438 285.988281 169.136719 285.097656 169.117188 L 285.097656 185.480469 C 285.816406 185.5 286.535156 185.515625 287.25 185.523438 C 287.429688 185.523438 287.605469 185.527344 287.785156 185.527344 C 288.683594 185.527344 289.582031 185.519531 290.472656 185.496094 L 290.472656 169.121094 C 289.582031 169.140625 288.6875 169.148438 287.785156 169.148438 Z M 315.945312 133.167969 C 315.792969 133.253906 315.644531 133.335938 315.492188 133.417969 L 315.492188 149.234375 C 316.226562 148.785156 316.933594 148.324219 317.601562 147.859375 C 318.804688 147.011719 319.894531 146.136719 320.867188 145.230469 L 320.867188 129.957031 C 320.855469 129.96875 320.84375 129.976562 320.832031 129.984375 C 320.765625 130.035156 320.691406 130.085938 320.625 130.136719 C 320.417969 130.289062 320.210938 130.445312 319.996094 130.59375 C 319.898438 130.664062 319.800781 130.734375 319.699219 130.804688 C 319.511719 130.9375 319.324219 131.070312 319.132812 131.195312 C 319.019531 131.273438 318.902344 131.347656 318.789062 131.425781 C 318.605469 131.546875 318.425781 131.667969 318.234375 131.789062 C 318.113281 131.867188 317.988281 131.945312 317.863281 132.023438 C 317.679688 132.136719 317.496094 132.253906 317.304688 132.367188 C 317.175781 132.445312 317.046875 132.523438 316.914062 132.601562 C 316.722656 132.71875 316.53125 132.828125 316.339844 132.9375 C 316.210938 133.019531 316.082031 133.09375 315.945312 133.167969 Z M 311.78125 135.28125 C 310.082031 136.054688 308.289062 136.78125 306.402344 137.449219 L 306.402344 153.597656 C 307.136719 153.320312 307.867188 153.03125 308.589844 152.726562 C 309.691406 152.261719 310.757812 151.777344 311.777344 151.273438 L 311.777344 135.28125 Z M 302.691406 138.664062 C 300.960938 139.183594 299.164062 139.660156 297.316406 140.09375 L 297.316406 156.375 C 298.09375 156.1875 298.867188 155.988281 299.636719 155.777344 L 299.742188 155.753906 C 299.785156 155.742188 299.828125 155.730469 299.867188 155.722656 C 300.496094 155.546875 301.125 155.367188 301.742188 155.179688 C 301.816406 155.15625 301.894531 155.132812 301.96875 155.109375 C 302.214844 155.035156 302.449219 154.957031 302.6875 154.878906 L 302.6875 138.664062 Z M 293.601562 140.875 C 291.851562 141.210938 290.058594 141.507812 288.226562 141.757812 L 288.226562 158.101562 C 288.398438 158.078125 288.574219 158.054688 288.746094 158.027344 C 288.910156 158.003906 289.070312 157.980469 289.226562 157.957031 C 289.472656 157.921875 289.714844 157.882812 289.957031 157.84375 C 290.121094 157.816406 290.289062 157.792969 290.453125 157.761719 C 290.582031 157.738281 290.714844 157.714844 290.847656 157.695312 C 291.773438 157.539062 292.691406 157.367188 293.601562 157.1875 Z M 275.425781 159.136719 L 275.425781 142.761719 C 274.535156 142.78125 273.640625 142.792969 272.738281 142.792969 C 271.839844 142.792969 270.941406 142.785156 270.050781 142.761719 L 270.050781 159.136719 C 270.941406 159.15625 271.839844 159.167969 272.738281 159.167969 C 273.640625 159.167969 274.535156 159.160156 275.425781 159.136719 Z M 266.917969 183.464844 C 268.683594 183.816406 270.480469 184.125 272.296875 184.386719 L 272.296875 168.113281 C 270.464844 167.863281 268.671875 167.570312 266.917969 167.234375 Z M 276.007812 168.554688 L 276.007812 184.855469 C 277.785156 185.050781 279.582031 185.203125 281.382812 185.3125 L 281.382812 168.976562 C 279.5625 168.875 277.773438 168.734375 276.007812 168.554688 Z M 235.902344 167.078125 L 235.941406 167.140625 L 235.941406 156.34375 C 235.84375 156.300781 235.738281 156.261719 235.636719 156.222656 C 235.390625 156.121094 235.148438 156.011719 234.90625 155.902344 C 234.75 155.835938 234.59375 155.769531 234.4375 155.703125 C 234.296875 155.640625 234.152344 155.582031 234.011719 155.515625 L 234.011719 160.628906 C 234.011719 161.039062 234.035156 161.445312 234.082031 161.851562 C 234.09375 161.949219 234.105469 162.046875 234.121094 162.144531 C 234.128906 162.222656 234.140625 162.300781 234.152344 162.375 C 234.167969 162.472656 234.183594 162.566406 234.199219 162.664062 C 234.226562 162.804688 234.25 162.941406 234.28125 163.082031 C 234.355469 163.386719 234.433594 163.675781 234.515625 163.949219 C 234.574219 164.132812 234.632812 164.316406 234.695312 164.507812 C 234.816406 164.855469 234.949219 165.1875 235.097656 165.519531 C 235.160156 165.652344 235.222656 165.785156 235.28125 165.910156 C 235.285156 165.914062 235.285156 165.921875 235.289062 165.925781 C 235.316406 165.980469 235.34375 166.035156 235.371094 166.089844 C 235.507812 166.363281 235.65625 166.640625 235.824219 166.9375 C 235.851562 166.988281 235.878906 167.03125 235.902344 167.078125 Z M 248.160156 140.09375 C 246.3125 139.664062 244.519531 139.183594 242.785156 138.664062 L 242.785156 154.878906 L 243.207031 155.015625 L 244.96875 155.535156 C 244.980469 155.539062 244.992188 155.546875 245 155.546875 C 245.097656 155.574219 245.195312 155.605469 245.292969 155.628906 C 245.621094 155.722656 245.945312 155.808594 246.261719 155.894531 C 246.300781 155.902344 246.339844 155.914062 246.375 155.921875 C 246.566406 155.972656 246.75 156.019531 246.9375 156.070312 C 247.203125 156.136719 247.46875 156.203125 247.738281 156.269531 C 247.878906 156.304688 248.023438 156.339844 248.164062 156.371094 L 248.164062 140.09375 Z M 241.328125 173.027344 C 241.535156 173.1875 241.738281 173.351562 241.945312 173.511719 C 242.027344 173.554688 242.097656 173.613281 242.160156 173.671875 L 243.078125 174.328125 C 243.417969 174.5625 243.789062 174.8125 244.1875 175.066406 L 244.984375 175.566406 C 245 175.574219 245.015625 175.582031 245.027344 175.589844 L 245.027344 159.773438 C 244.902344 159.703125 244.769531 159.632812 244.644531 159.5625 C 244.46875 159.464844 244.296875 159.363281 244.125 159.265625 C 243.996094 159.1875 243.859375 159.113281 243.734375 159.039062 L 242.117188 158.550781 C 241.566406 158.378906 241.003906 158.199219 240.433594 158.007812 C 240.355469 157.984375 240.277344 157.964844 240.207031 157.929688 C 240.128906 157.90625 240.054688 157.878906 239.976562 157.851562 C 239.910156 157.832031 239.839844 157.804688 239.769531 157.78125 C 239.730469 157.769531 239.691406 157.753906 239.65625 157.742188 L 239.65625 171.539062 C 240.136719 172.015625 240.671875 172.496094 241.328125 173.027344 Z M 254.121094 179.886719 L 254.121094 163.804688 C 254.042969 163.777344 253.964844 163.753906 253.890625 163.722656 C 253.6875 163.648438 253.484375 163.574219 253.28125 163.5 C 253.066406 163.417969 252.847656 163.339844 252.632812 163.257812 C 252.433594 163.179688 252.238281 163.101562 252.035156 163.023438 C 251.824219 162.941406 251.613281 162.859375 251.40625 162.777344 C 251.210938 162.699219 251.015625 162.617188 250.824219 162.535156 C 250.617188 162.453125 250.410156 162.367188 250.207031 162.28125 C 250.015625 162.199219 249.824219 162.113281 249.636719 162.03125 C 249.433594 161.945312 249.230469 161.859375 249.03125 161.765625 C 248.933594 161.722656 248.839844 161.679688 248.742188 161.632812 L 248.742188 177.585938 C 250.449219 178.414062 252.242188 179.183594 254.121094 179.886719 Z M 257.25 158.101562 L 257.25 141.757812 C 255.417969 141.507812 253.625 141.210938 251.875 140.875 L 251.875 157.1875 C 252.089844 157.230469 252.308594 157.277344 252.527344 157.320312 C 252.554688 157.328125 252.578125 157.328125 252.605469 157.335938 C 253.261719 157.464844 253.925781 157.578125 254.589844 157.691406 C 254.75 157.714844 254.90625 157.746094 255.066406 157.773438 C 255.199219 157.792969 255.332031 157.8125 255.464844 157.835938 C 255.742188 157.878906 256.015625 157.925781 256.289062 157.96875 C 256.421875 157.984375 256.550781 158.003906 256.679688 158.023438 C 256.871094 158.050781 257.0625 158.078125 257.25 158.101562 Z M 233.695312 135.277344 L 233.695312 151.273438 C 233.75 151.300781 233.800781 151.324219 233.851562 151.351562 C 233.9375 151.394531 234.019531 151.433594 234.101562 151.476562 C 235.035156 151.925781 236.019531 152.367188 237.058594 152.796875 C 237.71875 153.074219 238.394531 153.339844 239.074219 153.59375 L 239.074219 137.445312 C 237.191406 136.777344 235.394531 136.050781 233.695312 135.277344 Z M 261.964844 166.152344 C 261.769531 166.101562 261.574219 166.054688 261.382812 166.003906 C 261.109375 165.929688 260.832031 165.863281 260.558594 165.789062 C 260.339844 165.730469 260.125 165.671875 259.910156 165.613281 C 259.667969 165.546875 259.421875 165.480469 259.175781 165.414062 C 258.957031 165.351562 258.738281 165.285156 258.519531 165.222656 C 258.289062 165.152344 258.058594 165.089844 257.832031 165.019531 L 257.832031 181.15625 C 259.574219 181.703125 261.367188 182.199219 263.207031 182.640625 L 263.207031 166.449219 C 262.792969 166.351562 262.375 166.253906 261.964844 166.152344 Z M 312.597656 155.003906 C 315.554688 154.21875 318.273438 153.300781 320.707031 152.269531 C 328.179688 149.09375 332.777344 144.945312 332.777344 140.542969 C 332.777344 139.183594 332.332031 137.839844 331.492188 136.550781 C 331.136719 136 330.707031 135.457031 330.214844 134.925781 C 330.214844 134.941406 330.210938 134.960938 330.210938 134.976562 C 330.207031 135.023438 330.207031 135.066406 330.203125 135.113281 C 330.199219 135.1875 330.191406 135.257812 330.1875 135.332031 C 330.183594 135.402344 330.175781 135.46875 330.171875 135.539062 C 330.164062 135.605469 330.160156 135.675781 330.15625 135.742188 C 330.148438 135.816406 330.136719 135.882812 330.132812 135.953125 C 330.121094 136.027344 330.113281 136.101562 330.101562 136.175781 C 330.078125 136.390625 330.042969 136.601562 330.007812 136.8125 C 330 136.871094 329.988281 136.929688 329.976562 136.988281 C 329.929688 137.230469 329.882812 137.464844 329.828125 137.707031 C 329.820312 137.734375 329.8125 137.761719 329.808594 137.792969 C 329.472656 139.195312 328.9375 140.5625 328.222656 141.894531 C 328.203125 141.933594 328.179688 141.972656 328.15625 142.011719 C 328.042969 142.21875 327.921875 142.425781 327.796875 142.632812 C 327.757812 142.707031 327.714844 142.777344 327.671875 142.84375 C 327.566406 143.011719 327.464844 143.175781 327.351562 143.34375 C 327.289062 143.441406 327.226562 143.542969 327.15625 143.636719 C 327.078125 143.753906 326.996094 143.871094 326.914062 143.984375 C 326.105469 145.128906 325.160156 146.234375 324.082031 147.296875 C 324.039062 147.34375 324 147.386719 323.953125 147.425781 C 322.703125 148.640625 321.292969 149.804688 319.734375 150.898438 C 318.140625 152.015625 316.398438 153.066406 314.527344 154.042969 C 314.523438 154.046875 314.519531 154.046875 314.511719 154.050781 C 314.507812 154.054688 314.5 154.054688 314.492188 154.0625 C 314.148438 154.242188 313.804688 154.417969 313.453125 154.589844 C 313.390625 154.621094 313.324219 154.65625 313.257812 154.683594 C 313.042969 154.785156 312.820312 154.894531 312.597656 155.003906 Z M 224.609375 145.25 C 226.128906 146.660156 227.933594 147.996094 229.984375 149.242188 L 229.984375 133.417969 C 229.832031 133.335938 229.683594 133.253906 229.53125 133.167969 C 229.402344 133.09375 229.277344 133.023438 229.144531 132.949219 C 228.949219 132.835938 228.753906 132.71875 228.558594 132.605469 C 228.429688 132.53125 228.308594 132.457031 228.179688 132.378906 C 227.984375 132.261719 227.792969 132.140625 227.605469 132.023438 C 227.488281 131.949219 227.367188 131.875 227.25 131.800781 C 227.054688 131.675781 226.863281 131.550781 226.675781 131.421875 C 226.566406 131.351562 226.460938 131.28125 226.355469 131.207031 C 226.152344 131.074219 225.953125 130.9375 225.757812 130.796875 C 225.667969 130.734375 225.578125 130.667969 225.488281 130.609375 C 225.261719 130.445312 225.039062 130.28125 224.820312 130.117188 C 224.765625 130.074219 224.710938 130.035156 224.652344 129.992188 C 224.640625 129.984375 224.625 129.96875 224.609375 129.960938 Z M 230.734375 197.964844 C 232.257812 199.371094 234.0625 200.707031 236.109375 201.957031 L 236.109375 186.128906 C 235.960938 186.046875 235.816406 185.964844 235.667969 185.886719 C 235.527344 185.804688 235.386719 185.722656 235.246094 185.640625 C 235.0625 185.535156 234.878906 185.429688 234.699219 185.320312 C 234.5625 185.238281 234.425781 185.15625 234.292969 185.074219 C 234.109375 184.964844 233.925781 184.855469 233.75 184.742188 C 233.617188 184.660156 233.492188 184.578125 233.363281 184.496094 C 233.183594 184.378906 233 184.261719 232.824219 184.144531 C 232.707031 184.066406 232.585938 183.988281 232.472656 183.910156 C 232.28125 183.78125 232.097656 183.652344 231.914062 183.523438 C 231.8125 183.449219 231.707031 183.378906 231.605469 183.308594 C 231.394531 183.15625 231.191406 183.003906 230.984375 182.851562 C 230.914062 182.800781 230.84375 182.75 230.773438 182.695312 C 230.761719 182.6875 230.75 182.675781 230.738281 182.671875 L 230.738281 197.964844 Z M 248.910156 191.371094 L 248.910156 207.59375 C 250.636719 208.136719 252.429688 208.636719 254.285156 209.085938 L 254.285156 192.800781 C 252.4375 192.375 250.644531 191.894531 248.910156 191.371094 Z M 258 209.902344 C 259.746094 210.25 261.539062 210.554688 263.375 210.8125 L 263.375 194.464844 C 261.546875 194.214844 259.753906 193.921875 258 193.585938 Z M 267.089844 211.273438 C 268.851562 211.457031 270.640625 211.601562 272.464844 211.703125 L 272.464844 195.332031 C 270.648438 195.234375 268.855469 195.089844 267.089844 194.910156 Z M 285.265625 195.328125 L 285.265625 211.699219 C 287.085938 211.601562 288.878906 211.453125 290.640625 211.269531 L 290.640625 194.910156 C 288.878906 195.089844 287.082031 195.230469 285.265625 195.328125 Z M 294.355469 210.8125 C 296.1875 210.554688 297.980469 210.25 299.730469 209.902344 L 299.730469 193.585938 C 297.976562 193.921875 296.1875 194.214844 294.355469 194.464844 Z M 303.441406 209.085938 C 305.296875 208.640625 307.09375 208.136719 308.816406 207.59375 L 308.816406 191.378906 C 308.785156 191.386719 308.761719 191.394531 308.734375 191.40625 C 307.027344 191.914062 305.261719 192.378906 303.441406 192.800781 Z M 321.617188 186.128906 L 321.617188 201.957031 C 323.667969 200.707031 325.472656 199.371094 326.996094 197.964844 L 326.996094 182.671875 C 326.988281 182.679688 326.980469 182.6875 326.96875 182.691406 C 326.773438 182.839844 326.574219 182.984375 326.375 183.128906 C 326.207031 183.253906 326.039062 183.375 325.867188 183.496094 C 325.648438 183.648438 325.425781 183.796875 325.203125 183.949219 C 325.039062 184.058594 324.878906 184.167969 324.714844 184.28125 C 324.472656 184.433594 324.222656 184.589844 323.976562 184.746094 C 323.816406 184.84375 323.664062 184.945312 323.503906 185.042969 C 323.238281 185.207031 322.964844 185.363281 322.691406 185.523438 C 322.542969 185.613281 322.394531 185.699219 322.242188 185.789062 C 322.035156 185.902344 321.828125 186.015625 321.617188 186.128906 Z M 333.457031 173.640625 C 334.339844 172.980469 335.164062 172.304688 335.917969 171.609375 L 335.917969 156.320312 C 335.90625 156.328125 335.890625 156.339844 335.875 156.351562 C 335.820312 156.394531 335.761719 156.4375 335.707031 156.476562 C 335.488281 156.640625 335.269531 156.804688 335.039062 156.964844 C 334.949219 157.03125 334.859375 157.09375 334.765625 157.15625 C 334.574219 157.292969 334.375 157.433594 334.171875 157.570312 C 334.066406 157.640625 333.957031 157.714844 333.851562 157.785156 C 333.660156 157.910156 333.46875 158.035156 333.277344 158.160156 C 333.160156 158.238281 333.042969 158.3125 332.921875 158.386719 C 332.730469 158.507812 332.539062 158.625 332.34375 158.742188 C 332.21875 158.820312 332.09375 158.894531 331.972656 158.96875 C 331.777344 159.085938 331.574219 159.199219 331.378906 159.316406 C 331.25 159.386719 331.125 159.460938 331 159.535156 C 330.847656 159.617188 330.695312 159.703125 330.542969 159.785156 L 330.542969 175.554688 C 331.488281 174.996094 332.421875 174.414062 333.398438 173.6875 C 333.417969 173.660156 333.4375 173.652344 333.457031 173.640625 Z M 218.964844 114.183594 C 218.964844 116.203125 219.511719 118.175781 220.53125 120.066406 C 221.355469 121.589844 222.484375 123.0625 223.894531 124.46875 C 224.007812 124.558594 224.109375 124.660156 224.199219 124.769531 C 226.390625 126.882812 229.203125 128.84375 232.535156 130.59375 C 232.636719 130.636719 232.734375 130.683594 232.824219 130.742188 C 233.277344 130.976562 233.734375 131.207031 234.199219 131.433594 C 236.410156 132.496094 238.816406 133.46875 241.382812 134.335938 C 241.476562 134.359375 241.574219 134.390625 241.660156 134.425781 C 244.367188 135.332031 247.257812 136.121094 250.300781 136.777344 C 250.367188 136.785156 250.4375 136.804688 250.5 136.820312 C 253.304688 137.421875 256.234375 137.90625 259.269531 138.277344 C 259.292969 138.28125 259.320312 138.285156 259.347656 138.289062 C 263.628906 138.804688 268.113281 139.082031 272.738281 139.082031 C 277.359375 139.082031 281.84375 138.804688 286.125 138.292969 C 286.152344 138.289062 286.183594 138.285156 286.210938 138.28125 C 289.246094 137.914062 292.179688 137.421875 294.984375 136.824219 C 295.046875 136.804688 295.109375 136.792969 295.167969 136.785156 C 298.210938 136.125 301.101562 135.335938 303.8125 134.433594 C 303.902344 134.394531 303.996094 134.363281 304.09375 134.339844 C 306.660156 133.472656 309.066406 132.5 311.277344 131.4375 C 311.746094 131.210938 312.203125 130.980469 312.652344 130.746094 C 312.742188 130.691406 312.835938 130.644531 312.933594 130.605469 C 316.269531 128.851562 319.085938 126.890625 321.277344 124.777344 C 321.367188 124.664062 321.464844 124.566406 321.578125 124.484375 C 323.347656 122.710938 324.683594 120.839844 325.515625 118.890625 C 326.167969 117.363281 326.511719 115.792969 326.511719 114.1875 C 326.511719 107.574219 320.691406 101.46875 311.277344 96.9375 C 301.453125 92.214844 287.828125 89.292969 272.738281 89.292969 C 257.644531 89.292969 244.023438 92.214844 234.199219 96.9375 C 224.789062 101.460938 218.964844 107.566406 218.964844 114.183594 Z M 218.964844 134.277344 C 218.964844 136.523438 219.636719 138.710938 220.894531 140.796875 L 220.894531 126.679688 C 220.832031 126.617188 220.773438 126.554688 220.710938 126.488281 C 220.566406 126.332031 220.417969 126.175781 220.277344 126.019531 C 220.210938 125.941406 220.140625 125.867188 220.078125 125.789062 C 219.9375 125.632812 219.800781 125.472656 219.667969 125.3125 C 219.605469 125.238281 219.542969 125.164062 219.480469 125.089844 C 219.347656 124.925781 219.214844 124.757812 219.085938 124.585938 C 219.046875 124.535156 219.003906 124.488281 218.964844 124.433594 Z M 227.039062 160.339844 C 225.773438 162.425781 225.09375 164.628906 225.09375 166.894531 C 225.09375 167.996094 225.257812 169.085938 225.570312 170.15625 C 227.136719 175.503906 232.484375 180.371094 240.328125 184.144531 C 250.152344 188.871094 263.773438 191.792969 278.867188 191.792969 C 289.457031 191.792969 299.328125 190.347656 307.675781 187.851562 C 307.90625 187.785156 308.128906 187.710938 308.355469 187.640625 C 308.613281 187.558594 308.875 187.480469 309.128906 187.398438 C 309.371094 187.320312 309.609375 187.242188 309.847656 187.164062 C 310.039062 187.097656 310.234375 187.035156 310.425781 186.972656 C 309.015625 187.273438 307.652344 187.527344 306.308594 187.742188 C 304.792969 187.996094 303.25 188.214844 301.679688 188.40625 C 301.644531 188.414062 301.609375 188.417969 301.574219 188.421875 C 297.605469 188.902344 293.476562 189.179688 289.230469 189.230469 C 289.226562 189.230469 289.226562 189.230469 289.226562 189.230469 C 288.746094 189.238281 288.269531 189.238281 287.789062 189.238281 C 283.039062 189.238281 278.421875 188.953125 274.007812 188.421875 C 273.96875 188.417969 273.929688 188.410156 273.890625 188.40625 C 271.921875 188.167969 269.996094 187.878906 268.117188 187.542969 C 257.398438 186.527344 248.027344 184.007812 241.347656 180.554688 C 234.347656 176.929688 230.164062 172.195312 230.164062 166.894531 C 230.164062 166.300781 230.222656 165.6875 230.339844 165.0625 L 230.339844 165.054688 C 230.414062 164.644531 230.519531 164.230469 230.648438 163.824219 C 230.539062 163.335938 230.460938 162.847656 230.402344 162.347656 C 230.402344 162.339844 230.402344 162.324219 230.402344 162.316406 C 230.402344 162.3125 230.402344 162.304688 230.402344 162.304688 C 230.339844 161.753906 230.304688 161.199219 230.304688 160.640625 C 230.304688 160.640625 230.304688 160.636719 230.304688 160.632812 L 230.304688 156.339844 C 228.972656 157.617188 227.878906 158.957031 227.039062 160.339844 Z M 225.09375 186.988281 C 225.09375 189.234375 225.765625 191.421875 227.019531 193.511719 L 227.019531 179.394531 C 226.957031 179.328125 226.894531 179.261719 226.832031 179.191406 C 226.6875 179.042969 226.550781 178.890625 226.414062 178.738281 C 226.339844 178.65625 226.269531 178.578125 226.199219 178.496094 C 226.0625 178.34375 225.929688 178.1875 225.800781 178.03125 C 225.734375 177.953125 225.667969 177.871094 225.601562 177.792969 C 225.472656 177.636719 225.347656 177.472656 225.21875 177.308594 C 225.175781 177.253906 225.132812 177.199219 225.089844 177.144531 L 225.089844 186.988281 Z M 240.324219 204.234375 C 241.859375 204.972656 243.484375 205.664062 245.195312 206.3125 L 245.195312 190.15625 C 243.316406 189.488281 241.515625 188.761719 239.820312 187.988281 L 239.820312 203.984375 C 239.988281 204.070312 240.15625 204.152344 240.324219 204.234375 Z M 281.554688 211.851562 L 281.554688 195.472656 C 280.664062 195.492188 279.769531 195.503906 278.867188 195.503906 C 277.964844 195.503906 277.066406 195.492188 276.175781 195.472656 L 276.175781 211.847656 C 277.066406 211.867188 277.964844 211.878906 278.867188 211.878906 C 279.765625 211.882812 280.664062 211.871094 281.554688 211.851562 Z M 317.402344 204.234375 C 317.574219 204.152344 317.738281 204.070312 317.902344 203.988281 L 317.902344 187.992188 C 317.574219 188.144531 317.234375 188.292969 316.894531 188.441406 C 316.828125 188.46875 316.761719 188.5 316.699219 188.527344 C 316.21875 188.734375 315.734375 188.9375 315.242188 189.136719 C 315.230469 189.140625 315.210938 189.148438 315.199219 189.152344 C 314.332031 189.5 313.441406 189.835938 312.53125 190.160156 L 312.53125 206.3125 C 314.242188 205.667969 315.867188 204.972656 317.402344 204.234375 Z M 332.636719 178.65625 C 332.035156 179.042969 331.367188 179.425781 330.707031 179.785156 L 330.707031 193.511719 C 331.964844 191.425781 332.636719 189.234375 332.636719 186.988281 Z M 341.449219 150.929688 C 341.316406 151.105469 341.175781 151.28125 341.039062 151.453125 C 340.980469 151.523438 340.921875 151.59375 340.863281 151.664062 C 340.726562 151.828125 340.585938 151.992188 340.441406 152.15625 C 340.378906 152.226562 340.3125 152.300781 340.246094 152.371094 C 340.105469 152.53125 339.957031 152.691406 339.808594 152.851562 C 339.75 152.914062 339.6875 152.976562 339.628906 153.039062 L 339.628906 167.15625 C 340.882812 165.070312 341.5625 162.878906 341.5625 160.632812 L 341.5625 150.792969 C 341.523438 150.839844 341.484375 150.882812 341.449219 150.929688 Z M 341.449219 150.929688 " fill-opacity="1" fill-rule="nonzero"/></g></svg>