<svg xmlns="http://www.w3.org/2000/svg" xmlns:xlink="http://www.w3.org/1999/xlink" width="500" zoomAndPan="magnify" viewBox="0 0 375 374.999991" height="500" preserveAspectRatio="xMidYMid meet" version="1.0"><defs><g/><clipPath id="7fa07823e5"><path d="M 0.601562 0.640625 L 171 0.640625 L 171 231 L 0.601562 231 Z M 0.601562 0.640625 " clip-rule="nonzero"/></clipPath><clipPath id="dac5e4e6b3"><rect x="0" width="171" y="0" height="231"/></clipPath><clipPath id="9e675a9f7f"><rect x="0" width="209" y="0" height="313"/></clipPath><clipPath id="c11053acc0"><path d="M 191.976562 69.507812 L 363.726562 69.507812 L 363.726562 241.257812 L 191.976562 241.257812 Z M 191.976562 69.507812 " clip-rule="nonzero"/></clipPath></defs><g transform="matrix(1, 0, 0, 1, 21, 50)"><g clip-path="url(#9e675a9f7f)"><g clip-path="url(#7fa07823e5)"><g transform="matrix(1, 0, 0, 1, 0.000000000000003553, 0)"><g clip-path="url(#dac5e4e6b3)"><g fill="#3c503d" fill-opacity="1"><g transform="translate(1.743438, 134.761528)"><g><path d="M 49.375 -99.703125 C 40.207031 -97.453125 33.710938 -93.492188 29.890625 -87.828125 C 26.066406 -82.160156 23.796875 -75.007812 23.078125 -66.375 C 29.273438 -66.375 34.0625 -66.375 37.4375 -66.375 C 40.8125 -66.375 43.21875 -66.375 44.65625 -66.375 C 46.09375 -66.375 46.96875 -66.351562 47.28125 -66.3125 C 47.601562 -66.269531 47.765625 -66.25 47.765625 -66.25 L 47.765625 -46.953125 C 47.398438 -46.859375 45.910156 -46.765625 43.296875 -46.671875 C 40.691406 -46.585938 37.566406 -46.519531 33.921875 -46.46875 C 30.285156 -46.425781 26.671875 -46.40625 23.078125 -46.40625 C 23.160156 -45.238281 23.242188 -44.070312 23.328125 -42.90625 C 23.421875 -41.738281 23.515625 -40.523438 23.609375 -39.265625 C 24.054688 -34.316406 24.84375 -28.828125 25.96875 -22.796875 C 27.09375 -16.773438 28.507812 -10.882812 30.21875 -5.125 C 31.925781 0.632812 33.769531 5.71875 35.75 10.125 L 11.734375 10.125 C 10.472656 7.0625 9.257812 3.441406 8.09375 -0.734375 C 6.925781 -4.921875 5.890625 -9.328125 4.984375 -13.953125 C 4.085938 -18.585938 3.320312 -23.109375 2.6875 -27.515625 C 2.0625 -31.929688 1.613281 -35.890625 1.34375 -39.390625 C 0.351562 -51.984375 0.398438 -63.628906 1.484375 -74.328125 C 2.566406 -85.035156 4.925781 -94.523438 8.5625 -102.796875 C 12.207031 -111.078125 17.378906 -117.828125 24.078125 -123.046875 C 30.785156 -128.265625 39.21875 -131.640625 49.375 -133.171875 Z M 49.375 -99.703125 "/></g></g></g><g fill="#3c503d" fill-opacity="1"><g transform="translate(51.125919, 134.761528)"><g><path d="M 24.828125 -71.234375 C 22.035156 -71.234375 19.492188 -71.929688 17.203125 -73.328125 C 14.910156 -74.722656 13.066406 -76.585938 11.671875 -78.921875 C 10.273438 -81.265625 9.578125 -83.832031 9.578125 -86.625 C 9.578125 -89.5 10.273438 -92.082031 11.671875 -94.375 C 13.066406 -96.664062 14.910156 -98.507812 17.203125 -99.90625 C 19.492188 -101.300781 22.035156 -102 24.828125 -102 C 27.703125 -102 30.285156 -101.300781 32.578125 -99.90625 C 34.878906 -98.507812 36.722656 -96.664062 38.109375 -94.375 C 39.503906 -92.082031 40.203125 -89.5 40.203125 -86.625 C 40.203125 -83.832031 39.503906 -81.265625 38.109375 -78.921875 C 36.722656 -76.585938 34.878906 -74.722656 32.578125 -73.328125 C 30.285156 -71.929688 27.703125 -71.234375 24.828125 -71.234375 Z M 6.609375 -8.359375 C 5.347656 -16.640625 4.785156 -24.984375 4.921875 -33.390625 C 5.054688 -41.804688 5.664062 -51.09375 6.75 -61.25 L 27.65625 -61.25 C 26.664062 -50.90625 26.664062 -41.4375 27.65625 -32.84375 C 28.644531 -24.257812 30.351562 -16.097656 32.78125 -8.359375 Z M 6.609375 -8.359375 "/></g></g></g><g fill="#3c503d" fill-opacity="1"><g transform="translate(85.26189, 134.761528)"><g><path d="M 57.484375 -62.734375 C 63.410156 -62.734375 67.992188 -61 71.234375 -57.53125 C 74.472656 -54.070312 76.5 -49.394531 77.3125 -43.5 C 78.125 -37.613281 77.832031 -30.984375 76.4375 -23.609375 C 75.039062 -16.234375 72.65625 -8.609375 69.28125 -0.734375 C 65.90625 7.128906 61.703125 14.75 56.671875 22.125 L 29.015625 22.390625 C 31.617188 18.703125 34.203125 14.585938 36.765625 10.046875 C 39.328125 5.503906 41.707031 0.894531 43.90625 -3.78125 C 46.113281 -8.457031 47.9375 -12.972656 49.375 -17.328125 C 50.820312 -21.691406 51.722656 -25.628906 52.078125 -29.140625 C 52.441406 -32.648438 52.082031 -35.414062 51 -37.4375 C 49.914062 -39.457031 47.890625 -40.46875 44.921875 -40.46875 C 39.617188 -40.46875 35.367188 -38.507812 32.171875 -34.59375 C 28.984375 -30.6875 27.300781 -25.8125 27.125 -19.96875 C 27.570312 -17.269531 28.085938 -14.503906 28.671875 -11.671875 C 29.253906 -8.835938 29.992188 -5.984375 30.890625 -3.109375 L 9.984375 -3.109375 C 6.203125 -15.335938 3.882812 -26.578125 3.03125 -36.828125 C 2.175781 -47.085938 3.007812 -57.296875 5.53125 -67.453125 L 32.921875 -67.453125 C 31.753906 -64.671875 30.71875 -61.769531 29.8125 -58.75 C 28.914062 -55.738281 28.15625 -52.660156 27.53125 -49.515625 C 30.582031 -53.566406 34.535156 -56.828125 39.390625 -59.296875 C 44.253906 -61.773438 50.285156 -62.921875 57.484375 -62.734375 Z M 57.484375 -62.734375 "/></g></g></g></g></g></g><g fill="#3c503d" fill-opacity="1"><g transform="translate(15.173931, 242.340459)"><g><path d="M 33.21875 -60.15625 C 38.726562 -60.15625 43.21875 -59.222656 46.6875 -57.359375 C 50.164062 -55.492188 52.738281 -53.019531 54.40625 -49.9375 C 56.070312 -46.851562 56.90625 -43.410156 56.90625 -39.609375 C 56.90625 -35.285156 55.890625 -31.664062 53.859375 -28.75 C 51.828125 -25.832031 49.054688 -23.503906 45.546875 -21.765625 C 42.046875 -20.035156 38.082031 -18.773438 33.65625 -17.984375 C 29.238281 -17.203125 24.671875 -16.8125 19.953125 -16.8125 C 16.867188 -16.8125 13.722656 -16.941406 10.515625 -17.203125 C 7.304688 -17.460938 4.128906 -17.820312 0.984375 -18.28125 L 0.984375 -35.09375 C 1.898438 -34.832031 2.800781 -34.585938 3.6875 -34.359375 C 4.570312 -34.128906 5.503906 -33.914062 6.484375 -33.71875 C 6.816406 -38.832031 8.175781 -43.367188 10.5625 -47.328125 C 12.957031 -51.296875 16.101562 -54.425781 20 -56.71875 C 23.90625 -59.007812 28.3125 -60.15625 33.21875 -60.15625 Z M 26.34375 -30.96875 C 28.96875 -30.96875 31.359375 -31.226562 33.515625 -31.75 C 35.679688 -32.269531 37.4375 -33.132812 38.78125 -34.34375 C 40.125 -35.5625 40.796875 -37.1875 40.796875 -39.21875 C 40.796875 -41.25 39.941406 -42.898438 38.234375 -44.171875 C 36.535156 -45.453125 34.570312 -46.09375 32.34375 -46.09375 C 30.113281 -46.09375 28.160156 -45.421875 26.484375 -44.078125 C 24.816406 -42.742188 23.539062 -41.0625 22.65625 -39.03125 C 21.769531 -37 21.328125 -34.929688 21.328125 -32.828125 C 21.328125 -32.566406 21.328125 -32.304688 21.328125 -32.046875 C 21.328125 -31.785156 21.359375 -31.488281 21.421875 -31.15625 C 22.273438 -31.09375 23.109375 -31.046875 23.921875 -31.015625 C 24.742188 -30.984375 25.550781 -30.96875 26.34375 -30.96875 Z M 23.59375 -14.640625 C 26.019531 -11.109375 29.050781 -8.191406 32.6875 -5.890625 C 36.320312 -3.597656 40.203125 -2.191406 44.328125 -1.671875 L 44.328125 17.5 C 38.234375 16.84375 32.644531 14.957031 27.5625 11.84375 C 22.488281 8.726562 18.210938 4.796875 14.734375 0.046875 C 11.265625 -4.703125 8.78125 -9.863281 7.28125 -15.4375 C 9.894531 -15.101562 12.070312 -14.851562 13.8125 -14.6875 C 15.550781 -14.53125 17.171875 -14.453125 18.671875 -14.453125 C 19.460938 -14.453125 20.265625 -14.46875 21.078125 -14.5 C 21.898438 -14.53125 22.738281 -14.578125 23.59375 -14.640625 Z M 23.59375 -14.640625 "/></g></g></g><g fill="#3c503d" fill-opacity="1"><g transform="translate(74.150705, 242.340459)"><g><path d="M 67.625 -87.484375 C 71.757812 -82.109375 74.59375 -76.566406 76.125 -70.859375 C 77.664062 -65.160156 78.269531 -59.523438 77.9375 -53.953125 C 77.613281 -48.390625 76.632812 -43.082031 75 -38.03125 C 73.363281 -32.988281 71.363281 -28.453125 69 -24.421875 C 66.644531 -20.390625 64.285156 -17.066406 61.921875 -14.453125 C 62.648438 -12.222656 63.191406 -9.878906 63.546875 -7.421875 C 63.910156 -4.960938 64.09375 -2.488281 64.09375 0 L 44.625 0 C 44.757812 -3.34375 44.398438 -6.703125 43.546875 -10.078125 C 42.691406 -13.453125 41.476562 -16.546875 39.90625 -19.359375 C 38.332031 -22.179688 36.429688 -24.457031 34.203125 -26.1875 C 31.972656 -27.925781 29.515625 -28.796875 26.828125 -28.796875 C 23.816406 -28.796875 21.410156 -28.09375 19.609375 -26.6875 C 17.804688 -25.28125 16.90625 -23.429688 16.90625 -21.140625 C 16.90625 -18.910156 17.804688 -17.070312 19.609375 -15.625 C 21.410156 -14.1875 23.816406 -13.46875 26.828125 -13.46875 C 30.765625 -13.46875 34.632812 -14.546875 38.4375 -16.703125 C 39.414062 -14.742188 40.25 -12.582031 40.9375 -10.21875 C 41.625 -7.863281 42.066406 -5.40625 42.265625 -2.84375 C 36.367188 -0.75 31.09375 0.296875 26.4375 0.296875 C 21.519531 0.296875 17.144531 -0.703125 13.3125 -2.703125 C 9.476562 -4.703125 6.460938 -7.320312 4.265625 -10.5625 C 2.078125 -13.8125 0.984375 -17.335938 0.984375 -21.140625 C 0.984375 -24.929688 2.078125 -28.445312 4.265625 -31.6875 C 6.460938 -34.9375 9.476562 -37.546875 13.3125 -39.515625 C 17.144531 -41.484375 21.519531 -42.46875 26.4375 -42.46875 C 31.945312 -42.46875 36.976562 -41.351562 41.53125 -39.125 C 46.082031 -36.894531 50 -33.878906 53.28125 -30.078125 C 55.632812 -33.742188 57.203125 -37.722656 57.984375 -42.015625 C 58.773438 -46.304688 58.925781 -50.644531 58.4375 -55.03125 C 57.945312 -59.425781 56.878906 -63.6875 55.234375 -67.8125 C 53.597656 -71.945312 51.484375 -75.71875 48.890625 -79.125 C 46.304688 -82.53125 43.34375 -85.347656 40 -87.578125 Z M 67.625 -87.484375 "/></g></g></g><g fill="#3c503d" fill-opacity="1"><g transform="translate(145.905786, 242.340459)"><g><path d="M 59.5625 -43.546875 C 56.8125 -37.710938 55.351562 -31.367188 55.1875 -24.515625 C 55.03125 -17.671875 56.328125 -10.21875 59.078125 -2.15625 L 43.84375 -2.15625 C 43.1875 -4.0625 42.578125 -5.914062 42.015625 -7.71875 C 41.460938 -9.519531 40.957031 -11.269531 40.5 -12.96875 C 38.40625 -9.695312 35.441406 -6.976562 31.609375 -4.8125 C 27.773438 -2.65625 22.804688 -1.640625 16.703125 -1.765625 C 12.054688 -1.765625 8.535156 -3.039062 6.140625 -5.59375 C 3.753906 -8.15625 2.394531 -11.597656 2.0625 -15.921875 C 1.738281 -20.242188 2.3125 -25.039062 3.78125 -30.3125 C 5.257812 -35.59375 7.503906 -40.921875 10.515625 -46.296875 L 30.28125 -46.296875 C 28.175781 -42.828125 26.285156 -39.304688 24.609375 -35.734375 C 22.941406 -32.160156 21.765625 -28.898438 21.078125 -25.953125 C 20.390625 -23.003906 20.375 -20.628906 21.03125 -18.828125 C 21.6875 -17.023438 23.296875 -16.125 25.859375 -16.125 C 29.003906 -16.125 31.625 -16.972656 33.71875 -18.671875 C 35.8125 -20.378906 37.285156 -22.539062 38.140625 -25.15625 C 37.878906 -28.238281 37.84375 -31.300781 38.03125 -34.34375 C 38.226562 -37.394531 38.753906 -40.460938 39.609375 -43.546875 Z M 59.5625 -43.546875 "/></g></g></g></g></g><g clip-path="url(#c11053acc0)"><path fill="#3c503d" d="M 267.996094 69.507812 Z M 257.339844 121.273438 C 258 121.539062 258.71875 121.75 259.492188 121.894531 L 258.550781 124.234375 C 258.046875 125.488281 258.660156 126.914062 259.914062 127.417969 C 261.167969 127.921875 262.597656 127.3125 263.097656 126.054688 L 264.507812 122.546875 L 265.003906 122.613281 C 267.753906 122.960938 270.589844 122.425781 272.933594 121.28125 C 275.402344 120.082031 277.398438 118.171875 278.332031 115.859375 C 278.582031 115.242188 278.746094 114.601562 278.824219 113.964844 L 278.824219 113.957031 C 279.050781 112.1875 278.605469 110.5 277.621094 109.070312 C 276.707031 107.742188 275.328125 106.648438 273.589844 105.953125 C 272.714844 105.601562 271.734375 105.347656 270.667969 105.210938 L 265.925781 104.613281 C 265.304688 104.535156 264.726562 104.382812 264.210938 104.179688 C 263.390625 103.847656 262.765625 103.375 262.390625 102.828125 C 262.085938 102.382812 261.941406 101.863281 262.011719 101.328125 L 262.019531 101.320312 C 262.046875 101.097656 262.105469 100.867188 262.195312 100.640625 C 262.652344 99.507812 263.769531 98.503906 265.195312 97.808594 C 266.75 97.054688 268.59375 96.699219 270.363281 96.917969 L 272.597656 97.203125 C 272.6875 97.21875 272.773438 97.226562 272.863281 97.238281 L 275.105469 97.519531 C 275.726562 97.597656 276.304688 97.75 276.820312 97.953125 C 277.640625 98.285156 278.261719 98.757812 278.640625 99.304688 C 278.945312 99.746094 279.089844 100.265625 279.019531 100.804688 C 278.992188 101.015625 278.929688 101.246094 278.832031 101.492188 C 278.328125 102.746094 278.9375 104.175781 280.191406 104.675781 C 281.449219 105.179688 282.875 104.570312 283.378906 103.316406 C 283.628906 102.691406 283.789062 102.054688 283.871094 101.417969 L 283.871094 101.410156 C 284.09375 99.640625 283.652344 97.953125 282.667969 96.527344 C 281.753906 95.199219 280.375 94.109375 278.636719 93.410156 C 277.976562 93.144531 277.257812 92.933594 276.484375 92.789062 L 277.425781 90.445312 C 277.925781 89.191406 277.316406 87.765625 276.0625 87.261719 C 274.808594 86.757812 273.378906 87.367188 272.878906 88.625 L 271.464844 92.128906 L 270.957031 92.066406 C 268.210938 91.722656 265.382812 92.253906 263.035156 93.398438 C 260.566406 94.601562 258.570312 96.507812 257.636719 98.820312 C 257.378906 99.460938 257.210938 100.097656 257.140625 100.726562 C 256.917969 102.503906 257.367188 104.183594 258.34375 105.613281 C 259.261719 106.941406 260.644531 108.035156 262.378906 108.730469 C 263.253906 109.082031 264.234375 109.335938 265.300781 109.46875 L 270.039062 110.066406 C 270.664062 110.144531 271.238281 110.292969 271.753906 110.5 C 272.578125 110.832031 273.199219 111.304688 273.578125 111.851562 C 273.882812 112.292969 274.023438 112.8125 273.957031 113.351562 C 273.929688 113.5625 273.867188 113.792969 273.765625 114.039062 C 273.3125 115.171875 272.195312 116.175781 270.765625 116.871094 C 269.214844 117.628906 267.367188 117.984375 265.601562 117.761719 L 263.371094 117.480469 C 263.273438 117.464844 263.183594 117.449219 263.089844 117.445312 L 260.859375 117.164062 C 260.238281 117.085938 259.660156 116.933594 259.144531 116.730469 C 258.324219 116.398438 257.699219 115.925781 257.324219 115.378906 C 257.015625 114.9375 256.875 114.417969 256.945312 113.878906 C 256.96875 113.667969 257.035156 113.4375 257.132812 113.191406 C 257.636719 111.9375 257.027344 110.507812 255.769531 110.007812 C 254.515625 109.503906 253.089844 110.113281 252.585938 111.371094 C 252.335938 111.992188 252.171875 112.628906 252.089844 113.265625 L 252.089844 113.273438 C 251.867188 115.042969 252.3125 116.730469 253.296875 118.15625 C 254.222656 119.484375 255.609375 120.574219 257.339844 121.273438 Z M 267.996094 79.367188 Z M 203.589844 107.335938 C 203.589844 99.203125 211.109375 92.03125 223.257812 87.027344 C 234.757812 82.292969 250.578125 79.359375 267.996094 79.359375 C 285.410156 79.359375 301.230469 82.292969 312.730469 87.027344 C 324.878906 92.03125 332.398438 99.203125 332.398438 107.335938 C 332.398438 115.472656 324.878906 122.644531 312.730469 127.644531 C 301.230469 132.382812 285.410156 135.3125 267.996094 135.3125 C 250.578125 135.3125 234.757812 132.382812 223.257812 127.644531 C 211.109375 122.644531 203.589844 115.472656 203.589844 107.335938 Z M 208.5 107.335938 C 208.5 113.292969 214.851562 118.890625 225.121094 123.121094 C 236.042969 127.621094 251.199219 130.402344 267.996094 130.402344 C 284.792969 130.402344 299.945312 127.617188 310.867188 123.121094 C 321.136719 118.890625 327.488281 113.292969 327.488281 107.335938 C 327.488281 101.378906 321.136719 95.785156 310.867188 91.554688 C 299.945312 87.054688 284.792969 84.273438 267.996094 84.273438 C 251.199219 84.273438 236.042969 87.058594 225.121094 91.554688 C 214.851562 95.785156 208.5 101.378906 208.5 107.335938 Z M 363.902344 142.1875 L 363.902344 168.753906 C 363.902344 174.933594 361.019531 180.734375 355.890625 185.839844 C 355.78125 185.976562 355.652344 186.105469 355.507812 186.21875 C 354.460938 187.230469 353.324219 188.214844 352.101562 189.175781 L 352.105469 203.609375 C 352.105469 214.394531 343.335938 224.011719 329.160156 230.824219 C 315.53125 237.382812 296.761719 241.433594 276.09375 241.433594 C 255.421875 241.433594 236.652344 237.378906 223.023438 230.824219 C 208.847656 224.007812 200.078125 214.394531 200.078125 203.609375 L 200.078125 177.042969 C 200.078125 177.042969 200.078125 177.042969 200.078125 177.039062 C 200.078125 173.140625 201.234375 169.382812 203.386719 165.839844 C 204.984375 163.210938 207.132812 160.710938 209.761719 158.378906 C 206.132812 156.238281 202.972656 153.886719 200.367188 151.363281 C 200.230469 151.25 200.105469 151.132812 199.992188 150.992188 C 194.863281 145.886719 191.976562 140.089844 191.976562 133.910156 L 191.976562 107.335938 C 191.976562 96.550781 200.75 86.9375 214.921875 80.117188 C 228.554688 73.566406 247.324219 69.507812 267.996094 69.507812 C 288.664062 69.507812 307.433594 73.566406 321.0625 80.121094 C 335.238281 86.9375 344.007812 96.554688 344.007812 107.34375 L 344.007812 116.53125 C 349.972656 119.75 354.808594 123.503906 358.207031 127.636719 C 361.882812 132.101562 363.902344 137.011719 363.902344 142.1875 Z M 344.007812 122.148438 L 344.007812 128.210938 C 346.445312 130.078125 348.398438 132.101562 349.789062 134.25 C 351.421875 136.757812 352.289062 139.421875 352.289062 142.191406 C 352.289062 150.171875 345.066406 157.21875 333.335938 162.203125 C 322.261719 166.90625 306.984375 169.90625 290.046875 170.136719 C 289.941406 170.15625 289.828125 170.167969 289.71875 170.183594 C 289.511719 170.214844 289.304688 170.246094 289.097656 170.273438 C 288.238281 170.394531 287.371094 170.511719 286.5 170.621094 C 286.433594 170.628906 286.371094 170.636719 286.304688 170.644531 C 286.300781 170.644531 286.296875 170.644531 286.292969 170.644531 C 286.277344 170.644531 286.265625 170.648438 286.25 170.648438 C 286.136719 170.664062 286.019531 170.675781 285.910156 170.6875 C 285.136719 170.777344 284.363281 170.863281 283.578125 170.945312 C 283.449219 170.957031 283.320312 170.972656 283.191406 170.984375 C 282.304688 171.074219 281.410156 171.152344 280.511719 171.226562 C 280.425781 171.234375 280.339844 171.242188 280.253906 171.246094 C 280.121094 171.253906 279.980469 171.269531 279.847656 171.277344 C 279.550781 171.296875 279.261719 171.320312 278.964844 171.339844 C 278.824219 171.351562 278.6875 171.359375 278.550781 171.367188 C 275.097656 171.601562 271.574219 171.726562 267.996094 171.726562 C 264.441406 171.726562 260.941406 171.601562 257.515625 171.371094 C 257.339844 171.359375 257.160156 171.351562 256.988281 171.335938 C 256.714844 171.320312 256.445312 171.296875 256.175781 171.277344 C 256.027344 171.265625 255.878906 171.253906 255.730469 171.242188 L 255.070312 171.1875 C 254.90625 171.171875 254.738281 171.160156 254.574219 171.144531 L 254.253906 171.117188 C 254.335938 171.140625 254.414062 171.160156 254.496094 171.179688 C 255.230469 171.363281 255.96875 171.542969 256.71875 171.714844 C 256.71875 171.714844 256.726562 171.714844 256.726562 171.714844 C 257.238281 171.832031 257.757812 171.949219 258.273438 172.058594 C 258.339844 172.070312 258.40625 172.085938 258.46875 172.101562 C 262.183594 172.898438 266.070312 173.546875 270.089844 174.035156 C 270.113281 174.039062 270.136719 174.039062 270.160156 174.042969 C 275.832031 174.726562 281.765625 175.097656 287.890625 175.097656 C 293.988281 175.097656 299.910156 174.738281 305.558594 174.054688 C 305.617188 174.042969 305.667969 174.039062 305.722656 174.035156 C 308.101562 173.75 310.433594 173.40625 312.707031 173.003906 C 314.261719 172.734375 315.785156 172.433594 317.28125 172.113281 C 317.375 172.089844 317.46875 172.066406 317.570312 172.054688 C 317.574219 172.054688 317.582031 172.050781 317.585938 172.050781 C 319.179688 171.707031 320.746094 171.332031 322.277344 170.933594 C 324.589844 170.332031 326.820312 169.667969 328.96875 168.953125 C 329.09375 168.894531 329.226562 168.851562 329.363281 168.816406 C 332.753906 167.671875 335.925781 166.390625 338.84375 164.988281 C 339.464844 164.691406 340.066406 164.386719 340.660156 164.082031 C 340.78125 164.003906 340.910156 163.941406 341.042969 163.882812 C 345.449219 161.566406 349.171875 158.976562 352.070312 156.183594 C 352.1875 156.039062 352.320312 155.910156 352.460938 155.792969 C 356.644531 151.621094 358.988281 147.003906 358.988281 142.183594 C 358.988281 138.179688 357.367188 134.3125 354.425781 130.738281 C 351.878906 127.636719 348.34375 124.746094 344.007812 122.148438 Z M 336.796875 123.601562 C 336.714844 123.691406 336.628906 123.777344 336.546875 123.867188 L 336.546875 142.535156 C 336.691406 142.296875 336.828125 142.058594 336.957031 141.816406 C 337.042969 141.660156 337.125 141.5 337.207031 141.339844 C 337.257812 141.238281 337.316406 141.136719 337.363281 141.035156 C 337.464844 140.824219 337.566406 140.617188 337.65625 140.40625 C 337.675781 140.363281 337.695312 140.320312 337.714844 140.277344 C 337.8125 140.054688 337.902344 139.828125 337.996094 139.605469 C 338.007812 139.566406 338.023438 139.53125 338.039062 139.492188 C 338.125 139.269531 338.203125 139.039062 338.277344 138.8125 C 338.289062 138.769531 338.308594 138.726562 338.320312 138.679688 C 338.394531 138.460938 338.457031 138.242188 338.519531 138.023438 C 338.535156 137.960938 338.546875 137.90625 338.566406 137.847656 C 338.621094 137.640625 338.671875 137.433594 338.71875 137.226562 C 338.738281 137.148438 338.753906 137.066406 338.769531 136.992188 C 338.804688 136.800781 338.84375 136.613281 338.878906 136.417969 C 338.898438 136.3125 338.910156 136.207031 338.925781 136.101562 C 338.953125 135.933594 338.980469 135.765625 338.996094 135.597656 C 339.011719 135.453125 339.023438 135.308594 339.035156 135.164062 C 339.046875 135.03125 339.058594 134.898438 339.070312 134.757812 C 339.082031 134.511719 339.089844 134.261719 339.089844 134.011719 C 339.089844 133.976562 339.09375 133.949219 339.09375 133.914062 L 339.09375 120.902344 C 339.042969 120.972656 338.988281 121.039062 338.929688 121.109375 C 338.761719 121.328125 338.589844 121.546875 338.410156 121.765625 C 338.328125 121.871094 338.242188 121.96875 338.15625 122.070312 C 337.984375 122.277344 337.808594 122.488281 337.625 122.691406 C 337.535156 122.792969 337.441406 122.902344 337.34375 123.003906 C 337.167969 123.203125 336.984375 123.402344 336.796875 123.601562 Z M 283.042969 166.070312 C 283.21875 166.054688 283.390625 166.03125 283.5625 166.015625 L 283.5625 144.382812 C 281.234375 144.621094 278.859375 144.808594 276.453125 144.9375 L 276.453125 166.585938 C 277.253906 166.542969 278.050781 166.492188 278.847656 166.4375 C 278.972656 166.429688 279.101562 166.417969 279.226562 166.40625 C 279.535156 166.386719 279.84375 166.359375 280.152344 166.332031 C 281.023438 166.265625 281.882812 166.1875 282.738281 166.101562 C 282.839844 166.09375 282.9375 166.082031 283.042969 166.070312 Z M 257.046875 166.433594 C 257.867188 166.492188 258.699219 166.542969 259.527344 166.59375 L 259.527344 144.941406 C 257.125 144.8125 254.753906 144.625 252.421875 144.386719 L 252.421875 166.019531 C 252.5625 166.03125 252.707031 166.054688 252.847656 166.066406 C 252.996094 166.082031 253.140625 166.097656 253.285156 166.113281 C 254.109375 166.195312 254.9375 166.269531 255.769531 166.339844 C 256.148438 166.367188 256.523438 166.398438 256.902344 166.429688 C 256.949219 166.425781 257 166.429688 257.046875 166.433594 Z M 320.390625 176.449219 L 320.390625 197.980469 C 322.84375 197.386719 325.214844 196.726562 327.492188 196.003906 L 327.492188 174.554688 C 325.203125 175.25 322.835938 175.878906 320.390625 176.449219 Z M 332.402344 172.953125 L 332.402344 194.316406 C 334.667969 193.460938 336.816406 192.542969 338.84375 191.566406 C 339.070312 191.460938 339.289062 191.347656 339.507812 191.242188 L 339.507812 170.085938 C 337.269531 171.109375 334.894531 172.066406 332.402344 172.953125 Z M 315.476562 177.484375 C 313.160156 177.925781 310.785156 178.316406 308.367188 178.648438 L 308.367188 200.261719 C 310.792969 199.917969 313.164062 199.519531 315.476562 199.058594 Z M 303.457031 200.871094 L 303.457031 179.238281 C 301.128906 179.472656 298.757812 179.664062 296.355469 179.792969 L 296.355469 201.441406 C 298.761719 201.304688 301.128906 201.113281 303.457031 200.871094 Z M 287.886719 180.019531 C 286.695312 180.019531 285.507812 180.003906 284.332031 179.976562 L 284.332031 201.617188 C 285.28125 201.644531 286.230469 201.660156 287.183594 201.671875 C 287.417969 201.671875 287.648438 201.675781 287.886719 201.675781 C 289.078125 201.675781 290.261719 201.664062 291.441406 201.632812 L 291.441406 179.980469 C 290.261719 180.007812 289.082031 180.019531 287.886719 180.019531 Z M 325.121094 132.441406 C 324.921875 132.554688 324.726562 132.664062 324.523438 132.773438 L 324.523438 153.683594 C 325.496094 153.089844 326.433594 152.484375 327.3125 151.867188 C 328.902344 150.75 330.34375 149.589844 331.632812 148.394531 L 331.632812 128.195312 C 331.617188 128.210938 331.597656 128.222656 331.585938 128.230469 C 331.496094 128.300781 331.402344 128.363281 331.3125 128.433594 C 331.039062 128.636719 330.765625 128.839844 330.480469 129.039062 C 330.351562 129.132812 330.21875 129.222656 330.085938 129.316406 C 329.839844 129.488281 329.589844 129.667969 329.335938 129.835938 C 329.1875 129.9375 329.03125 130.035156 328.882812 130.140625 C 328.640625 130.296875 328.402344 130.457031 328.152344 130.617188 C 327.988281 130.71875 327.824219 130.828125 327.65625 130.929688 C 327.417969 131.082031 327.171875 131.230469 326.921875 131.382812 C 326.75 131.484375 326.578125 131.585938 326.402344 131.695312 C 326.152344 131.84375 325.898438 131.992188 325.644531 132.136719 C 325.472656 132.246094 325.300781 132.34375 325.121094 132.441406 Z M 319.617188 135.238281 C 317.371094 136.261719 315 137.21875 312.507812 138.105469 L 312.507812 159.457031 C 313.476562 159.085938 314.441406 158.703125 315.394531 158.304688 C 316.855469 157.691406 318.265625 157.050781 319.609375 156.382812 L 319.609375 135.238281 Z M 307.597656 139.707031 C 305.308594 140.394531 302.933594 141.027344 300.488281 141.597656 L 300.488281 163.128906 C 301.515625 162.878906 302.539062 162.617188 303.558594 162.335938 L 303.699219 162.304688 C 303.753906 162.292969 303.8125 162.277344 303.863281 162.261719 C 304.695312 162.03125 305.527344 161.796875 306.34375 161.546875 C 306.441406 161.515625 306.542969 161.484375 306.644531 161.457031 C 306.964844 161.355469 307.277344 161.253906 307.59375 161.148438 L 307.59375 139.707031 Z M 295.582031 142.632812 C 293.261719 143.078125 290.894531 143.46875 288.472656 143.796875 L 288.472656 165.414062 C 288.699219 165.378906 288.929688 165.351562 289.160156 165.316406 C 289.375 165.285156 289.585938 165.25 289.792969 165.21875 C 290.117188 165.171875 290.441406 165.121094 290.757812 165.070312 C 290.976562 165.035156 291.199219 165 291.414062 164.960938 C 291.585938 164.933594 291.757812 164.902344 291.933594 164.875 C 293.160156 164.671875 294.371094 164.441406 295.574219 164.203125 L 295.574219 142.632812 Z M 271.546875 166.78125 L 271.546875 145.125 C 270.367188 145.152344 269.183594 145.167969 267.992188 145.167969 C 266.800781 145.167969 265.613281 145.15625 264.4375 145.125 L 264.4375 166.78125 C 265.613281 166.808594 266.800781 166.824219 267.992188 166.824219 C 269.183594 166.824219 270.367188 166.8125 271.546875 166.78125 Z M 260.296875 198.949219 C 262.628906 199.414062 265.003906 199.820312 267.40625 200.167969 L 267.40625 178.652344 C 264.984375 178.320312 262.613281 177.929688 260.296875 177.488281 Z M 272.3125 179.234375 L 272.3125 200.789062 C 274.664062 201.046875 277.039062 201.246094 279.421875 201.394531 L 279.421875 179.792969 C 277.015625 179.65625 274.648438 179.46875 272.3125 179.234375 Z M 219.285156 177.28125 L 219.335938 177.363281 L 219.335938 163.089844 C 219.203125 163.03125 219.066406 162.980469 218.929688 162.925781 C 218.605469 162.792969 218.285156 162.644531 217.964844 162.503906 C 217.757812 162.414062 217.550781 162.328125 217.34375 162.238281 C 217.160156 162.15625 216.96875 162.078125 216.78125 161.992188 L 216.78125 168.753906 C 216.78125 169.296875 216.8125 169.832031 216.871094 170.371094 C 216.890625 170.5 216.90625 170.628906 216.925781 170.757812 C 216.9375 170.859375 216.949219 170.964844 216.96875 171.0625 C 216.988281 171.191406 217.011719 171.316406 217.03125 171.445312 C 217.066406 171.628906 217.097656 171.8125 217.140625 172 C 217.238281 172.402344 217.339844 172.78125 217.449219 173.140625 C 217.527344 173.386719 217.601562 173.632812 217.683594 173.882812 C 217.84375 174.339844 218.019531 174.78125 218.21875 175.222656 C 218.300781 175.394531 218.382812 175.570312 218.464844 175.738281 C 218.46875 175.742188 218.46875 175.75 218.472656 175.753906 C 218.507812 175.828125 218.542969 175.902344 218.578125 175.976562 C 218.757812 176.335938 218.957031 176.707031 219.179688 177.097656 C 219.214844 177.160156 219.25 177.222656 219.285156 177.28125 Z M 235.492188 141.597656 C 233.046875 141.03125 230.679688 140.394531 228.382812 139.707031 L 228.382812 161.148438 L 228.941406 161.332031 L 231.269531 162.019531 C 231.289062 162.023438 231.300781 162.03125 231.3125 162.035156 C 231.441406 162.070312 231.566406 162.109375 231.695312 162.144531 C 232.132812 162.261719 232.5625 162.378906 232.980469 162.492188 C 233.035156 162.503906 233.085938 162.515625 233.132812 162.53125 C 233.382812 162.59375 233.625 162.660156 233.871094 162.722656 C 234.222656 162.8125 234.578125 162.902344 234.933594 162.988281 C 235.117188 163.039062 235.308594 163.082031 235.496094 163.125 L 235.496094 141.597656 Z M 226.457031 185.148438 C 226.726562 185.363281 227 185.578125 227.273438 185.789062 C 227.382812 185.847656 227.472656 185.921875 227.558594 185.996094 L 228.769531 186.867188 C 229.222656 187.179688 229.710938 187.507812 230.238281 187.847656 L 231.292969 188.503906 C 231.308594 188.515625 231.332031 188.523438 231.347656 188.539062 L 231.347656 167.625 C 231.179688 167.527344 231.007812 167.4375 230.839844 167.34375 C 230.609375 167.214844 230.382812 167.082031 230.152344 166.949219 C 229.980469 166.851562 229.804688 166.75 229.636719 166.652344 L 227.5 166.007812 C 226.769531 165.78125 226.027344 165.539062 225.277344 165.289062 C 225.171875 165.257812 225.070312 165.230469 224.972656 165.1875 C 224.871094 165.152344 224.773438 165.117188 224.667969 165.082031 C 224.578125 165.054688 224.488281 165.019531 224.394531 164.988281 C 224.34375 164.972656 224.292969 164.953125 224.242188 164.9375 L 224.242188 183.179688 C 224.878906 183.808594 225.589844 184.445312 226.457031 185.148438 Z M 243.371094 194.214844 L 243.371094 172.953125 C 243.273438 172.917969 243.167969 172.882812 243.070312 172.84375 C 242.800781 172.746094 242.53125 172.648438 242.261719 172.550781 C 241.976562 172.441406 241.691406 172.339844 241.40625 172.230469 C 241.140625 172.128906 240.882812 172.023438 240.617188 171.921875 C 240.335938 171.8125 240.058594 171.703125 239.78125 171.59375 C 239.523438 171.492188 239.265625 171.382812 239.011719 171.277344 C 238.738281 171.164062 238.464844 171.054688 238.195312 170.9375 C 237.941406 170.828125 237.691406 170.71875 237.445312 170.609375 C 237.175781 170.496094 236.90625 170.378906 236.644531 170.257812 C 236.515625 170.203125 236.390625 170.140625 236.261719 170.082031 L 236.261719 191.175781 C 238.519531 192.273438 240.890625 193.289062 243.371094 194.214844 Z M 247.511719 165.414062 L 247.511719 143.796875 C 245.089844 143.46875 242.71875 143.078125 240.402344 142.632812 L 240.402344 164.203125 C 240.6875 164.257812 240.976562 164.324219 241.265625 164.378906 C 241.300781 164.386719 241.332031 164.390625 241.367188 164.398438 C 242.234375 164.566406 243.113281 164.722656 243.992188 164.867188 C 244.203125 164.902344 244.410156 164.941406 244.621094 164.976562 C 244.796875 165.003906 244.972656 165.03125 245.148438 165.0625 C 245.515625 165.117188 245.875 165.175781 246.242188 165.234375 C 246.414062 165.257812 246.585938 165.285156 246.757812 165.3125 C 247.011719 165.34375 247.261719 165.378906 247.511719 165.414062 Z M 216.367188 135.234375 L 216.367188 156.382812 C 216.433594 156.417969 216.503906 156.453125 216.570312 156.488281 C 216.683594 156.542969 216.789062 156.59375 216.902344 156.648438 C 218.136719 157.242188 219.4375 157.828125 220.808594 158.398438 C 221.683594 158.765625 222.578125 159.113281 223.472656 159.453125 L 223.472656 138.097656 C 220.984375 137.214844 218.609375 136.253906 216.367188 135.234375 Z M 253.742188 176.054688 C 253.484375 175.992188 253.230469 175.925781 252.976562 175.859375 C 252.613281 175.765625 252.246094 175.671875 251.886719 175.578125 C 251.597656 175.5 251.3125 175.425781 251.03125 175.347656 C 250.707031 175.257812 250.382812 175.171875 250.058594 175.082031 C 249.765625 175 249.476562 174.914062 249.191406 174.828125 C 248.886719 174.738281 248.578125 174.652344 248.277344 174.5625 L 248.277344 195.898438 C 250.582031 196.617188 252.957031 197.277344 255.386719 197.859375 L 255.386719 176.449219 C 254.839844 176.320312 254.289062 176.191406 253.742188 176.054688 Z M 320.695312 161.3125 C 324.605469 160.277344 328.203125 159.066406 331.417969 157.699219 C 341.300781 153.5 347.382812 148.015625 347.382812 142.195312 C 347.382812 140.394531 346.792969 138.621094 345.683594 136.917969 C 345.210938 136.1875 344.644531 135.46875 343.988281 134.765625 C 343.988281 134.785156 343.984375 134.8125 343.984375 134.832031 C 343.980469 134.894531 343.980469 134.953125 343.976562 135.011719 C 343.972656 135.113281 343.960938 135.207031 343.957031 135.304688 C 343.953125 135.394531 343.941406 135.484375 343.933594 135.578125 C 343.925781 135.667969 343.921875 135.757812 343.914062 135.847656 C 343.902344 135.941406 343.890625 136.03125 343.882812 136.125 C 343.871094 136.226562 343.855469 136.320312 343.84375 136.417969 C 343.808594 136.703125 343.765625 136.980469 343.71875 137.261719 C 343.707031 137.339844 343.695312 137.414062 343.675781 137.492188 C 343.617188 137.8125 343.550781 138.125 343.480469 138.441406 C 343.46875 138.480469 343.460938 138.515625 343.453125 138.554688 C 343.011719 140.410156 342.304688 142.222656 341.355469 143.980469 C 341.328125 144.03125 341.300781 144.082031 341.269531 144.132812 C 341.117188 144.410156 340.960938 144.683594 340.796875 144.960938 C 340.742188 145.054688 340.683594 145.148438 340.628906 145.238281 C 340.492188 145.457031 340.355469 145.675781 340.207031 145.894531 C 340.121094 146.023438 340.039062 146.160156 339.949219 146.289062 C 339.847656 146.4375 339.734375 146.59375 339.628906 146.742188 C 338.558594 148.257812 337.304688 149.722656 335.882812 151.128906 C 335.828125 151.1875 335.773438 151.242188 335.710938 151.292969 C 334.0625 152.902344 332.195312 154.441406 330.132812 155.886719 C 328.027344 157.363281 325.722656 158.757812 323.246094 160.046875 C 323.242188 160.050781 323.238281 160.050781 323.230469 160.054688 C 323.222656 160.058594 323.214844 160.0625 323.199219 160.070312 C 322.75 160.308594 322.292969 160.539062 321.828125 160.769531 C 321.742188 160.8125 321.65625 160.855469 321.570312 160.890625 C 321.28125 161.027344 320.992188 161.171875 320.695312 161.3125 Z M 204.347656 148.417969 C 206.359375 150.28125 208.746094 152.046875 211.457031 153.699219 L 211.457031 132.773438 C 211.253906 132.664062 211.058594 132.554688 210.859375 132.441406 C 210.6875 132.34375 210.519531 132.25 210.347656 132.152344 C 210.085938 132 209.828125 131.851562 209.570312 131.699219 C 209.402344 131.601562 209.238281 131.5 209.070312 131.398438 C 208.8125 131.242188 208.558594 131.085938 208.3125 130.929688 C 208.15625 130.832031 207.996094 130.730469 207.84375 130.632812 C 207.585938 130.46875 207.332031 130.300781 207.082031 130.136719 C 206.941406 130.039062 206.796875 129.945312 206.65625 129.851562 C 206.390625 129.671875 206.128906 129.488281 205.871094 129.304688 C 205.75 129.222656 205.628906 129.136719 205.511719 129.054688 C 205.210938 128.839844 204.917969 128.625 204.628906 128.40625 C 204.554688 128.351562 204.480469 128.300781 204.40625 128.242188 C 204.390625 128.230469 204.371094 128.214844 204.347656 128.199219 Z M 212.449219 218.121094 C 214.460938 219.984375 216.847656 221.75 219.554688 223.398438 L 219.554688 202.472656 C 219.359375 202.367188 219.167969 202.257812 218.972656 202.148438 C 218.785156 202.042969 218.601562 201.933594 218.414062 201.828125 C 218.171875 201.6875 217.929688 201.546875 217.6875 201.402344 C 217.507812 201.296875 217.328125 201.1875 217.152344 201.082031 C 216.910156 200.933594 216.671875 200.789062 216.433594 200.636719 C 216.261719 200.53125 216.09375 200.421875 215.925781 200.316406 C 215.6875 200.160156 215.445312 200 215.210938 199.847656 C 215.054688 199.742188 214.894531 199.640625 214.746094 199.535156 C 214.496094 199.371094 214.25 199.199219 214.003906 199.027344 C 213.871094 198.929688 213.734375 198.835938 213.601562 198.742188 C 213.324219 198.542969 213.050781 198.34375 212.78125 198.140625 C 212.6875 198.070312 212.589844 198.003906 212.5 197.933594 C 212.484375 197.921875 212.46875 197.90625 212.453125 197.898438 L 212.453125 218.121094 Z M 236.480469 209.40625 L 236.480469 230.851562 C 238.761719 231.574219 241.136719 232.234375 243.589844 232.832031 L 243.589844 211.296875 C 241.144531 210.730469 238.777344 210.097656 236.480469 209.40625 Z M 248.503906 233.910156 C 250.8125 234.371094 253.183594 234.769531 255.613281 235.113281 L 255.613281 213.496094 C 253.191406 213.167969 250.820312 212.773438 248.503906 212.332031 Z M 260.519531 235.71875 C 262.851562 235.964844 265.21875 236.152344 267.628906 236.289062 L 267.628906 214.640625 C 265.226562 214.511719 262.855469 214.324219 260.519531 214.085938 Z M 284.554688 214.636719 L 284.554688 236.285156 C 286.960938 236.152344 289.335938 235.960938 291.660156 235.714844 L 291.660156 214.082031 C 289.332031 214.324219 286.957031 214.507812 284.554688 214.636719 Z M 296.574219 235.113281 C 298.996094 234.769531 301.371094 234.371094 303.683594 233.910156 L 303.683594 212.332031 C 301.367188 212.773438 298.996094 213.167969 296.574219 213.496094 Z M 308.589844 232.832031 C 311.046875 232.238281 313.417969 231.574219 315.695312 230.851562 L 315.695312 209.414062 C 315.65625 209.425781 315.621094 209.4375 315.589844 209.449219 C 313.332031 210.125 310.996094 210.738281 308.589844 211.296875 Z M 332.625 202.472656 L 332.625 223.398438 C 335.332031 221.75 337.71875 219.984375 339.734375 218.121094 L 339.734375 197.902344 C 339.726562 197.914062 339.714844 197.921875 339.699219 197.929688 C 339.441406 198.121094 339.175781 198.316406 338.914062 198.503906 C 338.691406 198.667969 338.472656 198.832031 338.242188 198.992188 C 337.957031 199.191406 337.660156 199.390625 337.367188 199.589844 C 337.148438 199.734375 336.9375 199.882812 336.71875 200.027344 C 336.398438 200.234375 336.070312 200.441406 335.742188 200.644531 C 335.53125 200.773438 335.328125 200.90625 335.117188 201.039062 C 334.765625 201.253906 334.40625 201.460938 334.042969 201.671875 C 333.847656 201.789062 333.652344 201.90625 333.453125 202.019531 C 333.175781 202.171875 332.902344 202.324219 332.625 202.472656 Z M 348.28125 185.960938 C 349.449219 185.085938 350.535156 184.191406 351.535156 183.273438 L 351.535156 163.054688 C 351.515625 163.066406 351.496094 163.082031 351.476562 163.097656 C 351.40625 163.152344 351.328125 163.210938 351.253906 163.265625 C 350.964844 163.480469 350.675781 163.699219 350.371094 163.910156 C 350.253906 163.996094 350.132812 164.078125 350.011719 164.164062 C 349.753906 164.34375 349.492188 164.527344 349.226562 164.710938 C 349.082031 164.804688 348.941406 164.898438 348.800781 164.992188 C 348.546875 165.160156 348.296875 165.324219 348.039062 165.492188 C 347.882812 165.589844 347.730469 165.6875 347.570312 165.789062 C 347.316406 165.945312 347.0625 166.101562 346.804688 166.261719 C 346.640625 166.359375 346.480469 166.457031 346.316406 166.558594 C 346.058594 166.710938 345.792969 166.863281 345.527344 167.015625 C 345.363281 167.113281 345.199219 167.210938 345.03125 167.304688 C 344.828125 167.417969 344.625 167.527344 344.425781 167.640625 L 344.425781 188.492188 C 345.675781 187.75 346.914062 186.980469 348.203125 186.019531 C 348.226562 185.984375 348.253906 185.976562 348.28125 185.960938 Z M 196.886719 107.335938 C 196.886719 110.007812 197.609375 112.617188 198.957031 115.117188 C 200.046875 117.132812 201.542969 119.082031 203.40625 120.941406 C 203.550781 121.058594 203.6875 121.191406 203.804688 121.335938 C 206.703125 124.128906 210.425781 126.722656 214.832031 129.039062 C 214.964844 129.09375 215.09375 129.160156 215.214844 129.238281 C 215.8125 129.546875 216.414062 129.851562 217.03125 130.148438 C 219.953125 131.554688 223.136719 132.839844 226.53125 133.984375 C 226.65625 134.015625 226.78125 134.058594 226.894531 134.105469 C 230.476562 135.300781 234.296875 136.347656 238.320312 137.214844 C 238.410156 137.226562 238.5 137.25 238.585938 137.269531 C 242.292969 138.066406 246.167969 138.710938 250.179688 139.199219 C 250.214844 139.203125 250.246094 139.207031 250.28125 139.210938 C 255.941406 139.894531 261.875 140.261719 267.992188 140.261719 C 274.101562 140.261719 280.03125 139.894531 285.691406 139.21875 C 285.730469 139.210938 285.765625 139.207031 285.804688 139.203125 C 289.820312 138.71875 293.699219 138.070312 297.40625 137.273438 C 297.488281 137.253906 297.570312 137.234375 297.652344 137.222656 C 301.675781 136.351562 305.496094 135.308594 309.082031 134.113281 C 309.199219 134.0625 309.320312 134.023438 309.449219 133.992188 C 312.847656 132.84375 316.027344 131.558594 318.949219 130.152344 C 319.566406 129.855469 320.175781 129.550781 320.773438 129.242188 C 320.886719 129.167969 321.011719 129.101562 321.140625 129.050781 C 325.550781 126.734375 329.277344 124.144531 332.175781 121.34375 C 332.289062 121.199219 332.425781 121.070312 332.570312 120.957031 C 334.914062 118.617188 336.679688 116.140625 337.78125 113.5625 C 338.640625 111.542969 339.09375 109.464844 339.09375 107.347656 C 339.09375 98.597656 331.398438 90.523438 318.949219 84.535156 C 305.960938 78.289062 287.941406 74.425781 267.992188 74.425781 C 248.035156 74.425781 230.019531 78.289062 217.03125 84.535156 C 204.589844 90.515625 196.886719 98.589844 196.886719 107.335938 Z M 196.886719 133.910156 C 196.886719 136.878906 197.777344 139.769531 199.433594 142.53125 L 199.433594 123.863281 C 199.351562 123.777344 199.277344 123.695312 199.195312 123.609375 C 199 123.402344 198.808594 123.199219 198.621094 122.988281 C 198.53125 122.886719 198.441406 122.789062 198.355469 122.6875 C 198.171875 122.476562 197.992188 122.265625 197.816406 122.054688 C 197.734375 121.957031 197.652344 121.855469 197.570312 121.761719 C 197.390625 121.542969 197.21875 121.320312 197.046875 121.097656 C 196.992188 121.027344 196.9375 120.960938 196.886719 120.894531 Z M 207.5625 168.371094 C 205.886719 171.128906 204.988281 174.039062 204.988281 177.039062 C 204.988281 178.496094 205.207031 179.9375 205.621094 181.351562 C 207.691406 188.421875 214.761719 194.859375 225.132812 199.851562 C 238.121094 206.097656 256.136719 209.960938 276.09375 209.960938 C 290.097656 209.960938 303.148438 208.050781 314.1875 204.75 C 314.492188 204.660156 314.789062 204.566406 315.089844 204.472656 C 315.429688 204.363281 315.773438 204.261719 316.113281 204.152344 C 316.429688 204.050781 316.746094 203.941406 317.0625 203.839844 C 317.316406 203.753906 317.574219 203.671875 317.828125 203.585938 C 315.960938 203.984375 314.15625 204.320312 312.382812 204.605469 C 310.378906 204.941406 308.335938 205.230469 306.261719 205.484375 C 306.214844 205.496094 306.167969 205.5 306.121094 205.503906 C 300.871094 206.140625 295.414062 206.503906 289.800781 206.574219 C 289.792969 206.574219 289.792969 206.574219 289.789062 206.574219 C 289.160156 206.582031 288.527344 206.585938 287.890625 206.585938 C 281.609375 206.585938 275.503906 206.207031 269.667969 205.503906 C 269.613281 205.5 269.5625 205.488281 269.511719 205.484375 C 266.910156 205.167969 264.363281 204.785156 261.878906 204.34375 C 247.707031 202.996094 235.316406 199.671875 226.484375 195.101562 C 217.226562 190.308594 211.691406 184.046875 211.691406 177.039062 C 211.691406 176.253906 211.769531 175.441406 211.925781 174.617188 L 211.925781 174.609375 C 212.023438 174.0625 212.167969 173.515625 212.332031 172.980469 C 212.191406 172.335938 212.085938 171.683594 212.011719 171.027344 C 212.011719 171.015625 212.007812 170.996094 212.007812 170.984375 C 212.007812 170.980469 212.007812 170.972656 212.007812 170.96875 C 211.925781 170.242188 211.882812 169.507812 211.878906 168.769531 C 211.878906 168.765625 211.878906 168.761719 211.878906 168.757812 L 211.878906 163.082031 C 210.121094 164.773438 208.671875 166.542969 207.5625 168.371094 Z M 204.988281 203.609375 C 204.988281 206.578125 205.878906 209.46875 207.535156 212.234375 L 207.535156 193.566406 C 207.449219 193.480469 207.371094 193.390625 207.289062 193.300781 C 207.097656 193.101562 206.914062 192.902344 206.734375 192.699219 C 206.640625 192.589844 206.542969 192.488281 206.449219 192.378906 C 206.269531 192.179688 206.097656 191.972656 205.925781 191.765625 C 205.839844 191.664062 205.75 191.554688 205.664062 191.453125 C 205.492188 191.242188 205.324219 191.027344 205.15625 190.8125 C 205.101562 190.738281 205.039062 190.664062 204.984375 190.59375 L 204.984375 203.609375 Z M 225.128906 226.414062 C 227.15625 227.390625 229.308594 228.304688 231.570312 229.160156 L 231.570312 207.796875 C 229.082031 206.914062 226.707031 205.953125 224.464844 204.929688 L 224.464844 226.082031 C 224.6875 226.199219 224.90625 226.304688 225.128906 226.414062 Z M 279.648438 236.484375 L 279.648438 214.824219 C 278.46875 214.851562 277.289062 214.867188 276.09375 214.867188 C 274.902344 214.867188 273.714844 214.855469 272.539062 214.824219 L 272.539062 236.480469 C 273.714844 236.503906 274.902344 236.523438 276.09375 236.523438 C 277.28125 236.527344 278.46875 236.507812 279.648438 236.484375 Z M 327.050781 226.414062 C 327.273438 226.304688 327.492188 226.195312 327.714844 226.085938 L 327.714844 204.9375 C 327.273438 205.136719 326.828125 205.335938 326.375 205.527344 C 326.289062 205.566406 326.203125 205.605469 326.117188 205.644531 C 325.488281 205.917969 324.84375 206.1875 324.191406 206.449219 C 324.175781 206.457031 324.152344 206.464844 324.136719 206.46875 C 322.988281 206.929688 321.8125 207.371094 320.609375 207.800781 L 320.609375 229.160156 C 322.867188 228.308594 325.023438 227.390625 327.050781 226.414062 Z M 347.195312 192.589844 C 346.402344 193.101562 345.515625 193.609375 344.644531 194.082031 L 344.644531 212.234375 C 346.308594 209.472656 347.195312 206.578125 347.195312 203.609375 Z M 358.847656 155.929688 C 358.671875 156.160156 358.488281 156.390625 358.304688 156.621094 C 358.226562 156.714844 358.148438 156.804688 358.070312 156.898438 C 357.890625 157.117188 357.707031 157.332031 357.515625 157.546875 C 357.429688 157.644531 357.34375 157.742188 357.257812 157.835938 C 357.070312 158.046875 356.875 158.257812 356.679688 158.46875 C 356.601562 158.550781 356.519531 158.636719 356.441406 158.71875 L 356.441406 177.382812 C 358.101562 174.625 358.996094 171.726562 358.996094 168.757812 L 358.996094 155.746094 C 358.949219 155.808594 358.894531 155.867188 358.847656 155.929688 Z M 358.847656 155.929688 " fill-opacity="1" fill-rule="nonzero"/></g></svg>